<?xml version="1.0" encoding="utf-8"?>
<!-- Generator: Adobe Illustrator 23.0.1, SVG Export Plug-In . SVG Version: 6.00 Build 0)  -->
<svg version="1.1" id="Capa_1" xmlns="http://www.w3.org/2000/svg" xmlns:xlink="http://www.w3.org/1999/xlink" x="0px" y="0px"
	 viewBox="0 0 324.1 211.1" style="enable-background:new 0 0 324.1 211.1;" xml:space="preserve">
<style type="text/css">
	.st0{fill:url(#SVGID_1_);}
	.st1{fill:url(#SVGID_2_);}
	.st2{fill:url(#SVGID_3_);}
	.st3{fill:url(#SVGID_4_);}
	.st4{fill:url(#SVGID_5_);}
	.st5{fill:url(#SVGID_6_);}
	.st6{fill:url(#SVGID_7_);}
	.st7{fill:url(#SVGID_8_);}
	.st8{fill:url(#SVGID_9_);}
	.st9{fill:url(#SVGID_10_);}
	.st10{fill:url(#SVGID_11_);}
	.st11{fill:url(#SVGID_12_);}
	.st12{fill:url(#SVGID_13_);}
	.st13{fill:url(#SVGID_14_);}
	.st14{fill:url(#SVGID_15_);}
	.st15{fill:url(#SVGID_16_);}
	.st16{fill:url(#SVGID_17_);}
	.st17{fill:url(#SVGID_18_);}
	.st18{fill:url(#SVGID_19_);}
	.st19{fill:url(#SVGID_20_);}
	.st20{fill:url(#SVGID_21_);}
	.st21{fill:url(#SVGID_22_);}
	.st22{fill:url(#SVGID_23_);}
	.st23{fill:url(#SVGID_24_);}
	.st24{fill:url(#SVGID_25_);}
	.st25{fill:url(#SVGID_26_);}
	.st26{fill:url(#SVGID_27_);}
</style>
<g>
	<radialGradient id="SVGID_1_" cx="69.5406" cy="51.8825" r="4.0724" gradientUnits="userSpaceOnUse">
		<stop  offset="0" style="stop-color:#FFFFFF"/>
		<stop  offset="0.9818" style="stop-color:#FFFFFF;stop-opacity:0"/>
	</radialGradient>
	<path class="st0" d="M73.6,51.9c0,2.2-1.8,4.1-4.1,4.1c-2.3,0-4.1-1.8-4.1-4.1c0-2.2,1.8-4.1,4.1-4.1
		C71.8,47.8,73.6,49.6,73.6,51.9z"/>
	<radialGradient id="SVGID_2_" cx="43.9116" cy="172.8606" r="4.0724" gradientUnits="userSpaceOnUse">
		<stop  offset="0" style="stop-color:#FFFFFF"/>
		<stop  offset="0.9818" style="stop-color:#FFFFFF;stop-opacity:0"/>
	</radialGradient>
	<path class="st1" d="M48,172.9c0,2.2-1.8,4.1-4.1,4.1c-2.3,0-4.1-1.8-4.1-4.1c0-2.3,1.8-4.1,4.1-4.1C46.2,168.8,48,170.6,48,172.9z
		"/>
	<radialGradient id="SVGID_3_" cx="28.3696" cy="146.8354" r="12.251" gradientUnits="userSpaceOnUse">
		<stop  offset="0" style="stop-color:#F37069"/>
		<stop  offset="6.795671e-02" style="stop-color:#F48277;stop-opacity:0.9308"/>
		<stop  offset="0.2286" style="stop-color:#F8A598;stop-opacity:0.7672"/>
		<stop  offset="0.3889" style="stop-color:#FBC4B8;stop-opacity:0.6039"/>
		<stop  offset="0.5461" style="stop-color:#FDDCD3;stop-opacity:0.4438"/>
		<stop  offset="0.6993" style="stop-color:#FEEEE9;stop-opacity:0.2877"/>
		<stop  offset="0.8467" style="stop-color:#FFF9F7;stop-opacity:0.1376"/>
		<stop  offset="0.9818" style="stop-color:#FFFFFF;stop-opacity:0"/>
	</radialGradient>
	<path class="st2" d="M40.6,146.8c0,6.8-5.5,12.3-12.3,12.3c-6.8,0-12.3-5.5-12.3-12.3c0-6.8,5.5-12.3,12.3-12.3
		C35.1,134.6,40.6,140.1,40.6,146.8z"/>
	<radialGradient id="SVGID_4_" cx="94.8911" cy="189.1933" r="8.2583" gradientUnits="userSpaceOnUse">
		<stop  offset="0" style="stop-color:#FFFFFF"/>
		<stop  offset="0.9818" style="stop-color:#FFFFFF;stop-opacity:0"/>
	</radialGradient>
	<path class="st3" d="M103.1,189.2c0,4.6-3.7,8.3-8.3,8.3c-4.6,0-8.3-3.7-8.3-8.3c0-4.6,3.7-8.3,8.3-8.3
		C99.5,180.9,103.1,184.6,103.1,189.2z"/>
	<radialGradient id="SVGID_5_" cx="71.5801" cy="161.0366" r="8.3201" gradientUnits="userSpaceOnUse">
		<stop  offset="0" style="stop-color:#FFFFFF"/>
		<stop  offset="0.9818" style="stop-color:#FFFFFF;stop-opacity:0"/>
	</radialGradient>
	<path class="st4" d="M79.9,161c0,4.6-3.7,8.3-8.3,8.3c-4.6,0-8.3-3.7-8.3-8.3c0-4.6,3.7-8.3,8.3-8.3
		C76.2,152.7,79.9,156.4,79.9,161z"/>
	<radialGradient id="SVGID_6_" cx="184.8921" cy="42.834" r="8.1445" gradientUnits="userSpaceOnUse">
		<stop  offset="0" style="stop-color:#FFFFFF"/>
		<stop  offset="0.9818" style="stop-color:#FFFFFF;stop-opacity:0"/>
	</radialGradient>
	<path class="st5" d="M193,42.8c0,4.5-3.6,8.1-8.1,8.1c-4.5,0-8.1-3.6-8.1-8.1c0-4.5,3.6-8.1,8.1-8.1C189.4,34.7,193,38.3,193,42.8z
		"/>
	<radialGradient id="SVGID_7_" cx="313.3388" cy="69.8354" r="8.1448" gradientUnits="userSpaceOnUse">
		<stop  offset="0" style="stop-color:#FFFFFF"/>
		<stop  offset="0.9818" style="stop-color:#FFFFFF;stop-opacity:0"/>
	</radialGradient>
	<circle class="st6" cx="313.3" cy="69.8" r="8.1"/>
	<radialGradient id="SVGID_8_" cx="235.3609" cy="72.8223" r="16.7019" gradientUnits="userSpaceOnUse">
		<stop  offset="0" style="stop-color:#FFFFFF"/>
		<stop  offset="0.9818" style="stop-color:#FFFFFF;stop-opacity:0"/>
	</radialGradient>
	<path class="st7" d="M252.1,72.8c0,9.2-7.5,16.7-16.7,16.7c-9.2,0-16.7-7.5-16.7-16.7c0-9.2,7.5-16.7,16.7-16.7
		C244.6,56.1,252.1,63.6,252.1,72.8z"/>
	<radialGradient id="SVGID_9_" cx="166.3076" cy="23.486" r="4.9693" gradientUnits="userSpaceOnUse">
		<stop  offset="0" style="stop-color:#FFFFFF"/>
		<stop  offset="0.9818" style="stop-color:#FFFFFF;stop-opacity:0"/>
	</radialGradient>
	<path class="st8" d="M171.3,23.5c0,2.7-2.2,5-5,5c-2.7,0-5-2.2-5-5c0-2.7,2.2-5,5-5C169.1,18.5,171.3,20.7,171.3,23.5z"/>
	<radialGradient id="SVGID_10_" cx="8.145" cy="32.4628" r="8.1448" gradientUnits="userSpaceOnUse">
		<stop  offset="0" style="stop-color:#FFFFFF"/>
		<stop  offset="0.9818" style="stop-color:#FFFFFF;stop-opacity:0"/>
	</radialGradient>
	<path class="st9" d="M16.3,32.5c0,4.5-3.6,8.1-8.1,8.1C3.6,40.6,0,37,0,32.5c0-4.5,3.6-8.1,8.1-8.1C12.6,24.3,16.3,28,16.3,32.5z"
		/>
	<radialGradient id="SVGID_11_" cx="39.8394" cy="49.9468" r="4.9693" gradientUnits="userSpaceOnUse">
		<stop  offset="0" style="stop-color:#FFFFFF"/>
		<stop  offset="0.9818" style="stop-color:#FFFFFF;stop-opacity:0"/>
	</radialGradient>
	<path class="st10" d="M44.8,49.9c0,2.7-2.2,5-5,5c-2.7,0-5-2.2-5-5c0-2.7,2.2-5,5-5C42.6,45,44.8,47.2,44.8,49.9z"/>
	<radialGradient id="SVGID_12_" cx="218.793" cy="49.0363" r="4.9694" gradientUnits="userSpaceOnUse">
		<stop  offset="0" style="stop-color:#FFFFFF"/>
		<stop  offset="0.9818" style="stop-color:#FFFFFF;stop-opacity:0"/>
	</radialGradient>
	<path class="st11" d="M223.8,49c0,2.7-2.2,5-5,5c-2.7,0-5-2.2-5-5c0-2.7,2.2-5,5-5C221.5,44.1,223.8,46.3,223.8,49z"/>
	<radialGradient id="SVGID_13_" cx="61.0547" cy="197.4516" r="10.0788" gradientUnits="userSpaceOnUse">
		<stop  offset="0" style="stop-color:#FFFFFF"/>
		<stop  offset="0.9818" style="stop-color:#FFFFFF;stop-opacity:0"/>
	</radialGradient>
	<path class="st12" d="M71.1,197.5c0,5.6-4.5,10.1-10.1,10.1c-5.6,0-10.1-4.5-10.1-10.1c0-5.6,4.5-10.1,10.1-10.1
		C66.6,187.4,71.1,191.9,71.1,197.5z"/>
	<radialGradient id="SVGID_14_" cx="41.4541" cy="93.0337" r="20.2112" gradientUnits="userSpaceOnUse">
		<stop  offset="0" style="stop-color:#8AD2D3"/>
		<stop  offset="1.670169e-02" style="stop-color:#8ED3D4;stop-opacity:0.983"/>
		<stop  offset="0.2206" style="stop-color:#B6E1E1;stop-opacity:0.7753"/>
		<stop  offset="0.4223" style="stop-color:#D5EDED;stop-opacity:0.5698"/>
		<stop  offset="0.619" style="stop-color:#EBF6F5;stop-opacity:0.3696"/>
		<stop  offset="0.8082" style="stop-color:#F8FCFC;stop-opacity:0.1768"/>
		<stop  offset="0.9818" style="stop-color:#FFFFFF;stop-opacity:0"/>
	</radialGradient>
	<path class="st13" d="M61.7,93c0,11.2-9,20.2-20.2,20.2c-11.2,0-20.2-9-20.2-20.2c0-11.2,9-20.2,20.2-20.2
		C52.6,72.8,61.7,81.9,61.7,93z"/>
	<radialGradient id="SVGID_15_" cx="128.1474" cy="57.2397" r="20.2109" gradientUnits="userSpaceOnUse">
		<stop  offset="0" style="stop-color:#FFFFFF"/>
		<stop  offset="0.9818" style="stop-color:#FFFFFF;stop-opacity:0"/>
	</radialGradient>
	<circle class="st14" cx="128.1" cy="57.2" r="20.2"/>
	<radialGradient id="SVGID_16_" cx="20.7246" cy="113.2463" r="20.2118" gradientUnits="userSpaceOnUse">
		<stop  offset="0" style="stop-color:#8AD2D3"/>
		<stop  offset="1.670169e-02" style="stop-color:#8ED3D4;stop-opacity:0.983"/>
		<stop  offset="0.2206" style="stop-color:#B6E1E1;stop-opacity:0.7753"/>
		<stop  offset="0.4223" style="stop-color:#D5EDED;stop-opacity:0.5698"/>
		<stop  offset="0.619" style="stop-color:#EBF6F5;stop-opacity:0.3696"/>
		<stop  offset="0.8082" style="stop-color:#F8FCFC;stop-opacity:0.1768"/>
		<stop  offset="0.9818" style="stop-color:#FFFFFF;stop-opacity:0"/>
	</radialGradient>
	<path class="st15" d="M40.9,113.2c0,11.2-9.1,20.2-20.2,20.2c-11.2,0-20.2-9-20.2-20.2c0-11.2,9-20.2,20.2-20.2
		C31.9,93,40.9,102.1,40.9,113.2z"/>
	<radialGradient id="SVGID_17_" cx="109.7066" cy="163.6122" r="14.7437" gradientUnits="userSpaceOnUse">
		<stop  offset="0" style="stop-color:#F37069"/>
		<stop  offset="6.795671e-02" style="stop-color:#F48277;stop-opacity:0.9308"/>
		<stop  offset="0.2286" style="stop-color:#F8A598;stop-opacity:0.7672"/>
		<stop  offset="0.3889" style="stop-color:#FBC4B8;stop-opacity:0.6039"/>
		<stop  offset="0.5461" style="stop-color:#FDDCD3;stop-opacity:0.4438"/>
		<stop  offset="0.6993" style="stop-color:#FEEEE9;stop-opacity:0.2877"/>
		<stop  offset="0.8467" style="stop-color:#FFF9F7;stop-opacity:0.1376"/>
		<stop  offset="0.9818" style="stop-color:#FFFFFF;stop-opacity:0"/>
	</radialGradient>
	<path class="st16" d="M124.5,163.6c0,8.1-6.6,14.7-14.7,14.7c-8.1,0-14.7-6.6-14.7-14.7c0-8.1,6.6-14.7,14.7-14.7
		C117.8,148.9,124.5,155.5,124.5,163.6z"/>
	<radialGradient id="SVGID_18_" cx="89.2265" cy="24.9736" r="24.9736" gradientUnits="userSpaceOnUse">
		<stop  offset="0" style="stop-color:#F37069"/>
		<stop  offset="6.795671e-02" style="stop-color:#F48277;stop-opacity:0.9308"/>
		<stop  offset="0.2286" style="stop-color:#F8A598;stop-opacity:0.7672"/>
		<stop  offset="0.3889" style="stop-color:#FBC4B8;stop-opacity:0.6039"/>
		<stop  offset="0.5461" style="stop-color:#FDDCD3;stop-opacity:0.4438"/>
		<stop  offset="0.6993" style="stop-color:#FEEEE9;stop-opacity:0.2877"/>
		<stop  offset="0.8467" style="stop-color:#FFF9F7;stop-opacity:0.1376"/>
		<stop  offset="0.9818" style="stop-color:#FFFFFF;stop-opacity:0"/>
	</radialGradient>
	<path class="st17" d="M114.2,25c0,13.8-11.2,25-25,25c-13.8,0-25-11.2-25-25s11.2-25,25-25C103,0,114.2,11.2,114.2,25z"/>
	<radialGradient id="SVGID_19_" cx="303.8447" cy="167.2263" r="20.2115" gradientUnits="userSpaceOnUse">
		<stop  offset="0" style="stop-color:#FFFFFF"/>
		<stop  offset="0.9818" style="stop-color:#FFFFFF;stop-opacity:0"/>
	</radialGradient>
	<path class="st18" d="M324.1,167.2c0,11.2-9,20.2-20.2,20.2c-11.2,0-20.2-9-20.2-20.2c0-11.2,9-20.2,20.2-20.2
		C315,147,324.1,156.1,324.1,167.2z"/>
	<radialGradient id="SVGID_20_" cx="253.8593" cy="190.3547" r="4.0726" gradientUnits="userSpaceOnUse">
		<stop  offset="0" style="stop-color:#FFFFFF"/>
		<stop  offset="0.9818" style="stop-color:#FFFFFF;stop-opacity:0"/>
	</radialGradient>
	<path class="st19" d="M257.9,190.4c0,2.3-1.8,4.1-4.1,4.1c-2.3,0-4.1-1.8-4.1-4.1c0-2.2,1.8-4.1,4.1-4.1
		C256.1,186.3,257.9,188.1,257.9,190.4z"/>
	<radialGradient id="SVGID_21_" cx="264.8501" cy="146.4021" r="4.0724" gradientUnits="userSpaceOnUse">
		<stop  offset="0" style="stop-color:#FFFFFF"/>
		<stop  offset="0.9818" style="stop-color:#FFFFFF;stop-opacity:0"/>
	</radialGradient>
	<path class="st20" d="M268.9,146.4c0,2.2-1.8,4.1-4.1,4.1c-2.3,0-4.1-1.8-4.1-4.1c0-2.2,1.8-4.1,4.1-4.1
		C267.1,142.3,268.9,144.2,268.9,146.4z"/>
	<radialGradient id="SVGID_22_" cx="290.5845" cy="81.9424" r="4.072" gradientUnits="userSpaceOnUse">
		<stop  offset="0" style="stop-color:#FFFFFF"/>
		<stop  offset="0.9818" style="stop-color:#FFFFFF;stop-opacity:0"/>
	</radialGradient>
	<path class="st21" d="M294.7,81.9c0,2.3-1.8,4.1-4.1,4.1c-2.3,0-4.1-1.8-4.1-4.1c0-2.2,1.8-4.1,4.1-4.1
		C292.8,77.9,294.7,79.7,294.7,81.9z"/>
	<radialGradient id="SVGID_23_" cx="291.5415" cy="118.8737" r="4.9693" gradientUnits="userSpaceOnUse">
		<stop  offset="0" style="stop-color:#FFFFFF"/>
		<stop  offset="0.9818" style="stop-color:#FFFFFF;stop-opacity:0"/>
	</radialGradient>
	<path class="st22" d="M296.5,118.9c0,2.7-2.2,5-5,5c-2.7,0-5-2.2-5-5c0-2.7,2.2-5,5-5C294.3,113.9,296.5,116.1,296.5,118.9z"/>
	<radialGradient id="SVGID_24_" cx="212.3145" cy="203.0009" r="8.145" gradientUnits="userSpaceOnUse">
		<stop  offset="0" style="stop-color:#FFFFFF"/>
		<stop  offset="0.9818" style="stop-color:#FFFFFF;stop-opacity:0"/>
	</radialGradient>
	<path class="st23" d="M220.5,203c0,4.5-3.6,8.1-8.1,8.1c-4.5,0-8.1-3.6-8.1-8.1c0-4.5,3.6-8.1,8.1-8.1
		C216.8,194.9,220.5,198.5,220.5,203z"/>
	<radialGradient id="SVGID_25_" cx="235.3618" cy="201.6604" r="4.9691" gradientUnits="userSpaceOnUse">
		<stop  offset="0" style="stop-color:#FFFFFF"/>
		<stop  offset="0.9818" style="stop-color:#FFFFFF;stop-opacity:0"/>
	</radialGradient>
	<path class="st24" d="M240.3,201.7c0,2.7-2.2,5-5,5c-2.7,0-5-2.2-5-5c0-2.7,2.2-5,5-5C238.1,196.7,240.3,198.9,240.3,201.7z"/>
	<radialGradient id="SVGID_26_" cx="229.5771" cy="166.6138" r="20.211" gradientUnits="userSpaceOnUse">
		<stop  offset="0" style="stop-color:#FEBE29"/>
		<stop  offset="5.579811e-02" style="stop-color:#FEC344;stop-opacity:0.9432"/>
		<stop  offset="0.195" style="stop-color:#FFD278;stop-opacity:0.8014"/>
		<stop  offset="0.3349" style="stop-color:#FFDE9E;stop-opacity:0.6589"/>
		<stop  offset="0.4727" style="stop-color:#FFE9BF;stop-opacity:0.5186"/>
		<stop  offset="0.6077" style="stop-color:#FFF1D8;stop-opacity:0.381"/>
		<stop  offset="0.7393" style="stop-color:#FFF7EB;stop-opacity:0.247"/>
		<stop  offset="0.8658" style="stop-color:#FFFDF8;stop-opacity:0.1181"/>
		<stop  offset="0.9818" style="stop-color:#FFFFFF;stop-opacity:0"/>
	</radialGradient>
	<circle class="st25" cx="229.6" cy="166.6" r="20.2"/>
	<radialGradient id="SVGID_27_" cx="277.7729" cy="190.3547" r="8.2494" gradientUnits="userSpaceOnUse">
		<stop  offset="0" style="stop-color:#F37069"/>
		<stop  offset="6.795671e-02" style="stop-color:#F48277;stop-opacity:0.9308"/>
		<stop  offset="0.2286" style="stop-color:#F8A598;stop-opacity:0.7672"/>
		<stop  offset="0.3889" style="stop-color:#FBC4B8;stop-opacity:0.6039"/>
		<stop  offset="0.5461" style="stop-color:#FDDCD3;stop-opacity:0.4438"/>
		<stop  offset="0.6993" style="stop-color:#FEEEE9;stop-opacity:0.2877"/>
		<stop  offset="0.8467" style="stop-color:#FFF9F7;stop-opacity:0.1376"/>
		<stop  offset="0.9818" style="stop-color:#FFFFFF;stop-opacity:0"/>
	</radialGradient>
	<path class="st26" d="M286,190.4c0,4.6-3.7,8.2-8.3,8.2c-4.6,0-8.2-3.7-8.2-8.2c0-4.6,3.7-8.2,8.2-8.2
		C282.3,182.1,286,185.8,286,190.4z"/>
</g>
</svg>
