<svg id="el_42-LoIC8F" xmlns="http://www.w3.org/2000/svg" viewBox="0 0 235 360"><style>@-webkit-keyframes kf_el_JPDa8VNnQcY_an_0mtXzV3wv{0%,11.11%,22.22%,33.33%,44.44%,55.56%,66.67%,77.78%,88.89%,to{-webkit-transform:translate(93.5999984741211px,65.28712463378906px) scale(1,1) translate(-93.5999984741211px,-65.28712463378906px);transform:translate(93.5999984741211px,65.28712463378906px) scale(1,1) translate(-93.5999984741211px,-65.28712463378906px)}27.78%,5.56%,50%,72.22%,94.44%{-webkit-transform:translate(93.5999984741211px,65.28712463378906px) scale(.9,.9) translate(-93.5999984741211px,-65.28712463378906px);transform:translate(93.5999984741211px,65.28712463378906px) scale(.9,.9) translate(-93.5999984741211px,-65.28712463378906px)}16.67%,38.89%,61.11%,83.33%{-webkit-transform:translate(93.5999984741211px,65.28712463378906px) scale(1.1,1.1) translate(-93.5999984741211px,-65.28712463378906px);transform:translate(93.5999984741211px,65.28712463378906px) scale(1.1,1.1) translate(-93.5999984741211px,-65.28712463378906px)}}@keyframes kf_el_JPDa8VNnQcY_an_0mtXzV3wv{0%,11.11%,22.22%,33.33%,44.44%,55.56%,66.67%,77.78%,88.89%,to{-webkit-transform:translate(93.5999984741211px,65.28712463378906px) scale(1,1) translate(-93.5999984741211px,-65.28712463378906px);transform:translate(93.5999984741211px,65.28712463378906px) scale(1,1) translate(-93.5999984741211px,-65.28712463378906px)}27.78%,5.56%,50%,72.22%,94.44%{-webkit-transform:translate(93.5999984741211px,65.28712463378906px) scale(.9,.9) translate(-93.5999984741211px,-65.28712463378906px);transform:translate(93.5999984741211px,65.28712463378906px) scale(.9,.9) translate(-93.5999984741211px,-65.28712463378906px)}16.67%,38.89%,61.11%,83.33%{-webkit-transform:translate(93.5999984741211px,65.28712463378906px) scale(1.1,1.1) translate(-93.5999984741211px,-65.28712463378906px);transform:translate(93.5999984741211px,65.28712463378906px) scale(1.1,1.1) translate(-93.5999984741211px,-65.28712463378906px)}}@-webkit-keyframes kf_el_PyduvX48RFb_an_c9d8in-fs{0%,11.11%,22.22%,33.33%,44.44%,55.56%,66.67%,77.78%,88.89%,to{-webkit-transform:translate(64.80000305175781px,84.10000610351562px) scale(1,1) translate(-64.80000305175781px,-84.10000610351562px);transform:translate(64.80000305175781px,84.10000610351562px) scale(1,1) translate(-64.80000305175781px,-84.10000610351562px)}27.78%,5.56%,50%,72.22%,94.44%{-webkit-transform:translate(64.80000305175781px,84.10000610351562px) scale(1.1,1.1) translate(-64.80000305175781px,-84.10000610351562px);transform:translate(64.80000305175781px,84.10000610351562px) scale(1.1,1.1) translate(-64.80000305175781px,-84.10000610351562px)}16.67%,38.89%,61.11%,83.33%{-webkit-transform:translate(64.80000305175781px,84.10000610351562px) scale(.9,.9) translate(-64.80000305175781px,-84.10000610351562px);transform:translate(64.80000305175781px,84.10000610351562px) scale(.9,.9) translate(-64.80000305175781px,-84.10000610351562px)}}@keyframes kf_el_PyduvX48RFb_an_c9d8in-fs{0%,11.11%,22.22%,33.33%,44.44%,55.56%,66.67%,77.78%,88.89%,to{-webkit-transform:translate(64.80000305175781px,84.10000610351562px) scale(1,1) translate(-64.80000305175781px,-84.10000610351562px);transform:translate(64.80000305175781px,84.10000610351562px) scale(1,1) translate(-64.80000305175781px,-84.10000610351562px)}27.78%,5.56%,50%,72.22%,94.44%{-webkit-transform:translate(64.80000305175781px,84.10000610351562px) scale(1.1,1.1) translate(-64.80000305175781px,-84.10000610351562px);transform:translate(64.80000305175781px,84.10000610351562px) scale(1.1,1.1) translate(-64.80000305175781px,-84.10000610351562px)}16.67%,38.89%,61.11%,83.33%{-webkit-transform:translate(64.80000305175781px,84.10000610351562px) scale(.9,.9) translate(-64.80000305175781px,-84.10000610351562px);transform:translate(64.80000305175781px,84.10000610351562px) scale(.9,.9) translate(-64.80000305175781px,-84.10000610351562px)}}@-webkit-keyframes kf_el_DA4kJCUQ88M_an_IUlG_WFcz{0%,33.33%,to{-webkit-transform:translate(94.20000457763672px,66.95000076293945px) rotate(0deg) translate(-94.20000457763672px,-66.95000076293945px);transform:translate(94.20000457763672px,66.95000076293945px) rotate(0deg) translate(-94.20000457763672px,-66.95000076293945px)}16.67%{-webkit-transform:translate(94.20000457763672px,66.95000076293945px) rotate(-35deg) translate(-94.20000457763672px,-66.95000076293945px);transform:translate(94.20000457763672px,66.95000076293945px) rotate(-35deg) translate(-94.20000457763672px,-66.95000076293945px)}}@keyframes kf_el_DA4kJCUQ88M_an_IUlG_WFcz{0%,33.33%,to{-webkit-transform:translate(94.20000457763672px,66.95000076293945px) rotate(0deg) translate(-94.20000457763672px,-66.95000076293945px);transform:translate(94.20000457763672px,66.95000076293945px) rotate(0deg) translate(-94.20000457763672px,-66.95000076293945px)}16.67%{-webkit-transform:translate(94.20000457763672px,66.95000076293945px) rotate(-35deg) translate(-94.20000457763672px,-66.95000076293945px);transform:translate(94.20000457763672px,66.95000076293945px) rotate(-35deg) translate(-94.20000457763672px,-66.95000076293945px)}}@-webkit-keyframes kf_el_DA4kJCUQ88M_an_DtlpVNfo-{0%,16.67%{-webkit-transform:translate(94.20000457763672px,66.95000076293945px) translate(-94.20000457763672px,-66.95000076293945px) translate(1px,0);transform:translate(94.20000457763672px,66.95000076293945px) translate(-94.20000457763672px,-66.95000076293945px) translate(1px,0)}33.33%,to{-webkit-transform:translate(94.20000457763672px,66.95000076293945px) translate(-94.20000457763672px,-66.95000076293945px) translate(0,0);transform:translate(94.20000457763672px,66.95000076293945px) translate(-94.20000457763672px,-66.95000076293945px) translate(0,0)}}@keyframes kf_el_DA4kJCUQ88M_an_DtlpVNfo-{0%,16.67%{-webkit-transform:translate(94.20000457763672px,66.95000076293945px) translate(-94.20000457763672px,-66.95000076293945px) translate(1px,0);transform:translate(94.20000457763672px,66.95000076293945px) translate(-94.20000457763672px,-66.95000076293945px) translate(1px,0)}33.33%,to{-webkit-transform:translate(94.20000457763672px,66.95000076293945px) translate(-94.20000457763672px,-66.95000076293945px) translate(0,0);transform:translate(94.20000457763672px,66.95000076293945px) translate(-94.20000457763672px,-66.95000076293945px) translate(0,0)}}@-webkit-keyframes kf_el_MiC8-InzS6F_an_Xc1Eqb6jU{0%,33.33%,to{-webkit-transform:translate(65.39529037475586px,86.84351348876953px) translate(-65.39529037475586px,-86.84351348876953px) translate(0,0);transform:translate(65.39529037475586px,86.84351348876953px) translate(-65.39529037475586px,-86.84351348876953px) translate(0,0)}16.67%{-webkit-transform:translate(65.39529037475586px,86.84351348876953px) translate(-65.39529037475586px,-86.84351348876953px) translate(2px,0);transform:translate(65.39529037475586px,86.84351348876953px) translate(-65.39529037475586px,-86.84351348876953px) translate(2px,0)}}@keyframes kf_el_MiC8-InzS6F_an_Xc1Eqb6jU{0%,33.33%,to{-webkit-transform:translate(65.39529037475586px,86.84351348876953px) translate(-65.39529037475586px,-86.84351348876953px) translate(0,0);transform:translate(65.39529037475586px,86.84351348876953px) translate(-65.39529037475586px,-86.84351348876953px) translate(0,0)}16.67%{-webkit-transform:translate(65.39529037475586px,86.84351348876953px) translate(-65.39529037475586px,-86.84351348876953px) translate(2px,0);transform:translate(65.39529037475586px,86.84351348876953px) translate(-65.39529037475586px,-86.84351348876953px) translate(2px,0)}}#el_42-LoIC8F *{-webkit-animation-duration:3s;animation-duration:3s;-webkit-animation-iteration-count:25;animation-iteration-count:25;-webkit-animation-timing-function:cubic-bezier(0,0,1,1);animation-timing-function:cubic-bezier(0,0,1,1)}</style><g id="el__1v5yZnI-1"><path fill="#fff" d="M78.7 177.2l.3 35.9 3.6-.1-1.1-35.8zM82.9 218.7h-4.2v34.9h3.6zM82.1 262.3l-3.1.1.1 26.6H82zM82.1 292.5l-.7.4-2.8.2v15l3.5-.2z"/><linearGradient id="SVGID_1_" gradientUnits="userSpaceOnUse" x1="-11802.927" y1="821.328" x2="-11802.766" y2="821.328" gradientTransform="matrix(991.5558 0 0 991.5559 11703288 -814262.313)"><stop offset="0" stop-color="#f28750"/><stop offset="1" stop-color="#e09469"/></linearGradient><path d="M111.3 68.8S93.9 50.5 79.5 48.2c-14.4-2.3-24.4.1-31.5 9.4-7.1 9.3-20.1 32.1-20.7 40.8-.6 8.7 9.2 39.7 9.2 39.7l4.1 11.8s25.8 8 39.4 20.8c13.6 12.8 20.2 20.8 20.2 20.8s21.9-8.4 26.3-12.3 4.5-4.8 4.5-4.8-7.3-6-6.2-9.9 4.9-8.8 6.7-8.5c1.8.3 5.3 2.6 5.3 2.6s8.1-11 10.5-11.4c2.4-.4 7.3 5.6 7.3 5.6l-2.7 5.5s7.2 6.5 7.7 14.1 0 6.2-2 8.4c-1.9 2.2-5.6 2.2-9.1 8.7-3.4 6.5-14.4 23.2-15.6 24-1.2.7 7.7-1.2 21.6-5.4 13.9-4.2 31.3-14.2 31.3-14.2l1-1.4s-1.9-17-4.9-26.4c-3-9.4-7.8-17.6-11.7-23.7-3.9-6-15.2-16.2-15.2-16.2s-2.2-7.3-6.3-11.1c-3.6-3.3-6.5-4.6-6.5-4.6s-1.6-7.9-4-11.6c-2.4-3.7-5.6-5.5-5.6-5.5l-6.9 6.5-2.1 2.1-.1 4.1 4.2 1.9s6.7-2.8 9.4-1.2c2.7 1.6 3.4 5 1.7 7.4-1.7 2.4-4.5 3.4-5.7 4.1-1.2.7-1.7 3-1.7 3s-4.6 14-17.9 13.6c-13.4-.5-25.6-9.4-32.4-17.6-6.8-8.2-7.7-14.6-7.7-14.6s6.8-3.1 9.1-12.8c2.3-9.7 5.8-18.4 10.8-17.9 5 .4 15.8-.7 18-3.2z" fill="url(#SVGID_1_)"/><linearGradient id="SVGID_2_" gradientUnits="userSpaceOnUse" x1="-11802.637" y1="821.357" x2="-11802.477" y2="821.357" gradientTransform="translate(5393831.5 -375262.625) scale(456.9959)"><stop offset="0" stop-color="#933425"/><stop offset="1" stop-color="#c66a46"/></linearGradient><path d="M148.2 77.4s-2.5-9.8-6.1-13.2c-3.7-3.4-1.5-5.2-1.6-5.6-.2-.3-3.3-6.4-8.5-4.2s-5.6 1.3-5.8 1.3c-.2 0-2.9.7-11 8.7-8.1 8-8.3 6.3-14.9 7.6-6.7 1.2-6.8-1.4-9.5.4-2.7 1.9-5.8 11.5-9.4 18.6-3.7 7-6.7 12.3-6.7 12.3s2.6 16.8 19.3 25.5c16.7 8.8 25.7 5.3 30.5 2 4.7-3.3 8.5-12.5 8.5-12.5s7-2.1 7.2-7c.2-4.9-7.8-8-10.7-4.2-2.9 3.8-2.7.5-2.7.5l-2.9-1.1-.2-5s6.4-4.9 10.4-11.2c4-6.4 7.8-11.6 7.8-11.6s4.7 1 5.7.4c.8-.8.6-1.7.6-1.7z" fill="url(#SVGID_2_)"/><linearGradient id="SVGID_3_" gradientUnits="userSpaceOnUse" x1="-11801.535" y1="822.103" x2="-11801.375" y2="822.103" gradientTransform="translate(1085533.5 -75550.313) scale(91.9718)"><stop offset="0" stop-color="#7e122b"/><stop offset="1" stop-color="#933425"/></linearGradient><path d="M135 54s-8.7 2.8-9.7 6.3c-1 3.4.7 5.2 2.6 5.8 1.8.6 8.7-1.5 10.7-4.2 2.2-2.8 1.8-9.1-3.6-7.9z" fill="url(#SVGID_3_)"/><path d="M110.1 106.8s-4.4.7-9.7-1c-5.3-1.7-7.3-7.4-7.3-7.4l-1.1 2.4s3.7 13.6 16.4 17.9 16.1-5.1 16.1-5.1l3.2-5.7-3.8-1.4-.4-6c-.1.1-4 5.3-13.4 6.3zM64.7 91.5l-4.4.9s-4.9-5.8-2.4-13.7c2.5-7.9 12-5.6 13.6-4.2 1.6 1.5 7.3 8.4 5.2 9.6-2.1 1.3-12 7.4-12 7.4zM87.6 63.5c-.2-6.4 4.7-6.5 7.3-5.6 2.6.8 7.6 5.3 6.9 6.5-.7 1.3-2.6 2.3-3.9 4.4l-1.3 2.1s-8.8-1-9-7.4z" fill="#fff"/><linearGradient id="SVGID_4_" gradientUnits="userSpaceOnUse" x1="-11799.137" y1="821.913" x2="-11798.977" y2="821.913" gradientTransform="translate(1868042.5 -130063.523) scale(158.3181)"><stop offset="0" stop-color="#f28750"/><stop offset="1" stop-color="#e09469"/></linearGradient><path d="M48.4 49.3l2.6 4.1s-8.1 12.2-10.9 17.5c-2.8 5.2-5.6 2.4-5.6 2.4s-9.3-6.3-9-15.5c.3-9.1 4.1-11.4 11.6-11.6 7.5-.3 11.3 3.1 11.3 3.1z" fill="url(#SVGID_4_)"/><linearGradient id="SVGID_5_" gradientUnits="userSpaceOnUse" x1="-11802.779" y1="820.816" x2="-11802.618" y2="820.816" gradientTransform="translate(9255133 -643444.625) scale(784.1458)"><stop offset="0" stop-color="#f28750"/><stop offset="1" stop-color="#e09469"/></linearGradient><path d="M36.4 170.2s3-10.3 4.8-9.9c1.8.4 25.5 17.8 32.8 25s12.8 13.4 12.8 13.4 12.5-7.6 22.7-11.6 21.6-11.2 21.2-13c-.4-1.8-6.6-6.1-5.4-9.8 1.1-3.7 3.9-8.3 6.5-8 2.6.3 5.1 1.3 5.1 1.3s7.8-11.5 10.8-10.4c3 1.1 6 5.1 6 5.1l-1.6 5.6s6.8 6.3 7.5 12.9c.8 6.5-1.4 9.7-1.4 9.7s-5.8 1.5-11.3 12.5c-5.4 11-16.9 24.4-28.9 33.4S93.2 239 93.2 239s-10.5 8.6-24-3.2-17.1-17-20.7-23-15-31.3-15-31.3l2.9-11.3z" fill="url(#SVGID_5_)"/><linearGradient id="SVGID_6_" gradientUnits="userSpaceOnUse" x1="-11803.515" y1="821.484" x2="-11803.354" y2="821.484" gradientTransform="translate(4322982 -300774.094) scale(366.2323)"><stop offset="0" stop-color="#f28750"/><stop offset="1" stop-color="#e09469"/></linearGradient><path d="M212.1 78.8c-.1 11.3-3.3 35.2-10.6 55.5-.3.9-.6 1.8-.9 2.6-3.6 9.6-6.4 15.1-8.2 18.1-.9 1.4-1.5 2.3-1.9 2.8-.3.4-.5.6-.5.6s-7.9-16-18.1-26.3c-10.2-10.2-18.1-13.6-18.1-13.6l10.8-10.6c8.6-8.4 15.6-29.7 15.6-29.7s5.7-23.8 5.9-26.6-.5-5.5-.5-5.5-7.4-1.8-9.9-3.3c-2.4-1.5-.7-5.2-.7-5.2s-4.9-1.4-7.7-6.5-1.3-14.4-.5-14.9.9-1.4 2.5-1.9c1.7-.5 1-3.3 3.7-5.5 2.6-2.2 5.4-2.4 5.8-2.5.3-.1 1.3-2.4 3.8-3.9.4-.2.7-.4 1.1-.6 2.1-.9 4-.9 5.2-.4 1.3.6 10.6 12 14.8 18.5.4.6.8 1.2 1.1 1.8 3.5 6 6.4 14.2 7.5 25.3.9 11.6-.1 20.5-.2 31.8z" fill="url(#SVGID_6_)"/><linearGradient id="SVGID_7_" gradientUnits="userSpaceOnUse" x1="-11800.635" y1="811.54" x2="-11800.474" y2="811.54" gradientTransform="translate(1424173.25 -97633.414) scale(120.6783)"><stop offset="0" stop-color="#f28750"/><stop offset="1" stop-color="#e09469"/></linearGradient><path d="M112.1 291.5l-10.1-2.1s-4.3 6.3-6.8 8.8l-2.5 2.5s.6 11.8 2.3 13.1c1.7 1.3 3.7-.9 3.7-.9s12.5-16.7 13.4-21.4z" fill="url(#SVGID_7_)"/><linearGradient id="SVGID_8_" gradientUnits="userSpaceOnUse" x1="-11802.164" y1="809.292" x2="-11802.003" y2="809.292" gradientTransform="translate(1366892 -93378.68) scale(115.8061)"><stop offset="0" stop-color="#f28750"/><stop offset="1" stop-color="#e09469"/></linearGradient><path d="M141.6 328.9s-3-3.8-4.9-2.7c-2 1-3.8 2.8-3.5 5.7.3 2.9.1 12.7-1 18.8-1.1 6.1-3.8 6.1-2.4 7.3 1.4 1.3 5.9.7 10.9-6 5.1-6.8 7.3-14.9 7.3-14.9l-6.4-8.2z" fill="url(#SVGID_8_)"/><linearGradient id="SVGID_9_" gradientUnits="userSpaceOnUse" x1="-11803.029" y1="820.806" x2="-11802.869" y2="820.806" gradientTransform="translate(11693608 -812963.688) scale(990.7254)"><stop offset="0" stop-color="#d55c41"/><stop offset="1" stop-color="#b20838"/></linearGradient><path d="M70.1 264.2s-5.5 6.5-9.4 16c-3.8 9.5-4.9 11.7-4.9 11.7s-8.1 2.8-8.5 3.9c-.4 1.1 11.4 10.1 25.3 10 13.9-.1 21.4-7.1 24.1-9 2.7-1.9 5.2-7.4 5.2-7.4s20.1 3.5 24.8 2.6c4.7-1 4.3 3.7 4.3 3.7s8.6 12.8 8.2 16.1l-.4 3.3-.1 3.2s-2.6 1-2.1 4c.5 3.1 8.7 10.7 11 13.6 2.3 2.9 5.2 4.1 5.2 4.1s2.4-1.8 3.3-5.7c.9-3.8-1.6-2.7 1.4-4.2 3-1.6 9-12.2 9-12.3 0-.1 9.6-14.7 12.9-17.8 3.3-3.1 9.6-11.6 13.5-17.6 3.9-6 8.4-16 11.1-26 2.7-10 1.4-15 1.4-15l-3.2.9s-9.3 4.2-10.3 4.5c-1 .3-4.3.5-4.3.5s1.4-13.1.9-16.6-1.5-5.4-1.5-5.4 16-4.3 17.7-6.7c1.7-2.4 2.2-6.9 2.2-10.1 0-3.2-1.6-7.6-1.6-7.6s.1-7.7-2.3-16.2-11.6-27.2-11.9-27.6c-.3-.4-9-12-11.3-16.5-2.3-4.5-14.2-13.5-20.1-17.8s-7.3-3.9-7.3-3.9l2.9 7.8s8.4 5.3 16 17.3c7.5 12.1 9.8 17.7 12.6 30.7 2.7 13 2.7 18.9 2.7 18.9s-6.9 5.8-26.7 12c-19.8 6.2-28 8.8-28 8.8s-12.7 12-20.3 16.7c-7.6 4.7-16.2 7.4-16.2 7.4s-5.7 4.9-14.3 2.7-10-4.7-10-4.7l-1.3 1.8-1.1 3.1s4.1.4 5.3 2.9c1.2 2.4 1.2 2.7 1.2 2.7l-7.2 6.5 4.6 6.4-2.5 4.3z" fill="url(#SVGID_9_)"/><linearGradient id="SVGID_10_" gradientUnits="userSpaceOnUse" x1="-11801.98" y1="820.248" x2="-11801.82" y2="820.248" gradientTransform="translate(4682100.5 -325232.375) scale(396.7185)"><stop offset="0" stop-color="#d55c41"/><stop offset="1" stop-color="#b20838"/></linearGradient><path d="M86.5 199.8s7.1-5.2 10.6-6.9c3.5-1.7 3.1-2.2 3.1-2.2s-17-20.2-33.4-29.2-24.4-10.8-26.4-11c-2-.2-2.8 0-2.8 0s-2.1 5.7-.8 8.2c1.2 2.5 1.8 4 1.8 4l2.3-2.3s13.7 7.2 25 17.4c11.2 10.2 20.6 22 20.6 22z" fill="url(#SVGID_10_)"/><linearGradient id="SVGID_11_" gradientUnits="userSpaceOnUse" x1="-11801.514" y1="818.704" x2="-11801.353" y2="818.704" gradientTransform="translate(4259618.5 -295228.313) scale(360.937)"><stop offset="0" stop-color="#d55c41"/><stop offset="1" stop-color="#b20838"/></linearGradient><path d="M65.2 247.1s-14.8-1.6-27.7-.3c-12.9 1.3-18.9 5-18.9 5s-3.2 8.2-3.2 20.9 3 23.9 3 23.9l2.5.9s15 1.1 18.8.6c3.7-.5 5.1-1.3 5.6-1.5.5-.2 10.7-4.4 10.7-4.4s7-16.3 11.6-23.1 5.9-9 5.9-9-5.7-6-8.3-13z" fill="url(#SVGID_11_)"/><linearGradient id="SVGID_12_" gradientUnits="userSpaceOnUse" x1="-11798.385" y1="814.794" x2="-11798.224" y2="814.794" gradientTransform="translate(1380494.25 -95111.852) scale(117.0033)"><stop offset="0" stop-color="#ad5036"/><stop offset="1" stop-color="#c66a46"/></linearGradient><path d="M50 211.3l-4.7-.4-1 6.3s2.7 11 9.5 13.9c6.7 2.8 9.4 1.3 9.4 1.3S52.8 217.7 50 211.3z" fill="url(#SVGID_12_)"/><path d="M64.1 232.6l6.5 5.6s-1.6 3.5-2.6 5.4c-1 1.9-4.7 4.4-4.7 4.4l-6.3-.7-3-.5-17.6.4 3.1-13.4 4.9-17.1s0 5.5 5.1 11.1c5.3 5.4 14.6 4.8 14.6 4.8z" fill="#990d38"/><linearGradient id="SVGID_13_" gradientUnits="userSpaceOnUse" x1="-11794.346" y1="823.583" x2="-11794.185" y2="823.583" gradientTransform="translate(534925.375 -37296.469) scale(45.3475)"><stop offset="0" stop-color="#933425"/><stop offset="1" stop-color="#c66a46"/></linearGradient><path d="M86.4 47.8s2.4.7 2.2 1.5c-.2.8-4.7 4.3-5.7 4.7s-1.5 0-1.5 0-.5-2.5.6-4c1-1.5 2.5-2.4 3.1-2.3.6 0 1.3.1 1.3.1z" fill="url(#SVGID_13_)"/><linearGradient id="SVGID_14_" gradientUnits="userSpaceOnUse" x1="-11794.603" y1="822.082" x2="-11794.441" y2="822.082" gradientTransform="translate(758982.625 -52834.945) scale(64.3457)"><stop offset="0" stop-color="#933425"/><stop offset="1" stop-color="#c66a46"/></linearGradient><path d="M53.2 60.1s-2.1.1-2.3 1.6c-.3 1.5-.4 4.3.9 4.2 1.4-.1 9.3-4.6 9.3-5.2s-1.8-1.6-1.8-1.6l-6.1 1z" fill="url(#SVGID_14_)"/><linearGradient id="SVGID_15_" gradientUnits="userSpaceOnUse" x1="-11801.281" y1="822.179" x2="-11801.12" y2="822.179" gradientTransform="translate(3355822.5 -233753.86) scale(284.358)"><stop offset="0" stop-color="#d55c41"/><stop offset="1" stop-color="#b20838"/></linearGradient><path d="M37.2 35.7L34 40.4l-.3 1.5 3.4 4.2s7.1-1.4 11.6 3.6 3.4 3 5.3 2 9.2-6.3 9.2-6.3l16.2-13.2-2.8-4.8s-18.9-3.5-26.9-.5-12.5 8.8-12.5 8.8z" fill="url(#SVGID_15_)"/><linearGradient id="SVGID_16_" gradientUnits="userSpaceOnUse" x1="-11801.958" y1="822.076" x2="-11801.798" y2="822.076" gradientTransform="translate(3722416 -259241.5) scale(315.4015)"><stop offset="0" stop-color="#7e122b"/><stop offset="1" stop-color="#b9193a"/></linearGradient><path d="M82 49.3s-8.5-2.8-15.6-1.9c-7.1.9-6.3 1.3-3.9-1.2 2.3-2.5 20.4-18.3 23.8-17.6 3.4.7 17.2 5.1 21 7.4 3.8 2.4 4.3 3.4 4.3 3.4s-2.2 4.7-5.2 8.6c-3 3.8-7.6 8.7-7.6 8.7l-4.2-1.8-7.1-4.1 1.2-1.9s-2.4-1.7-3.7-1.1c-1.5.4-3 1.5-3 1.5z" fill="url(#SVGID_16_)"/><linearGradient id="SVGID_17_" gradientUnits="userSpaceOnUse" x1="-11804.484" y1="815.91" x2="-11804.323" y2="815.91" gradientTransform="translate(1761324.625 -121495.195) scale(149.1923)"><stop offset="0" stop-color="#e78646"/><stop offset="1" stop-color="#eabe0c"/></linearGradient><path d="M199.6 244.4l-13 3.7s2.1-9.1.8-14.7-1.1-7.4-.8-7.7c.3-.3 13.5-5.7 15.7-7 2.1-1.3 3.9-2.1 4.1-2.3.2-.1 4.2 4.7 4 11.4s-3 10.8-3 11.1-1.9 1.9-1.9 1.9l-5.9 3.6z" fill="url(#SVGID_17_)"/><linearGradient id="SVGID_18_" gradientUnits="userSpaceOnUse" x1="-11802.998" y1="819.047" x2="-11802.837" y2="819.047" gradientTransform="translate(4197723.5 -291039.25) scale(355.6389)"><stop offset="0" stop-color="#e78646"/><stop offset="1" stop-color="#eabe0c"/></linearGradient><path d="M162.9 234.4s-14.1 3.8-29.8 6.4c-15.7 2.6-14.4 1.1-14.4 1.1s.2 4.2.8 9.3c.5 5.1 2.4 9.7 2.4 9.7s12.4-.1 24.6-2c12.2-1.9 29.4-7.2 29.4-7.2s.2-17.1-1-19.1c-1.2-2.1-1.9-2-1.9-2l-10.1 3.8z" fill="url(#SVGID_18_)"/><linearGradient id="SVGID_19_" gradientUnits="userSpaceOnUse" x1="-11801.683" y1="817.779" x2="-11801.522" y2="817.779" gradientTransform="translate(2955876.5 -204563.875) scale(250.4565)"><stop offset="0" stop-color="#e78646"/><stop offset="1" stop-color="#eabe0c"/></linearGradient><path d="M70.1 264.2s17.8-.1 26.6-.9 11.9-1.1 11.9-1.1-2.3-10.7-2.3-13.9v-4.4l-22.2 1.6-9.1.2s-.4 2.8-3.8 5c-3.4 2.1-2.7 2.9-2.7 2.9l4 6.3-2.4 4.3z" fill="url(#SVGID_19_)"/><linearGradient id="SVGID_20_" gradientUnits="userSpaceOnUse" x1="-11799.498" y1="810.116" x2="-11799.338" y2="810.116" gradientTransform="translate(491664.25 -33587.3) scale(41.6573)"><stop offset="0" stop-color="#ad5036"/><stop offset="1" stop-color="#c66a46"/></linearGradient><path d="M129 158.5c-.2-.4 4.7 2.1 4.8 4.2.1 2.2 1.2-1.7 1.2-1.7l.7-3-4.5-1.7-2.2 2.2z" fill="url(#SVGID_20_)"/><linearGradient id="SVGID_21_" gradientUnits="userSpaceOnUse" x1="-11803.247" y1="819.678" x2="-11803.086" y2="819.678" gradientTransform="translate(3224615.5 -223752.36) scale(273.1853)"><stop offset="0" stop-color="#ad5036"/><stop offset="1" stop-color="#c66a46"/></linearGradient><path d="M159.8 130.7s13.8 17.7 17.9 35.1c2.5 10.5 3.2 25.2 3.2 25.2l-39.1 21.4 44-17.9s-.5-13.2-3.1-24.6c-2.7-11.3-9.5-28.8-22.9-39.2z" fill="url(#SVGID_21_)"/><linearGradient id="SVGID_22_" gradientUnits="userSpaceOnUse" x1="-11802.602" y1="811.527" x2="-11802.44" y2="811.527" gradientTransform="translate(431264.875 -29503.676) scale(36.5267)"><stop offset="0" stop-color="#ad5036"/><stop offset="1" stop-color="#c66a46"/></linearGradient><path d="M154.8 125.9s5.3 10.1 3.2 25.8c0 0 3.7-12.2 2.3-20.9l-5.5-4.9z" fill="url(#SVGID_22_)"/><path d="M142.7 113.7s13.1 10.8 15.6 25.9c0 0-.6-6.8-3.5-15.3s-7.1-11.1-7.1-11.1l-5.3-2.6.3 3.1z" fill="#fff"/><linearGradient id="SVGID_23_" gradientUnits="userSpaceOnUse" x1="-11802.096" y1="818.995" x2="-11801.935" y2="818.995" gradientTransform="translate(1634125 -113251.727) scale(138.4503)"><stop offset="0" stop-color="#ad5036"/><stop offset="1" stop-color="#c66a46"/></linearGradient><path d="M143.3 121.5s-1.3 25.6-22.1 33.9c0-.1 24.9-3.8 22.1-33.9z" fill="url(#SVGID_23_)"/><linearGradient id="SVGID_24_" gradientUnits="userSpaceOnUse" x1="-11802.348" y1="820.342" x2="-11802.186" y2="820.342" gradientTransform="translate(2789817.75 -193776.406) scale(236.3694)"><stop offset="0" stop-color="#ad5036"/><stop offset="1" stop-color="#c66a46"/></linearGradient><path d="M103.8 134.4s7.7 3.2 14.3 3.4c6.6.1 13.9-2.7 17.7-9.1s5.8-5.6 6.1-7.9c.3-2.4-2.9-5-8-2.7-5 2.3-3.1 5.3-3.1 5.3s-7 15.7-27 11z" fill="url(#SVGID_24_)"/><linearGradient id="SVGID_25_" gradientUnits="userSpaceOnUse" x1="-11803.781" y1="822.874" x2="-11803.621" y2="822.874" gradientTransform="translate(2174212.5 -151533.719) scale(184.1821)"><stop offset="0" stop-color="#ad5036"/><stop offset="1" stop-color="#c66a46"/></linearGradient><path d="M167.3 27.7s3.9 2.2 8.4-.7l-1.9-8s1.5 7.3 5 6.6c3.5-.7 4-1.7 3.4-4-.6-2.3-.9-9.7-.9-9.7s1.8 8.1 2.7 9.3c.9 1.2 5.4.4 6.5-1 1.1-1.4-1.2-5.5-1.2-5.5l3 .6s-1.1-3-3.2-5c0 0 4.2.9 5.1 5.7 0 0 3.5 5.1 2.2 8s.6 2.2.6 2.2-2.4 6.2 0 10.5c0 0-2.6-.4-5.9 1.8-3.3 2.2 2.8-2.6 1.7-5.7-1.1-3.1-2.9-4.7-5.9-2.9-2.9 1.8-12.1 7-12.1 7s-4.9.6-7.5-9.2z" fill="url(#SVGID_25_)"/><linearGradient id="SVGID_26_" gradientUnits="userSpaceOnUse" x1="-11804.315" y1="823.039" x2="-11804.154" y2="823.039" gradientTransform="translate(1261127.125 -87878.516) scale(106.8212)"><stop offset="0" stop-color="#ad5036"/><stop offset="1" stop-color="#c66a46"/></linearGradient><path d="M176 41.3s3.3 1.8 9.3-1.7c6-3.5 7.4-6.8 6.9-7.7-.5-.9 1.6 1.6.7 3.2-.9 1.6-3.6 5-3.6 5s-1.4 4.3 1.8 5.5c3.2 1.2-2.7 1.5-2.7 1.5s-11.1-.8-12.4-5.8z" fill="url(#SVGID_26_)"/><linearGradient id="SVGID_27_" gradientUnits="userSpaceOnUse" x1="-11803.51" y1="821.356" x2="-11803.35" y2="821.356" gradientTransform="translate(4353553.5 -302845.5) scale(368.8225)"><stop offset="0" stop-color="#ad5036"/><stop offset="1" stop-color="#c66a46"/></linearGradient><path d="M212.1 78.8c-.1 11.3-3.3 35.2-10.6 55.5-5.8 16.1-9.7 21.9-11 23.6l-1.7-3.6-13.1-19.5c-2.3.3-8-6-13.2-9.7-5.2-3.8-9.2-6.1-9.2-6.1l9-8.3s-1.1 5.8 3.6 11.5c4.6 5.8 14.4 10.1 14.4 10.1 5.1-3.6 13.4-11.9 20-30.1 10.5-29 3.4-81.1 3.2-81.9.4.6.8 1.2 1.1 1.8 3.5 6 6.4 14.2 7.5 25.3 1.1 11.2.1 20.1 0 31.4z" fill="url(#SVGID_27_)"/><linearGradient id="SVGID_28_" gradientUnits="userSpaceOnUse" x1="-11800.55" y1="811.312" x2="-11800.39" y2="811.312" gradientTransform="translate(1370546.75 -93923.39) scale(116.1347)"><stop offset="0" stop-color="#ad5036"/><stop offset="1" stop-color="#c66a46"/></linearGradient><path d="M93.4 300.7l.3 4.4s6.2-6.8 9.1-6.9c2.9-.1-1.5 9-1.5 9l8.2-10.3 2.5-5.5-10-2.4c.1 0-.6 3.7-8.6 11.7z" fill="url(#SVGID_28_)"/><linearGradient id="SVGID_29_" gradientUnits="userSpaceOnUse" x1="-11801.994" y1="806.507" x2="-11801.833" y2="806.507" gradientTransform="translate(1100990.875 -74890.063) scale(93.2773)"><stop offset="0" stop-color="#ad5036"/><stop offset="1" stop-color="#c66a46"/></linearGradient><path d="M132.7 346.9c-.1.4 3.6-11.1 6-11.1s7.3 2.5 4 10.1c-3.2 7.6-1.5 5.6-1.5 5.6s4.8-8.2 5.8-11.3c1-3.1.6-4.1.6-4.1l-10.2-10.3s-4.6 2.5-4.7 3.7c-.1 1.2 1.6 12.5 0 17.4z" fill="url(#SVGID_29_)"/><linearGradient id="SVGID_30_" gradientUnits="userSpaceOnUse" x1="-11797.662" y1="820.568" x2="-11797.501" y2="820.568" gradientTransform="translate(1312030.25 -91162.781) scale(111.2081)"><stop offset="0" stop-color="#ec8146"/><stop offset="1" stop-color="#e09469"/></linearGradient><path d="M40.4 75.7s-6 11.8-5.6 16.4c.4 4.6 8.9 11.8 17.9 14.3-.1 0-10.7-7.8-12.3-30.7z" fill="url(#SVGID_30_)"/><linearGradient id="SVGID_31_" gradientUnits="userSpaceOnUse" x1="-11800.971" y1="820.474" x2="-11800.81" y2="820.474" gradientTransform="translate(2980396.5 -207087.531) scale(252.5524)"><stop offset="0" stop-color="#ec8146"/><stop offset="1" stop-color="#e09469"/></linearGradient><path d="M33.1 100.8s-.2 17.4 6.9 27.2 33.8 21.3 33.8 21.3-26.5-21.9-40.7-48.5z" fill="url(#SVGID_31_)"/><linearGradient id="SVGID_32_" gradientUnits="userSpaceOnUse" x1="-11801.061" y1="818.73" x2="-11800.9" y2="818.73" gradientTransform="translate(2968945.5 -205766.703) scale(251.5797)"><stop offset="0" stop-color="#ec8146"/><stop offset="1" stop-color="#e09469"/></linearGradient><path d="M38 180.7s21.4 51.9 40.5 56.7c0 0-2.8-5.5-3.2-13.3 0 .1-13.5-9.6-37.3-43.4z" fill="url(#SVGID_32_)"/><linearGradient id="SVGID_33_" gradientUnits="userSpaceOnUse" x1="26.947" y1="240.974" x2="131.213" y2="240.974" gradientTransform="matrix(1 0 0 -1 0 359.5)"><stop offset="0" stop-color="#ad5036"/><stop offset="1" stop-color="#c66a46"/></linearGradient><path d="M100.8 181.7c-8.8-7.2-18.5-19.8-18.5-19.8 21.9 6.3 30.1 5.1 30.1 5.1-19.1-3.2-33.9-17.1-33.9-17.1 22.7 9.1 35 7.4 35 7.4-47.9-8.2-69.3-49.3-69.3-49.3 9.7 3.5 17.5 2.3 17.5 2.3-28.9-19.8-9.8-56.8-9.8-56.8s-.6.5-1.5 1.5c.8-1.5 1-2.4 1-2.4s-4.5-7.3-14.2-6.3c-9.8.8-10.3 4.7-10.3 4.7l.5 6.5s2.7-2.7 7.3-3.6c0 0-2.3 7.5 2.4 13.2 1 1.2 1.8 1.7 2.4 1.9-4.5 7.9-9.9 21.4-11.9 31.9-2.3 11.8 12.2 46 12.5 47 .4 1-.1 2.1 4.6 3.3 4.7 1.2 22.9 10.9 35.3 20.1s20.9 19.7 20.9 19.7l30.1-15.9c-14.8 5.6-24.5 11.3-30.2 6.6z" fill="url(#SVGID_33_)"/><path d="M74.7 166.3s-10.7-5.1-12-2.8c-1.4 2.2 28.7 30.9 32.5 29.6 3.8-1.3-2 3-2 3l-6.7 3.7s-11.8-16.1-25.2-25.7c-13.4-9.6-20.4-13.4-20.4-13.4l-1.7 3.2s-3.1-4.1-2.8-7c.3-3 2.9-6.7 2.9-6.7s15.2 4.6 22.6 8.3c7.4 3.6 12.8 7.8 12.8 7.8zM190.7 158.5s-10-23.7-26.9-23.8c0 0-5.6-5.6-7.4-7.3-1.9-1.7-2-2.3-2-2.3l-2.1-6 .5-.3s4.8 1.3 10.3 5.2c5.5 3.8 20.2 18.6 27.6 34.5zM200.3 197.4c0 2.4-1.9 4.3-4.3 4.3s-4.3-1.9-4.3-4.3 1.9-4.3 4.3-4.3c2.3 0 4.3 1.9 4.3 4.3z" fill="#990d38"/><path d="M64.3 73.6s-2.8 4.3-.8 9.1c0 0-3 1.5-2.7 4.5.3 2.9 1.3 4.2 1.2 4.3-.1 0-1.4 1.2-1.4 1.2s-2.3-3-3.2-6.5c-.8-3.5 2-10.1 6.9-12.6zM90.2 58.2s-.3 3.4 2.3 5.7l-2.9 4.2c-.1 0-4.5-4.4.6-9.9zM123.8 105.4s-12.3 10.1-22.6 9c0 0-3.2-1.1-5.9-6.1-2.8-5-2.9-9.3-2.9-9.3l1.2-.6s6 7.7 10.9 8.4c4.9.7 17.6-4.3 17.6-4.3l1.9-.9-.2 3.8zM128.7 108.6l-2.6-1.2s-6 6.8-10.1 8.5c-4.1 1.7-11.6 2.1-11.6 2.1s4.2 3.4 9.6 2.7c5.4-.7 10.9-3.4 11.1-5.1.3-1.8 3.6-7 3.6-7z" fill="#c6b5b3"/><path d="M115.1 66.7s-4.1 6.7-7 10.1c-2.9 3.4-1.5 6.9 1.6 9.6 3.2 2.7 9.6 7.8 11.2 8.8 1.6 1 8.5-2.4 12.1-5.8 3.6-3.4.7 1.2-2.7 4.2-3.3 3-8.5 11-17.4 12.5s-11.9.2-13.5-.8c-1.6-1-6.4-7.1-6.4-7.1l-1.4.9s.5 8.9 9.4 15.8 14.8 6 14.8 6l5.4-2.8s-1.7 3-4.7 5.3-.4 6.6 4.5 5.4c4.9-1.2 2.5-5.6 7.7-8.5s1.7 1 1.7 1-2.8 8.9-10.6 12c-7.8 3.1-21.2.9-29.9-6.7-8.7-7.6-16.8-23.1-16.9-24.2-.1-1.2 2.6-.9 4.8-5 2.2-4 10.7-23.3 10.7-23.3s3.1-1.9 9.2-2.2c6-.1 12.2-1.3 17.4-5.2z" fill="#933425"/><path d="M104.4 82.7s-5.7 6.8-10.9 7.1c0 0 5.5.1 6.7 2.6 1.2 2.5-2 6-2 6s4 5 11.7 4.7c0 0 6.5-1.4 9.7-4.1-.1 0-11.9-1.6-15.2-16.3zM84.9 99.3s-.1 20.6 20.8 28.7c0 0-17.7-1.6-28.3-22.6 0 0 4.6-1.5 7.5-6.1z" fill="#c16543"/><path d="M126.7 58.3s-1 3 2.1 4.6c3.1 1.6 8.8-1 8.8-1s-2.8 4.2-7.6 4.1c-4.7-.1-6.3-5-3.3-7.7z" fill="#a3332b"/><path d="M123.3 60.3s-1.4 2.3-.8 4.7 3.1 3.8 6.4 3.9c3.3 0 6.8-3.7 6.8-3.7s-7.6 1.4-10 .3c-2.4-1.1-2.4-5.2-2.4-5.2zM137.7 63.9s4.6 9.7 4.8 12.9c.2 3.2-2.6 2.8-2.6 2.8s-.1-7-2.6-11.8c-2.6-4.8.4-3.9.4-3.9z" fill="#933425"/><path d="M55.4 291.8s1.5-11 7.4-22.5c0 0-4.5 5.5-9.4 18.1 0 0 .3-7 2.1-12.3 0 0-3.7 6.8-6.3 15.3 0 0-1.6-17.9 7.9-34.4 0 0-9 13.7-12.2 25.9-3.2 12.2-2.3 15.5-2.3 15.5l12.8-5.6z" fill="#990d38"/><path d="M53 247.4s-9.1 26.5-10.4 44.5l-.8 5.3s-8.5 1.7-13.4 1.5c-4.9-.2-9.7-1.3-9.7-1.3s-3-28.5 3.4-42.8c0 0-3.4 18.6 1.2 31.8 0 0 .5-10.2 1.5-14.2 0 0-.1 13.8 12.1 20.9-.1.1 4.5-34.5 16.1-45.7zM62.3 162.2s7.4 3.6 12.9 9.2c0 0-8.9-11-12.9-9.2zM95.8 192.9l-11-11 11.9 10.2z" fill="#990d38"/><linearGradient id="SVGID_34_" gradientUnits="userSpaceOnUse" x1="-11801.086" y1="816.518" x2="-11800.911" y2="816.518" gradientTransform="translate(2234219.5 -154326.953) scale(189.3176)"><stop offset="0" stop-color="#e25e4a"/><stop offset="1" stop-color="#e27c1a"/></linearGradient><path d="M99.5 244.8s-5.1 8.5-1.1 17.9c0 0-26.8 1.5-26.8 1s-.2-2.1-.2-2.1l.2-2.9L69 253l-2.8-6.7 33.3-1.5z" fill="url(#SVGID_34_)"/><linearGradient id="SVGID_35_" gradientUnits="userSpaceOnUse" x1="-11795.348" y1="796.135" x2="-11795.186" y2="796.135" gradientTransform="translate(447209.188 -29924.611) scale(37.9054)"><stop offset="0" stop-color="#e25e4a"/><stop offset="1" stop-color="#e27c1a"/></linearGradient><path d="M102.7 244.1s-2.5 13 1 18.2l4.2-.3-2.1-17.8h-3.1z" fill="url(#SVGID_35_)"/><linearGradient id="SVGID_36_" gradientUnits="userSpaceOnUse" x1="-11804.289" y1="803.208" x2="-11804.129" y2="803.208" gradientTransform="translate(581206.063 -39294.05) scale(49.2226)"><stop offset="0" stop-color="#e25e4a"/><stop offset="1" stop-color="#e27c1a"/></linearGradient><path d="M168.2 231.9s1.9 9.6 1.8 21l6.1-.7s-.2-8.3-1.2-14.5c-1-6.2-1.5-6.7-1.5-6.7l-5.2.9z" fill="url(#SVGID_36_)"/><linearGradient id="SVGID_37_" gradientUnits="userSpaceOnUse" x1="-11796.506" y1="823.754" x2="-11796.345" y2="823.754" gradientTransform="translate(864343.5 -60314.703) scale(73.2659)"><stop offset="0" stop-color="#e78646"/><stop offset="1" stop-color="#eabe0c"/></linearGradient><path d="M73.7 37.5l-9.1 6.8-2.7-11.8s10.3-.1 10.2 0c-.1 0 1.6 5 1.6 5z" fill="url(#SVGID_37_)"/><linearGradient id="SVGID_38_" gradientUnits="userSpaceOnUse" x1="-11798.936" y1="820.759" x2="-11798.776" y2="820.759" gradientTransform="translate(1411017.25 -98061.195) scale(119.5839)"><stop offset="0" stop-color="#ad5036"/><stop offset="1" stop-color="#c66a46"/></linearGradient><path d="M58.8 75.7s-8.8 8.1-1.6 20.9c0 0-.7 1.5-1.5 4.4 0 0 .7-3.7 6.7-6.7 0 0-1.5 2.7-2.3 6.7 0 0 6.6-11.3 12.2-14.3 5.6-3.1-9.1 5.1-9.1 5.1l-2.9.5s-3.6-5-3.2-9.2c.5-4.3 1.7-7.4 1.7-7.4z" fill="url(#SVGID_38_)"/><g id="el_MKE7aqkrjxF" fill="#990d38"><path d="M197.3 193.2c.5.2.4.2 0 0z"/><path d="M191.3 205.2c2.7 1.9 7-1.4 7.9-2.8s1.2-4 1.2-4-2 2.7-3.7 3.2c-1.7.5-3.7-.3-5.1-2.7-1.3-2.4.9-3.3 2.3-5.2.9-1.2 2.6-.8 3.3-.6-.1 0-.2-.1-.4-.2-2.2-1 5.8-4 5.8-4l-1.4-2.6s-5.8.7-9.7 0c-3.9-.7-6.9-12.8-6.9-12.8s.6 14.6 2.6 20.1c2.2 5.7 1.4 9.7 4.1 11.6z"/><path d="M192.3 208.7c-4.5-1.6-6.2-14.2-6.2-14.2l-8 5.1s4.1-.9 5.3 1.4c1.2 2.3-3.3 6.1-8.7 8.7 0 0 8.8-2.9 11.1-1.9 2.4 1-1 6.4-1 6.4l3.4 2.5 1.3 2.9s-1.6-4.9 3.2-7.1c4.8-2.3 9-4.4 9-4.4s-4.9 2.2-9.4.6z"/></g><g id="el_yKcWCZd547W" fill="#990d38"><path d="M124.3 262c-.1 0-1.5 1.1-1.5 1.1s2.4 5.6 11 5.7c0 0-2.7-1.1-3.7-3.4 0 0 4.7-.7 11.4-1.2 0 0 1.7 3.3 7.5 4.1 0 0-4.4-1.6-2.7-6.8 0 0-.4 3.3 2.5 5.2 2.9 1.9 5.2-1.4 5.4-3 .2-1.6.7-3.5.3-4.9l-.4-1.4-20 3.2c.1.1-9.7 1.4-9.8 1.4zM94.2 298.7z"/><path d="M68.3 252.7c1.5 1 7-6.8 7-6.8l30.5-2s-.5.7.4 7.2c1 6.5 3.5 13.5 4.9 15.1s5.4 2.2 7.5 1.8c2-.5 3.7-3 3.7-3s-1.9-6.8-1.6-2.8c.2 4.1-3.5 2.2-4.6-2.7-1.1-4.9-1.4-19.3.9-19.8s1.6 2.7 1.6 2.7 10.8-1.7 22.1-3.3c11.3-1.6 26.9-6.9 26.9-6.9s-23 5.6-27 5.1c-4.1-.5 12.1-5.1 21.7-8.1 9.6-3.1 18.8-11.9 18.8-11.9-21.9 10.3-45.4 5.6-39.9 4.6s12.2-3.9 12.2-3.9-14.3 3.2-15.4 2.2c-1.2-1 3-7.4 3-7.4-4.5.7-8 .3-8 .3s-3.8 5.2-15.9 13.6c-12.1 8.4-21 11.1-21 11.1s-3.4 3.5-10.6 4.1c-7.2.6-15.5-4.4-15.5-4.4l-5.9 10c0-.1 2.8 4.2 4.2 5.2z"/><path d="M204.4 241.8l-10.6 4.3-1.2.5-5.1 1.3-2.7 4.3s0 .4-.2 1.2c-1.7-.1-5.3-.3-5.3-.3l-5.3-.2h-4.2l-15.6 4.6.5 1.6s2.3 2.1 0 7.4c0 0 2.2-2.4 3.5-6.5 0 0 7.5-2.7 10.1 1.9 0 0 1.1-2 1.6-4.4 0 0 2.6 5.7-1.6 9.3 0 0 3-1 5.3-7.7 2.1-6 8.5-3.4 8 0-.2.2-.4.5-.5.7-3.9 5.1-26.3 17.8-44.6 19.6-18.3 1.8-24.1-4.9-24.1-4.9 6.8 3.9 14.8 2.8 14.8 2.8-7.6-1.6-12.6-9.5-12.6-9.5-5.6-.9-5.2-5.7-5.2-5.7s-9.7-.4-11 1.6c-1.2 1.9-.1 8.4 1.6 11.7-3.4-4.2-2.1-11.3-2.1-11.3l-.5-.7-25.4-.2s-.8 0-3.9 3.2S56.5 292 56.5 292l-8.4 3.3s.8 3.7 5.6 6.8 10.5 4.4 21.3 3.5c10.7-1 18.5-5.6 18.5-5.6s-3.5 1.8-12.5 1.8-12.4-4.9-9.7-7.3c2.7-2.4 8.8-1.6 8.8-1.6-1.5-.7-6.3-1-6.3-1s9.4-1.7 15.3 2.4c5.1 3.4 5.2 4.2 5.1 4.3.3-.3 2.5-2.6 4.5-4.7 2.2-2.2 2.5-4.6 2.5-4.6s17.3 3.2 24.9 3.2c1 0 2.3-.1 3.7-.4l10.3 18.9-1.4 4.1.4 4.6s-2.9-.1-2.2 3.8c.7 3.9 15.4 16.6 15.4 16.6l1.3-1.4s-13.6-12.4-9.9-13.7c3.7-1.3 10.5 6.9 10.5 6.9h.7s5.2-3.6 3-2.7c-2.2.9-13.7-7.3-13.1-9.9s7.4.9 7.4.9-2.3-2.7-1.4-6.9c.9-4.2 11.9-17.3 11.9-17.3-4 .4-6 0-6 0 7.1-1.7 20.4-8.8 20.4-8.8s-18.3 7.8-17 1.8c1.3-6 15-15.4 15-15.4-10.6 7.1-21 11.2-29.2 13.6-1.2.2-3.4.6-6.7 1.4-18 4.3-32.8-7-36.9-10.6 4 1.9 12.5 3 27.7 2.9 20.2-.2 45.9-11.6 54.3-20.4 3.7-3.8 5.7-7 6.8-9.3l-.2 1.6s1.7-3.3 6.9-4.4c5.2-1.1 5.2 4 5.2 4l1.8-8-.4-2.6z"/></g><path d="M176.6 242.8s1.5 3.4 3 3.3c1.5-.1 0-12.8 0-12.8s1.9 10.9 4.2 11.5c2.3.6 2.9-3.2 2.9-3.2l-.3 10s1.2.9-1.5.7c-2.7-.2-7.3 1.4-7.3 1.4s-1.5-5-1-10.9z" fill="#990d38"/><linearGradient id="SVGID_39_" gradientUnits="userSpaceOnUse" x1="33.077" y1="162.122" x2="160.381" y2="162.122" gradientTransform="matrix(1 0 0 -1 0 359.5)"><stop offset="0" stop-color="#ad5036"/><stop offset="1" stop-color="#c66a46"/></linearGradient><path d="M151.2 158.5c3.5.1 1.9-5.3 1.9-5.3s-7.7 5.3-10.9 12.5c0 0 4.7-6.3 8.2-7.2.1.1.2.3.3.5 11.5 17.4-9.3 25.6-9.3 25.6-8.8 10.2-54.5 41.1-57.5 32.9S88 200 88 200l-2.9.8c-7.8 6.3-7.7 15.3-7.7 15.3s-2.8-4.4-.2-10.2c2.6-5.8 9.5-5.7 9.5-5.7V199c-13.9 2.4-11.4 13.6-13.7 12.2-2.3-1.4-14.3-15.8-12.9-19.8s12.9-6.8 12.9-6.8c-10.1-11.1-30-23.8-32.1-24-2.1-.2-7.8 20.9-7.8 20.9L45.6 207s14.6 26.7 27.8 32.2c13.2 5.5 20.1-.4 20.1-.4s6.5-2.3 16.6-7.8c10.1-5.4 10.9-8.1 20.4-15.8 2.9-2.3 5.4-5.2 7.7-8.3l-3.6 6.3 9.2-2.3s2.1-5.6 4.5-9.8c2.4-4.3 9.6-10.3 10.9-13.6 1.3-3.2-1.7-6.7-1.7-6.7s-4.4 3.1-7.2 5.7c2.2-2.6 5-4.5 7.5-6.3 3.2-2.3 1.9-2.1 2.4-5.2 1.1-6.7-6.4-14.7-9-16.5z" fill="url(#SVGID_39_)"/><path d="M49.8 26.9l8.1 22.4-6 4.2s-6.6-7-11.1-7.3c-4.5-.3-5.1.2-5.1.2l-3.1-4.5S44.7 30 44.7 29.8c0-.2 5.1-2.9 5.1-2.9z" fill="#990d38"/><linearGradient id="SVGID_40_" gradientUnits="userSpaceOnUse" x1="-11793.665" y1="821.852" x2="-11793.504" y2="821.852" gradientTransform="translate(469019.875 -32611.73) scale(39.7615)"><stop offset="0" stop-color="#ad5036"/><stop offset="1" stop-color="#c66a46"/></linearGradient><path d="M87.1 59.8s-3.2 7.6 1.9 13l3.5-2.4-.6-.8c-.1 0-5.1-2.7-4.8-9.8z" fill="url(#SVGID_40_)"/><linearGradient id="SVGID_41_" gradientUnits="userSpaceOnUse" x1="-11799.204" y1="821.176" x2="-11799.043" y2="821.176" gradientTransform="translate(1346305.875 -93614.484) scale(114.0959)"><stop offset="0" stop-color="#ad5036"/><stop offset="1" stop-color="#c66a46"/></linearGradient><path d="M65.1 72.3s13.5-2.7 18.4 10.2l-.3.5s-4.3.6-6.4 1.3c-2.1.6.4 0 .4-.9s-.9-6-3.7-7.8c-3-1.8-8.4-3.3-8.4-3.3z" fill="url(#SVGID_41_)"/><path fill="#fff" d="M70.4 32.6l1.5 5.7 1-2.1-1-3.4zM75.2 28.3l2 5.2 1-1.2-2.1-4.3zM107.2 35.9s2.4 2.9 1.9 4.4c-.5 1.5-8.3 11.3-13.2 14.7l2 1.2s3.6-2.7 6.8-6.4c3.2-3.8 6.4-8.3 6.6-9.7.1-1.5-4.1-4.2-4.1-4.2M84.2 47.6l-.3 1.1s2.6.2 3.5 1.6l1.1-1.5c-.1-.1-3.3-1.3-4.3-1.2zM85.3 52l.8.2s4.7 3.2 7.7 5.2 2.7-.8 2.7-.8L86.1 51l-.8 1zM101.4 62.6l1.1 1.8s4.2 3.7 5.2 5.2 2.1-.9 2.1-.9l-7.7-7.6-.7 1.5zM117.1 63.8s4.2-5.1 7.6-5l2.6-2-3.1-.8s-5.4 3.8-7.1 7.8zM130.6 55v1.9s4-.9 5.9.2c1.9 1.1 2.1 3.5.3 5.2-1.8 1.8-.6 1.2-.6 1.2l4.3-3.7s-.5-3.9-.7-4.1c-.2-.2-2.8-1.3-2.8-1.3l-6.4.6zM137.7 63.4s6.7 3.7 7.3 14.3l3.6.6s-3-8.7-3.4-10c-.3-1.3-6.5-6.9-6.5-6.9l-1 2zM212.1 78.8c-.1 11.3-3.3 35.2-10.6 55.5-.3.9-.6 1.8-.9 2.6-2.7 6.4-6.2 13.9-8.2 18.1-1 2.1-1.6 3.4-1.6 3.4l-.3-.6s14.5-33.5 17.7-60.4c4.5-38.9-.7-58.2-2-65.1-1.3-6.9-5.8-12.8-12.4-21-6.6-8.3-10.2-8.8-10.2-8.8v-.4c2.1-.9 4-.9 5.2-.4 1.3.6 10.6 12 14.8 18.5.4.6.8 1.2 1.1 1.8 3.5 6 6.4 14.2 7.5 25.3 1 11.3 0 20.2-.1 31.5zM163.8 125.9s19 19.5 27.9 40.5c8.9 21 10.8 32.3 8.1 40.3-2.7 8 6-5.2 5-11.4-.9-6.2-7.7-25.3-16-39.9-8.2-14.6-18.8-24.4-25-29.5zM130.4 95s10.4 8.1 12.3 21.5l-.3-5s-.6-6.6-4.3-11.7c-3.7-5.1-5.5-7.1-5.5-7.1l-2.2 2.3zM144.8 149.1s5 1.7 7.5 5.2 1.4-2 1.4-2l-6-4.8-2.9 1.6zM152.5 159.1l-1.6.3s2.8 3.4 4.8 8.1c2 4.7 2.1 11.7 2.1 11.7l2.4-1.8s0-4.7-1.7-9.4c-1.8-4.6-6-8.9-6-8.9zM203.7 205.2s.3 7.9-1 13.3c0 0 1.9-1 2.7-4.3.7-3.3 0-11.2 0-11.2l-1.7 2.2zM205.2 218.7s2.5 5 1.9 12.8c-.6 7.8-1.6 9.3-1.6 9.3l3.2-3s1.2-8.6 1-13.2c-.1-4.6-1.4-5.6-1.4-5.6l-1.9-2.7-1.2 2.4zM204.2 243.9l-.5-.5s-1.8 17.4-10.5 32.7c-8.7 15.3-13.8 22.4-20.7 26.9 0 0 7.7-2.7 13.3-9.7 5.6-6.9 12.7-19.9 15.8-29.9 3.2-10.1 2.6-19.5 2.6-19.5z"/><path d="M175.4 301.6s-8.4 11.4-14.6 23.2l5.4-6.2 13.7-18.4-4.5 1.4zM153.3 329.4l-.6.7s2.5 4.2.9 8.1 3.1-2.8 3.1-2.8l-3.4-6zM182.4 223.3l-.2 2.1s3.5 6.9 2.6 22.6c-.5 8.4 2.9-7.3 2.9-7.3l-2.2-13.9c0 .1-.1-2.7-3.1-3.5zM190.9 15.2s5.9 6.2 4.9 9.7c-1.1 3.5 1.1.4 1.1-2.3 0-2.7.1-5.7-6-7.4zM185.8 2.9l-.8.3s1.5 8 2.5 10.9c0 0-1.3-9.4 0-9.2 1.3.2-1.7-2-1.7-2zM105.2 66.1s-1.2-1.4-5.2.2c0 0 1.9-2.6 2.9-2.4.9.3 2.3 2.2 2.3 2.2zM130.1 107.1l-.4 1.6s3.9-1.6 6.5.9c2.1 2 2.2 4.7 1.2 6.6-1 1.9 3.4-2.2 2.9-4.5-.6-2.3-1-4.4-4.2-5.1-3.1-.7-6 .5-6 .5z" fill="#fff"/><linearGradient id="SVGID_42_" gradientUnits="userSpaceOnUse" x1="-11804.939" y1="820.842" x2="-11804.778" y2="820.842" gradientTransform="translate(1307596.25 -90823.758) scale(110.7508)"><stop offset="0" stop-color="#ad5036"/><stop offset="1" stop-color="#c66a46"/></linearGradient><path d="M205.2 91.9l-2.3 1s1.4-12.5-13.1-15.3c0 0 5.4-.5 10.1 0s7.7 1.5 7.7 1.5l-2.4 12.8z" fill="url(#SVGID_42_)"/><linearGradient id="SVGID_43_" gradientUnits="userSpaceOnUse" x1="-11801.114" y1="814.479" x2="-11800.953" y2="814.479" gradientTransform="translate(895682.375 -61636.473) scale(75.8875)"><stop offset="0" stop-color="#ad5036"/><stop offset="1" stop-color="#c66a46"/></linearGradient><path d="M126.1 163.9s4.8 8.6 11.5 13.1c0 0-5.6-.4-10.6 3s3.4-5.3 3.4-5.3-7-7.2-4.3-10.8z" fill="url(#SVGID_43_)"/><path d="M118.6 80.1c.7.2 1.1.9.9 1.6-.2.7-.9 1.1-1.6.9-.7-.2-1.1-.9-.9-1.6.2-.7.9-1.1 1.6-.9zM122.5 75.9c.6.2.9.8.8 1.4-.2.6-.8.9-1.4.8-.6-.2-.9-.8-.8-1.4.2-.6.8-1 1.4-.8zM123 82c.4.1.6.5.5.9-.1.4-.5.6-.9.5-.4-.1-.6-.5-.5-.9.1-.4.5-.7.9-.5zM127.6 72.3c.4.1.6.5.5.9-.1.4-.5.6-.9.5-.4-.1-.6-.5-.5-.9 0-.4.5-.6.9-.5zM128.3 79.6c.4.1.6.5.5.9-.1.4-.5.6-.9.5-.4-.1-.6-.5-.5-.9.1-.4.5-.6.9-.5zM59.5 47.2s-.2-.8-.6-2.1l.7-.2c.4 1.3.6 2.1.6 2.1l-.7.2zM58.2 43c-.2-.6-.4-1.4-.6-2.1l.7-.2c.2.8.5 1.5.6 2.1l-.7.2zm-1.3-4.2c-.2-.7-.4-1.4-.7-2.1l.7-.2c.2.7.5 1.4.7 2.1l-.7.2zm-1.3-4.2c-.2-.7-.5-1.4-.7-2.1l.7-.2c.2.7.5 1.4.7 2.1l-.7.2zm-1.4-4.1c-.2-.7-.5-1.4-.7-2.1l.7-.3c.3.7.5 1.4.8 2.1l-.8.3zM77.6 34.4c-.2-.7-.5-1.4-.8-2.1l-.7.3c.3.7.5 1.4.8 2.1l.7-.3zM76.1 30.3c-.3-.7-.5-1.4-.8-2l-.7.3c.3.7.5 1.4.8 2l.7-.3zM51.4 66.5c-.6 0-1.1-.3-1.3-.9-.5-1.4.3-4.3 1.3-5.3 1.3-1.2 7.2-1.8 8-1.8 1.1.1 2.1 1.1 2 2.1 0 .6-.3 1.1-.9 1.4-3.4 2.1-7.7 4.5-9.1 4.5zm7.7-6.5c-1.4 0-6.1.7-6.7 1.4-.7.7-1.3 3.2-.9 3.7.7-.1 3.5-1.4 8.4-4.2.1-.1.2-.1.2-.2 0-.3-.3-.6-.7-.6-.1-.1-.2-.1-.3-.1z" fill="#472116"/><path fill="#472116" d="M52.7 65.3l.3-3 .4 3zM88 49.3s.1 0 .3.2c.2.1.5.3.9.5.7.4 1.8 1 3 1.8s2.6 1.7 4 2.7c.7.5 1.5 1.1 2.2 1.6.8.5 1.5 1.2 2.2 1.8.7.6 1.4 1.2 2.2 1.8.7.6 1.4 1.2 2 1.8.6.6 1.3 1.2 1.9 1.8.6.5 1.1 1.1 1.6 1.6l1.4 1.4c.4.4.7.8 1 1.1l.9.9-1.8 1.7-.9-.9-1-1c-.4-.4-.9-.8-1.3-1.3-.5-.5-1-1-1.6-1.5-.6-.5-1.2-1.1-1.8-1.7-.7-.6-1.3-1.1-2-1.7-.7-.6-1.4-1.2-2.1-1.7-.7-.6-1.4-1.1-2.2-1.7-.7-.5-1.4-1.1-2.2-1.5-1.4-1-2.8-1.9-3.9-2.6-1.2-.7-2.2-1.3-2.9-1.6-.3-.2-.6-.3-.8-.4-.2-.1-.3-.1-.3-.1l1.2-3zM128.2 108.8l-5.5-1.7.3-6.3 1.5.1-.3 5.1 4.4 1.4zM43.5 134.8s.9.9 2.5 2.3c.8.7 1.8 1.6 3 2.5 1.2 1 2.5 2 3.9 3.1 1.5 1.1 3.1 2.3 4.8 3.5 1.7 1.2 3.6 2.4 5.5 3.7 1.9 1.2 4 2.4 6.1 3.6 1 .6 2.1 1.1 3.2 1.7 1.1.5 2.2 1.1 3.3 1.6 2.2 1 4.4 2 6.7 2.9 1.1.4 2.2.9 3.3 1.3.5.2 1.1.4 1.7.6.5.2 1.1.4 1.6.5.5.2 1.1.4 1.6.5.5.2 1.1.3 1.6.5 1.1.3 2.1.6 3.1.9 2 .5 4 1 5.8 1.4.9.2 1.8.3 2.6.5s1.6.3 2.3.5c1.5.2 2.8.5 3.8.6 2.1.3 3.4.5 3.4.5s-1.2.1-3.4.1c-1.1 0-2.4 0-3.9-.1s-3.2-.2-5.1-.4c-.9-.1-1.9-.3-2.9-.4s-2-.4-3.1-.5c-1.1-.2-2.1-.5-3.2-.7-1.1-.2-2.2-.5-3.3-.9-.6-.2-1.1-.3-1.7-.5-.6-.2-1.1-.4-1.7-.5-.6-.2-1.2-.4-1.7-.6-.6-.2-1.2-.4-1.7-.6-2.3-.9-4.6-1.9-6.9-2.9-1.1-.5-2.3-1.1-3.4-1.7L68 156c-1.1-.6-2.1-1.2-3.1-1.9-1-.6-2-1.3-3-2s-1.9-1.3-2.8-2c-.9-.7-1.8-1.4-2.6-2-1.7-1.3-3.2-2.7-4.6-4-2.8-2.6-4.9-4.9-6.2-6.5-.7-.8-1.2-1.5-1.6-2-.4-.5-.6-.8-.6-.8zM90.8 154.4s.6.2 1.7.5c.5.1 1.2.3 1.9.5.8.2 1.6.4 2.5.6s1.9.4 3 .6c1.1.2 2.2.4 3.4.5 1.2.2 2.4.3 3.6.4 1.2.1 2.5.2 3.7.3 1.3 0 2.5.1 3.8.1h1.9c.6 0 1.2-.1 1.8-.1.6 0 1.2-.1 1.7-.1.6 0 1.1-.1 1.7-.2 1.1-.2 2.1-.2 3-.5.9-.2 1.8-.4 2.5-.5.7-.2 1.4-.4 1.9-.5 1.1-.3 1.7-.5 1.7-.5s-.6.3-1.6.7c-.5.2-1.1.5-1.9.8-.7.2-1.6.5-2.5.8-.9.3-1.9.5-3 .7-.5.1-1.1.2-1.7.3-.6.1-1.2.1-1.8.2-.6.1-1.2.1-1.8.2-.6 0-1.3 0-1.9.1-1.3.1-2.6 0-3.9 0-1.3 0-2.6-.2-3.8-.3-1.3-.2-2.5-.4-3.7-.6-1.2-.2-2.3-.5-3.4-.8-1.1-.3-2.1-.6-3-.8-.9-.3-1.8-.6-2.5-.8-.7-.3-1.4-.5-1.9-.8-.5-.2-.9-.4-1.2-.5 0-.3-.2-.3-.2-.3zM32.5 95.3s.9 1.4 2.6 3.2c.4.5.9.9 1.4 1.4.5.5 1 1 1.6 1.5.3.2.6.5.9.7.3.2.6.5.9.7.6.5 1.3.9 2 1.4.7.5 1.4.8 2.1 1.2.7.4 1.4.7 2.1 1 .7.3 1.4.6 2 .8.3.1.6.3 1 .4l.9.3c.6.2 1.1.4 1.6.5.5.1.9.2 1.3.3.7.2 1.1.3 1.1.3h-1.2c-.4 0-.8 0-1.3-.1-.5 0-1.1-.1-1.7-.2-.6-.1-1.3-.2-2-.4s-1.4-.4-2.2-.7c-.7-.3-1.5-.6-2.3-1-.7-.4-1.5-.8-2.2-1.2s-1.4-.9-2.1-1.5c-.7-.5-1.3-1.1-1.9-1.6-.6-.5-1.1-1.1-1.6-1.7-.5-.6-.9-1.1-1.2-1.6-.4-.5-.7-1-.9-1.5-.3-.4-.5-.9-.6-1.2-.1-.6-.3-1-.3-1zM93 237.9l.1-.1.3-.3c.3-.3.7-.8 1-1.3.2-.3.3-.6.4-1 .1-.4.2-.7.2-1.1 0-.4-.1-.8-.3-1.2l-.1-.1v-.1c0-.1.1.1 0 .1l-.2-.3-.2-.2-.1-.1-.1-.2c-.4-.3-.8-.4-1.3-.6-.5-.1-1-.2-1.4-.3-.5 0-1-.1-1.4 0-.5 0-.9 0-1.3.1-.4 0-.7.1-1.1.2-.3.1-.6.2-.8.3-.4.2-.6.4-.6.4s.2-.2.6-.5c.2-.1.5-.3.7-.5.3-.1.7-.3 1-.4.4-.1.8-.3 1.3-.4.5-.1 1-.2 1.5-.2h1.7c.6.1 1.2.2 1.8.5.3.1.7.4.9.6l.3.3.1.1.1.1.1.2c.4.5.6 1.1.8 1.8.1.6.1 1.3 0 1.8-.1.6-.2 1.1-.4 1.5-.3.9-.7 1.6-1 2-.1.2-.3.4-.4.5-.1.1-.1.2-.1.2l-2.1-1.8zM66.2 247.4l-18.8-2.1c19.2-.2 58.7-2.8 58.8-2.9l.4 2.9c-.1.1-21 2-40.4 2.1zM110.9 273.6s.3.2.8.6c.5.4 1.3.8 2.3 1.2.5.2 1.1.4 1.7.6.6.2 1.2.3 1.9.5.3.1.7.1 1 .2.3 0 .7.1 1 .1.7.1 1.4.1 2.2.2.7 0 1.4.1 2.2.1.7 0 1.4.1 2.1.1 1.4 0 2.6.1 3.7.1h3.7s-.4.1-1 .2-1.5.2-2.7.3c-1.1.1-2.4.1-3.8.1s-2.8 0-4.3-.1c-.7 0-1.5-.1-2.2-.2-.7-.1-1.4-.2-2.1-.4-1.4-.3-2.6-.8-3.6-1.3-.5-.2-.9-.5-1.3-.7-.4-.3-.7-.5-.9-.7-.4-.6-.7-.9-.7-.9zM182.6 205.2s-.2.3-.6.7c-.4.4-1 1-1.9 1.6-.4.3-.8.6-1.3.9-.5.3-1 .7-1.5 1-.5.3-1.1.6-1.7.9l-1.8.9c-.6.3-1.2.5-1.9.8-.6.2-1.2.5-1.8.7-1.2.4-2.3.7-3.3.9-1 .3-1.8.4-2.4.5-.6.1-.9.1-.9.1l.9-.3c.6-.2 1.4-.4 2.3-.7.5-.2 1-.3 1.5-.5s1.1-.4 1.7-.6c.6-.2 1.2-.5 1.8-.7s1.2-.5 1.8-.8c.6-.3 1.2-.6 1.8-.8.6-.3 1.2-.6 1.7-.9.5-.3 1.1-.6 1.6-.9.5-.3.9-.6 1.4-.8.4-.3.8-.5 1.1-.7l.9-.6c.4-.5.6-.7.6-.7zM196 202.4c-2.8 0-5-2.3-5-5 0-2.8 2.3-5 5-5 2.8 0 5 2.3 5 5s-2.2 5-5 5zm0-8.6c-2 0-3.6 1.6-3.6 3.6s1.6 3.6 3.6 3.6 3.6-1.6 3.6-3.6c-.1-2-1.7-3.6-3.6-3.6z"/><path d="M161.5 173c-.2-1.2-.5-2.4-.8-3.6-.6-2.4-1.6-4.8-3-6.9-1.2-1.8-2.7-3.3-4.3-4.6.4-.8.9-1.6 1.3-2.4.1-.3.3-.6.5-.9.1-.2.1-.3.2-.5V153.8v-.3c0-.3 0-.5-.1-.7-.2-.7-.4-1-.6-1.3-.2-.3-.5-.6-.7-.9-.9-1.1-1.9-2-3-2.9-.6-.4-1.1-.8-1.8-1.2-.4-.2-.7-.4-1.3-.5h-1.1c-.3.1-.5.2-.7.3-.8.4-1.3.8-1.8 1.3-.5.4-1 .9-1.5 1.3-1 .9-1.9 1.9-2.8 2.8-.9 1-1.8 2-2.6 3-.5.6-1 1.2-1.5 1.9-.1 0-.1-.1-.2-.2-.6-.4-1.2-.7-1.9-1-.7-.3-1.4-.4-2.2-.4h-.6c-.1 0-.3.1-.4.1-.2 0-.3.1-.4.1-.4.2-.8.4-1 .7-.6.5-1 1-1.4 1.5s-.8 1-1.1 1.5c-.7 1-1.3 2.1-1.8 3.2-.3.5-.5 1.1-.8 1.6l-.2.4v.5c-.1.4-.1.6-.1.8v.6c.1.8.4 1.5.6 2.1s.6 1.2 1.1 1.8c.4.5.9 1.1 1.3 1.5l.6.6.6.6c.4.4.7.8 1.1 1.3l.3.3c-.6.5-1.2 1.1-1.9 1.6-.9.8-1.9 1.5-2.9 2.2-1 .7-2.1 1.4-3.1 2-.5.3-1.1.6-1.6.9-.5.3-1.1.6-1.6.9-.5.3-1.1.6-1.7.8-.6.3-1.1.5-1.7.8-1.1.5-2.3 1-3.5 1.5-2.3 1-4.7 1.9-7.1 3-2.4 1-4.7 2.2-7 3.4-2.3 1.2-4.5 2.6-6.6 4.1-.9.7-1.7 1.4-2.6 2.1-.6-.8-1.3-1.5-1.9-2.2-.9-1-1.7-1.9-2.6-2.8-1.8-1.9-3.5-3.7-5.4-5.5-.9-.9-1.8-1.8-2.8-2.6-.9-.9-1.9-1.8-2.8-2.6l-2.9-2.5-2.9-2.5-3-2.4c-1-.8-2-1.6-3-2.3l-3.1-2.3c-1-.8-2.1-1.5-3.1-2.2-1-.7-2.1-1.5-3.2-2.2l-3.2-2.1c-1.1-.7-2.2-1.4-3.2-2l-3.3-2-1.3-.8-.7 1.4c-.3.5-.5 1-.8 1.5l-.7 1.5c-.5 1-.9 2.1-1.4 3.1-.9 2.1-1.7 4.2-2.4 6.4s-1.3 4.4-1.5 6.8c-.1 1.2-.2 2.4 0 3.7.2 1.2.5 2.5 1.3 3.7 3.4 6.5 6.9 13 10.5 19.5.4.7.8 1.4 1.2 2.2-1.3 4.2-8.1 26.1-10.2 38.1l2.4-.3c1.8-10.2 7.4-27.5 9.7-34.4.8 1.4 1.6 2.8 2.3 4.1.9 1.6 1.9 3.2 2.8 4.8l1.5 2.4c.5.8 1 1.6 1.6 2.4 2.3 3.1 4.9 5.8 7.7 8.4 2.8 2.5 5.9 4.8 9.4 6.5 3.4 1.8 7.2 3 11.2 3.1 2 0 4-.2 5.9-.8 1.8-.6 3.6-1.4 5.1-2.5 2.3-.7 4.5-1.6 6.6-2.5 2.2-1 4.4-2 6.5-3.2 2.1-1.2 4.2-2.4 6.2-3.7 2-1.3 4-2.7 5.9-4.2 1.9-1.4 3.8-3 5.6-4.6 1.8-1.6 3.6-3.3 5.2-5 .8-.9 1.7-1.7 2.5-2.6l2.4-2.7 1.2-1.4 1.1-1.4 1.1-1.4 1.1-1.5 1.1-1.5 1-1.5 1-1.5.9-1.5c.6-1 1.3-2.1 1.8-3.1.6-1.1 1.2-2.1 1.7-3.2l.8-1.6.4-.8.1-.2c0-.1 0 0 0 0v-.1l.2-.4c.6-.9 1.2-1.9 1.9-2.7.7-.9 1.5-1.7 2.3-2.4.8-.7 1.7-1.3 2.7-2 1-.7 2.1-1.4 3-2.4.5-.5.9-1.1 1.3-1.8.3-.7.6-1.4.7-2.1.3-1.5.1-2.9-.1-4.1zm-8.8-19.7zm-5-4.7zm11 27.9c-.2.9-.6 1.7-1.2 2.4-.7.7-1.6 1.4-2.5 2-.9.6-2.1 1.4-3 2.2-1 .8-1.9 1.8-2.6 2.7-.8 1-1.5 2-2.2 3.1l-.2.4-.1.3-.1.2-.4.8-.8 1.6c-.5 1.1-1.1 2.1-1.7 3.1-.5 1-1.2 2-1.8 3l-.9 1.5-1 1.5-1 1.5-1 1.4-1 1.4-1.1 1.4-1.1 1.4-1.1 1.4c-.7.9-1.5 1.8-2.3 2.7-.8.9-1.6 1.7-2.4 2.6-1.6 1.7-3.3 3.3-5.1 4.8-1.8 1.5-3.6 3-5.4 4.4-1.9 1.4-3.8 2.8-5.7 4-2 1.3-4 2.5-6 3.6-2.1 1.1-4.2 2.1-6.3 3.1-2.1.9-4.3 1.8-6.5 2.4l-.3.1-.2.1c-1.4 1-2.9 1.7-4.6 2.2-1.6.5-3.3.7-5 .7-3.4-.1-6.8-1.1-10-2.8-3.2-1.6-6.1-3.7-8.8-6.1-2.7-2.4-5.1-5.1-7.3-7.9-.5-.7-1-1.4-1.5-2.2-.5-.8-1-1.5-1.4-2.3-.9-1.6-1.9-3.1-2.8-4.7l-5.4-9.6c-3.6-6.5-7-13-10.5-19.5v-.1l-.1-.1c-.5-.6-.7-1.5-.9-2.5-.1-.9-.1-2 0-3 .2-2.1.8-4.2 1.4-6.2.7-2.1 1.4-4.1 2.3-6.1.4-1 .9-2 1.4-3l.7-1.5v-.1l1.9 1.2c1.1.7 2.2 1.3 3.2 2l3.2 2.1c1.1.7 2.1 1.4 3.1 2.1 1 .7 2.1 1.4 3.1 2.2l3 2.3c1 .7 2 1.5 3 2.3 1 .8 2 1.5 2.9 2.4l2.9 2.4 2.8 2.5c.9.8 1.9 1.7 2.8 2.5.9.9 1.8 1.7 2.7 2.6 1.8 1.7 3.6 3.5 5.3 5.4.9.9 1.7 1.8 2.5 2.8.7.8 1.4 1.6 2 2.4-.4.4-.7.8-1 1.3-.8 1.1-1.5 2.2-2 3.4-.5 1.2-.9 2.5-1.1 3.7.5-1.2 1.2-2.3 1.9-3.3s1.5-1.9 2.4-2.8c.9-.9 1.8-1.7 2.8-2.4 1-.7 2-1.4 3.1-2.1 1-.7 2.1-1.3 3.2-1.9s2.2-1.2 3.3-1.7c2.3-1.1 4.6-2.1 6.9-3 2.3-1 4.7-1.9 7.1-2.8 1.2-.5 2.4-.9 3.6-1.5.6-.3 1.2-.5 1.8-.8l1.8-.9c.6-.3 1.2-.6 1.7-.9.6-.3 1.1-.7 1.7-1 .6-.3 1.1-.7 1.6-1.1.5-.4 1.1-.8 1.6-1.2 1-.8 2.1-1.6 3.1-2.5 1-.9 1.9-1.8 2.9-2.9l.8-.9-.6-.9c-.4-.5-.7-1-1.1-1.5-.4-.5-.8-.9-1.2-1.4l-.6-.7-.6-.6c-.4-.4-.7-.7-1-1.1-.3-.4-.5-.8-.8-1.2-.2-.4-.3-.9-.4-1.2v-.2-.2l.2-.4c.2-.5.5-1 .7-1.5.5-1 1.1-2 1.7-2.9.3-.5.6-.9.9-1.3.3-.4.7-.8 1-1 .2-.1.3-.2.4-.3 0 0 .1 0 0 0 0 0-.1 0 0 0h.2c.4 0 .8.1 1.2.2.4.2.8.4 1.2.7.4.3.8.6 1.1.9l1.3 1.3 1-1.6c.6-1 1.4-2 2.2-3 .8-1 1.6-1.9 2.5-2.8l2.7-2.7c.5-.4.9-.8 1.4-1.2.5-.4.9-.7 1.3-.9.1 0 .3.1.4.2.5.2.9.6 1.4.9.9.7 1.9 1.6 2.6 2.4.2.2.4.4.5.6.1.1.1.2.1.2v.1c-.1.3-.2.5-.4.8l-1.8 3.3-.7 1.1 1.1.8c1.8 1.3 3.4 2.9 4.6 4.7 1.2 1.8 2.1 3.9 2.6 6.1.3 1.1.5 2.2.7 3.4.2.7.3 1.8.1 2.7z" fill="#472116"/><path d="M60.7 233.9c-4.3 0-8-1.2-10.9-3.7-6.4-5.5-6.7-14.9-6.8-15.3l2.9-.1c0 .1.3 8.5 5.7 13.1 3 2.5 7 3.5 12 2.8l.4 2.9c-1 .2-2.2.3-3.3.3zM72.1 261.8v-.7s1.1 0 2.9-.1v.7c-1.8.1-2.9.1-2.9.1zm5.8-.2v-.7c.9 0 1.9-.1 2.9-.1v.7c-1 0-2 0-2.9.1zm5.9-.3v-.7c.9 0 1.9-.1 2.9-.2v.7c-1 .1-1.9.1-2.9.2zm5.9-.4v-.7c1-.1 1.9-.1 2.9-.2v.7c-1 .1-2 .2-2.9.2zm5.8-.4v-.7c1-.1 2-.1 2.9-.2l.1.7c-1 .1-2 .1-3 .2zm5.8-.5l-.1-.7c1-.1 2-.2 2.9-.3l.1.7c-.9.1-1.8.2-2.9.3zm5.9-.6l-.1-.7.4-.1.1.7-.4.1zM78.8 249.3v-.7h2.9v.7h-2.9zm-2.9 0H73v-.7h2.9v.7zm8.8-.1v-.7c.9 0 1.9-.1 2.9-.1v.7c-1 .1-2 .1-2.9.1zm5.8-.2v-.7c.9 0 1.9-.1 2.9-.2v.7c-.9.1-1.9.1-2.9.2zm5.9-.4l-.1-.7c1-.1 1.9-.2 2.9-.3l.1.7c-1 .1-2 .2-2.9.3zm5.8-.6l-.1-.7c1-.1 1.9-.2 2.9-.4l.1.7c-.9.2-1.9.3-2.9.4z" fill="#472116"/><g id="el_Ar14PWEqZ5N"><g id="el_sJM04rSdfhi"><g id="el_su8tbvsQ7ol"><path d="M100.3 254.9c4 0 7.2.5 8.5 1.7-.4-9.3-15.5-24.3-15.5-24.3s-27.8 6.4-32.8 10.7c0 0 11.6 9 10.1 16.3h.1c4.7-2.3 19.2-4.5 29.6-4.4z" fill="#6a874d"/><path d="M101.3 252.5c-3.3-.1-7.3.1-11.8.6-6.5.7-12.8 1.9-17.2 3.2 2.4-3.3 1.6-8.4-2-11.6-1.1-1-2.3-1.7-3.5-2.1 5.4-2.2 14.3-4.6 21.7-6.5.2.8.6 1.5 1.3 2.1 1.6 1.5 4.1 1.4 5.7 0 2.8 3.2 6.1 7.3 8.3 11.3-.5.2-1 .6-1.4 1-.7.4-1 1.2-1.1 2z" fill="#d4efb8"/></g><path d="M70.9 259.2l.3.2.5.5.6.6c.4-.1-.5.5 0 .5 7.3-.5 25 3.8 25 3.8l3-10c-10.4 0-24.8 2.2-29.4 4.4z" fill="#4f6439"/><path d="M77 259.5c1.7-.3 3.4-.6 5.1-.8l5.1-.6M75.2 258.9c.9-.3 1.9-.6 2.8-1" fill="#344226"/></g><g id="el_MppzzSDLMMq"><g id="el_6v5HnW55LV3"><path d="M96.6 238.4c3.7-1.6 6.8-2.5 8.4-1.9-4.2-8.3-24.1-15.8-24.1-15.8S58.2 238 55.4 244c0 0 14.2 3.4 16 10.7l.1-.1c3.3-4 15.6-12.1 25.1-16.2z" fill="#6a874d"/><path d="M96.5 235.8c-3 1.3-6.6 3.1-10.5 5.4-5.6 3.3-10.9 7-14.3 10 .9-4-2-8.3-6.6-9.8-1.4-.5-2.8-.6-4.1-.5 4-4.2 11-10.1 17-14.8.5.6 1.2 1.1 2 1.4 2.1.7 4.3-.4 5.2-2.4 3.8 1.8 8.5 4.2 12.2 6.9-.4.4-.6.9-.8 1.5-.3.7-.3 1.5-.1 2.3z" fill="#d4efb8"/></g><path d="M71.6 254.5h.4s.4.2.7.3l.8.3c.3-.2-.2.7.2.5 6.5-3.5 24.3-6.8 24.3-6.8l-1.4-10.3c-9.5 4-21.7 12-25 16z" fill="#4f6439"/><path d="M77.3 252.2c1.4-1 2.8-1.9 4.3-2.8 1.4-.9 2.9-1.8 4.4-2.6M75.4 252.3c.7-.7 1.4-1.3 2.1-2" fill="#344226"/></g><g id="el_yFzYwgdBVfa"><path d="M78 225.7c3.1-2.6 5.8-4.3 7.6-4.2C79.2 214.6 58 213 58 213s-17 22.9-18 29.5c0 0 9 4.2 18.3 5.8v-.1c2.2-4.8 11.8-15.9 19.7-22.5z" fill="#6a874d"/><path d="M77.2 223.2c-2.5 2-5.5 4.9-8.6 8.2-4.5 4.8-8.5 9.8-11 13.6-.3-4.1-4.2-7.4-9.1-7.6-1.5 0-2.8.2-4.1.7 2.7-5.2 7.8-12.8 12.2-19 .7.5 1.4.7 2.3.8 2.2.1 4.1-1.6 4.3-3.7 4.2.6 9.4 1.6 13.7 3.2-.2.5-.4 1.1-.4 1.6 0 .7.3 1.5.7 2.2z" fill="#d4efb8"/></g><path d="M58.5 248.1l.4-.1s.4.1.7.1l.9.1c.2-.3 0 .7.3.4 5.2-5.1 21.4-13.4 21.4-13.4l-4.2-9.5c-7.9 6.6-17.5 17.6-19.5 22.4z" fill="#4f6439"/><path d="M63.3 244.3c1.1-1.3 2.2-2.7 3.3-3.9 1.1-1.3 2.3-2.5 3.5-3.8M61.5 245c.5-.8 1-1.7 1.5-2.5" fill="#344226"/><g id="el_nm_5Fz_Ofoj"><path d="M60.7 216c1.6-3.7 3.2-6.5 4.8-7.2-8.8-3.1-28.4 5.1-28.4 5.1s-4.6 28.2-2.4 34.4c0 0 9.2-.9 19-1.7-.4-5.1 3-21.1 7-30.6z" fill="#6a874d"/><path d="M58.8 214.2c-1.3 3-2.7 6.8-3.9 11.2-1.8 6.3-3.1 12.6-3.5 17.1-2.1-3.5-7.1-4.7-11.6-2.5-1.3.6-2.4 1.5-3.3 2.5 0-5.8 1.1-15 2.1-22.5.8.1 1.6 0 2.4-.4 2-.9 2.9-3.3 2.1-5.3 4-1.4 9.1-2.8 13.6-3.4 0 .5.2 1.1.4 1.6.5.7 1 1.3 1.7 1.7z" fill="#d4efb8"/></g><path d="M53.7 246.6s.1 0 .4-.2l1.4-.7c.1-.4.2-.8.3-1.3 2.3-7 13.1-22.1 13.1-22.1l-8.1-6.5c-4.1 9.7-7.5 25.7-7.1 30.8z" fill="#4f6439"/><path d="M56.2 239.3c.3-1.7.7-3.3 1.1-5 .4-1.7.9-3.3 1.4-5M54.9 240.7c.1-1 .1-1.9.2-2.9" fill="#344226"/><g id="el_kHrQh9tBxYB"><path d="M39.6 214.1c.4-4 1.1-7.1 2.4-8.3-9.3-.3-25.5 13.5-25.5 13.5s3.5 25.5 7.4 30.8c0 0 9.7-2.3 18.2-4.6-1.9-4.8-3.5-21.1-2.5-31.4z" fill="#6a874d"/><path d="M37.2 213c-.4 3.2-.5 7.3-.3 11.8.2 6.5.9 12.9 1.8 17.4-3.1-2.7-8.2-2.3-11.8 1.1-1.1 1-1.9 2.2-2.4 3.4-1.7-5.6-3.5-14.6-4.8-22.1.8-.1 1.5-.5 2.2-1.1 1.6-1.5 1.8-4 .4-5.7 3.4-2.5 7.8-5.5 11.9-7.4.2.5.5 1 .9 1.4.6.6 1.4 1 2.1 1.2z" fill="#d4efb8"/></g><path d="M42.2 245.5l.3-.3 1.1-1c0-.4-.1-.8-.1-1.3.1-7.4 5.8-25 5.8-25l-9.7-3.8c-1 10.3.6 26.6 2.6 31.4z" fill="#4f6439"/><path d="M42.3 237.7c-.2-1.7-.3-3.4-.4-5.1-.1-1.7-.2-3.4-.2-5.1M41.5 239.5c-.2-.9-.5-1.9-.7-2.8" fill="#344226"/><g id="el_LZcAA0ZlUp_"><path d="M40.1 243.2c-.8.5-1.5 1-2.3 1.4-4.4 2.5-9.1 4.4-14.2 5.6l-2.7.6-9.4-23L35.1 210l5 33.2z" fill="#6a874d"/><path d="M37.7 244.7c-.8.4-1.5.9-2.3 1.3.3-2-.3-3.9-1.8-5.1-2.3-1.7-5.8-.8-7.8 2-1.6 2.3-1.8 5.1-.6 6.9-.6.2-1.2.3-1.8.5l-7.7-18.7c.8-.4 1.4-1.3 1.7-2.3.2-.9 0-1.7-.3-2.4l13.4-10.1c.4.7 1 1.1 1.8 1.3.4.1.9.1 1.3-.1l4.1 26.7z" fill="#d4efb8"/></g></g><path d="M96.9 53.8l-.5-.5c.4-.3.7-.7 1.1-1l.5.5c-.4.3-.8.6-1.1 1zm2.1-2l-.5-.5 1-1 .5.5-1 1zm2.1-2.1l-.5-.5c.3-.4.7-.7 1-1.1l.5.5c-.3.4-.7.7-1 1.1zm-33.2-2l-.5-.6 1.2-.9.5.6-1.2.9zm35.1-.2l-.6-.5c.3-.4.6-.8.9-1.1l.6.5c-.2.3-.5.7-.9 1.1zm-32.8-1.6l-.5-.6 1.2-.9.5.6-1.2.9zm34.7-.7l-.6-.4c.3-.4.6-.8.8-1.2l.6.4c-.2.4-.5.8-.8 1.2zm-32.4-1.1l-.5-.6 1.2-.9.5.6-1.2.9zm34-1.4l-.6-.4c.3-.4.5-.9.7-1.3l.7.3c-.3.5-.5 1-.8 1.4zm-31.6-.4l-.5-.6 1.2-.9.5.6-1.2.9zm2.3-1.8l-.4-.6L78 39l.4.6-1.2.9zm29.4 0c-.4-.3-.8-.5-1.3-.7l.4-.6c.4.2.8.5 1.3.7l-.4.6zm-2.5-1.5c-.4-.2-.9-.5-1.3-.7l.3-.7c.4.2.9.5 1.3.7l-.3.7zm-24.6-.2l-.4-.6 1.2-.9.4.6-1.2.9zm22-1.1c-.5-.2-.9-.4-1.3-.6l.3-.7c.4.2.9.4 1.3.6l-.3.7zM81.9 37l-.4-.6 1.2-.9.4.6-1.2.9zm16.9-.5c-.5-.2-.9-.4-1.4-.5l.3-.7c.5.2.9.4 1.4.5l-.3.7zm-2.7-1c-.5-.2-.9-.3-1.4-.5l.2-.7c.5.1.9.3 1.4.5l-.2.7zm-11.8-.2l-.4-.6 1.2-.9.4.6-1.2.9zm9.1-.7c-.5-.1-.9-.3-1.4-.4l.2-.7c.5.1.9.3 1.4.4l-.2.7zm-2.8-.8c-.5-.1-1-.2-1.4-.3l.1-.7c.4.1.9.2 1.4.3l-.1.7zm-4-.2l-.4-.6c.4-.2.7-.4.9-.5h.2s.2 0 .5.1l-.1.7h-.4c-.1 0-.4.1-.7.3zM120.6 259l-.1-.7s1-.1 2.9-.3l.1.7c-1.8.2-2.9.3-2.9.3zm5.9-.7l-.1-.7c.9-.1 1.9-.2 2.9-.4l.1.7c-1.1.2-2 .3-2.9.4zm5.8-.7l-.1-.7c.9-.1 1.9-.3 2.9-.4l.1.7c-1 .1-2 .3-2.9.4zm5.8-.8l-.1-.8c.9-.1 1.9-.3 2.9-.5l.1.7c-1 .3-2 .4-2.9.6zm5.8-1l-.1-.7c.9-.2 1.9-.3 2.9-.5l.1.7c-1 .2-2 .4-2.9.5zm5.7-1l-.1-.7c.9-.2 1.9-.4 2.9-.5l.1.7c-.9.1-1.9.3-2.9.5zm5.8-1.1l-.1-.7c.9-.2 1.9-.4 2.9-.6l.2.7c-1.1.2-2.1.4-3 .6zm5.7-1.3l-.2-.7c.9-.2 1.9-.5 2.8-.7l.2.7c-.9.3-1.8.5-2.8.7zm5.7-1.4l-.2-.7c.9-.2 1.9-.5 2.8-.8l.2.7c-.9.3-1.8.6-2.8.8zm5.7-1.5l-.2-.7c.9-.3 1.9-.6 2.8-.8l.2.7c-1 .2-1.9.5-2.8.8zM187.6 244.5l-.2-.7s1.1-.3 2.8-.8l.2.7c-1.6.5-2.7.8-2.8.8zm5.7-1.7l-.2-.7c.9-.3 1.8-.6 2.8-.9l.2.7c-1 .3-2 .6-2.8.9zm5.5-2l-.3-.7c.9-.4 1.8-.7 2.7-1.1l.3.7c-.8.3-1.8.7-2.7 1.1zm5.4-2.4l-.3-.7c.9-.5 1.8-.9 2.6-1.4l.4.6c-.9.6-1.8 1.1-2.7 1.5zM190.4 228.6l-.3-.7c.9-.4 1.9-.7 2.7-1l.3.7c-.9.3-1.8.6-2.7 1zm5.4-2.2l-.3-.7c1-.4 1.9-.8 2.7-1.1l.3.7c-.8.4-1.7.7-2.7 1.1zm5.4-2.3l-.3-.7c.9-.4 1.8-.9 2.6-1.3l.3.7c-.8.4-1.7.9-2.6 1.3zm5.2-2.7l-.4-.6c1.7-1 2.4-1.5 2.4-1.5l.5.5s-.6.6-2.5 1.6zM118.7 245.9v-.7s1 0 2.9-.2v.7c-1.8.1-2.9.2-2.9.2zm5.9-.5l-.1-.7c.9-.1 1.9-.2 2.9-.3l.1.7c-1.1.1-2 .2-2.9.3zm5.8-.6l-.1-.7c.9-.1 1.9-.2 2.9-.4l.1.7c-1 .2-2 .3-2.9.4zm5.8-.8l-.1-.7c.9-.1 1.9-.3 2.9-.5l.1.7c-1 .2-1.9.4-2.9.5zm5.8-.9l-.1-.7c.9-.2 1.9-.3 2.9-.5l.1.7c-1 .1-1.9.3-2.9.5zm5.8-1.1l-.1-.7c.9-.2 1.9-.4 2.9-.6l.2.7c-1.1.2-2.1.4-3 .6zm5.7-1.3l-.2-.7c.9-.2 1.9-.5 2.8-.7l.2.7c-.9.2-1.9.5-2.8.7zm5.7-1.5l-.2-.7c.9-.3 1.9-.5 2.8-.8l.2.7c-1 .3-1.9.6-2.8.8zm5.6-1.6l-.2-.7c.9-.3 1.9-.6 2.8-.9l.2.7c-.9.3-1.9.6-2.8.9zm5.5-1.9l-.2-.7c.9-.3 1.8-.7 2.7-1l.3.7c-.9.3-1.8.7-2.8 1z" fill="#472116"/><g id="el_Mdy0qT2pEuW" fill="#472116"><path d="M24.5 63.2l.3.9c.2.7.5 1.2.7 1.8 1.1 2.4 2.6 4.5 4.6 6.3 1 .9 2 1.6 3.2 2.3.6.3 1.1.6 1.7.9-1.1 2.4-2.1 4.9-3.1 7.4-1.2 3.1-2.4 6.2-3.4 9.4-.5 1.6-1 3.2-1.4 4.8-.2.8-.4 1.7-.6 2.5l-.2 1.2-.1.6c0 .3 0 .5-.1.7-.2 1.8 0 3.6.2 5.3.2 1.7.5 3.4.9 5 .7 3.3 1.6 6.5 2.5 9.7.9 3.2 2 6.3 3.1 9.4 2 5.7 4.2 11.3 6.5 16.9l-.6.5c-.4.3-.6.6-.8.9-.2.3-.5.6-.7.9-.2.3-.4.6-.6 1-.2.3-.4.7-.5 1-.1.4-.3.7-.4 1.1-.1.4-.2.7-.3 1.1 0 .4-.1.8-.1 1.1v1.1c0 .4.1.8.1 1.1 0 .4.1.7.2 1.1.1.4.2.7.3 1.1l.5 1c.1.3.3.6.5.9l.6.9c.4.6.9 1.1 1.3 1.7l1.6-1.3c-.4-.5-.7-1-1.1-1.5l-.4-.8c-.1-.3-.3-.5-.4-.8l-.3-.8c-.1-.3-.1-.6-.2-.9-.1-.3-.1-.6-.1-.9 0-.3-.1-.6-.1-.9v-.9l.1-.8c0-.3.2-.5.2-.8.1-.3.2-.5.3-.8.1-.3.3-.5.4-.8.2-.2.3-.5.5-.7s.4-.5.5-.7l3.7 1.1 2.2.7c.7.2 1.4.5 2.2.8l4.3 1.6c1.4.6 2.8 1.3 4.2 1.9l2.1 1c.1.1.3.1.4.2.7.5 1.5 1.1 2.5 1.8 2.6 1.9 6 4.6 9.4 7.3 1.7 1.4 3.4 2.7 4.9 4 1.6 1.3 3 2.5 4.2 3.6.6.5 1.1 1 1.6 1.5l1.2 1.2c.7.7 1.1 1 1.1 1s-.4-.4-1-1.1c-.3-.4-.7-.8-1.2-1.3s-1-1-1.5-1.6c-1.1-1.2-2.5-2.5-4-3.9s-3.1-2.9-4.7-4.3c-1.1-1-2.1-1.9-3.2-2.8l.2.1c1.3.8 2.6 1.7 3.8 2.6 1.3.9 2.5 1.7 3.7 2.7 1.2.9 2.4 1.9 3.6 2.8l3.5 3 3.4 3.1c1.1 1.1 2.2 2.2 3.3 3.2 1.1 1.1 2.1 2.2 3.2 3.4 1 1.2 2 2.3 3 3.5 1 1.2 1.9 2.4 2.8 3.6l2.4-1.7c-.9-1.3-1.9-2.6-2.9-3.8-1-1.2-2-2.4-3.1-3.6-1.1-1.2-2.1-2.3-3.2-3.5-1.1-1.1-2.2-2.2-3.4-3.3L85 173l-3.6-3.1c-1.2-1-2.5-1.9-3.7-2.9-1.2-1-2.5-1.9-3.8-2.8-1.3-.9-2.6-1.8-3.9-2.6l-4-2.5-4.2-2.3c-.7-.4-1.4-.8-2.1-1.1l-2.2-1c-1.4-.6-2.9-1.4-4.3-2l-4.4-1.7c-.7-.3-1.5-.6-2.2-.8l-2.3-.7-2.7-.8h.1c-2.3-6.2-4.5-12.3-6.6-18.5-1-3.1-2-6.2-2.9-9.4-.9-3.1-1.7-6.3-2.3-9.4-.3-1.6-.6-3.2-.7-4.7-.2-1.6-.2-3.1-.1-4.6 0-.2 0-.4.1-.5l.1-.6.2-1.2c.2-.8.3-1.5.6-2.3.4-1.5.9-3.1 1.4-4.6 1-3.1 2.2-6.1 3.4-9.1s2.5-6 3.9-9l.5-1.2c2.7-5.1 7.3-13 12.3-18.7l.5-.4c.4-.3 1-.7 1.5-1 .5-.3 1.1-.7 1.7-.9 1.1-.6 2.3-1.1 3.5-1.6.6-.2 1.2-.5 1.8-.7.6-.2 1.2-.4 1.9-.6.6-.2 1.3-.3 1.9-.5.6-.1 1.3-.3 1.9-.4.6-.1 1.3-.2 1.9-.2.6-.1 1.3-.1 1.9-.1H72c.6 0 1.3.1 1.9.1.6.1 1.3.1 1.9.2.6.1 1.3.2 1.9.4.6.1 1.3.3 1.9.5.4.1.8.2 1.1.3-.5.9-.7 1.9-.8 2.3 0 .9.2 2 .9 2.4.2.1.4.2.6.2.2 0 .4 0 .6-.2 1.4-.9 6.1-3.9 6.7-5.4.2-.6.1-1.1-.4-1.6-1.1-1-4.1-1.3-5.4-.8-.4.2-.8.5-1.2 1-.6-.2-1.1-.4-1.7-.6-.7-.2-1.3-.4-2-.6-.7-.2-1.4-.3-2-.5l-2.1-.3c-.7-.1-1.4-.2-2.1-.2-.7 0-1.4-.1-2.1-.1s-1.4 0-2.1.1c-.7 0-1.4.1-2.1.2-.6.1-1.3.2-1.9.3 1.4-1.2 3-2.5 4.9-4 3.1-2.5 6.8-5.4 10.8-8.3 1-.7 2-1.4 3.1-2.1 1-.7 2.2-1.4 3.2-1.8l.3-.1h1.5l1.8.3c1.3.3 2.5.6 3.8.9 2.5.7 5 1.6 7.4 2.5 2.4 1 4.7 2 6.8 3.3.5.3 1 .7 1.4 1 .4.4.8.7 1.1 1.1.1.1.1.2.1.2.1.1 0 .1.1.2v.4c-.1.4-.3.9-.5 1.3-1 1.9-2.4 3.6-3.6 5.1-1.3 1.5-2.5 2.8-3.7 4s-2.1 2.1-3 2.9c-.9.8-1.5 1.4-2 1.8-.5.4-.7.6-.7.6l2 2.1s.9-1 2.6-2.7c.8-.9 1.8-1.9 2.9-3.1 1.1-1.2 2.3-2.6 3.6-4.2 1.3-1.6 2.7-3.3 3.8-5.5.3-.6.5-1.1.7-1.9v-.8V39.1c0-.2-.1-.5-.2-.6-.1-.2-.2-.4-.3-.5-.4-.7-.9-1.1-1.5-1.5-.5-.4-1.1-.8-1.6-1.2-2.2-1.4-4.6-2.5-7-3.6-2.5-1-5-2-7.6-2.8-1.3-.4-2.6-.8-4-1.1-.7-.1-1.4-.3-2.1-.4h-1.1c-.2 0-.6.1-.8.1l-.8.5c-1.4.6-2.5 1.3-3.7 2-.5.3-.9.6-1.3.9l-1.4-3.4-.3-.7-.7-.2c-2.1-.6-4.2-1-6.2-1.5-1-.2-2.1-.4-3.2-.6s-2.1-.3-3.2-.5-2.1-.3-3.2-.4c-1.1-.1-2.2-.2-3.2-.2-1.1-.1-2.2 0-3.3 0-1.1.1-2.2.1-3.4.4-.3 0-.6.1-.9.1l-.9.3-.9.3-.8.4-.7.3-.8.5-.8.5c-.3.2-.5.3-.7.5-.9.6-1.8 1.4-2.6 2.1l-1.2 1.1-1.3 1.1c-.8.8-1.5 1.6-2.2 2.4-.7.8-1.4 1.7-2.1 2.5-.7.9-1.3 1.7-1.9 2.6l-1.8 2.7-.5.7.4.8 1.2 2.3c-.5.2-1 .3-1.5.6-2.4 1-4.7 2.8-6.1 5.1-1.5 2.3-2.3 5-2.3 7.7 0 1.3.1 2.7.4 3.9.4.2.5.6.6.9zm63.4-14.1c-.4.7-3.3 2.9-5.9 4.5-.1-.2-.1-.6-.1-1 0-.6.9-2.7 1.8-3.6h.4c.3 0 .7 0 1.1.1.8.1 1.6.4 1.6.4s-.7-.5-1.5-.8c-.3-.1-.5-.2-.8-.3.2 0 .5-.1.7-.1 1 .1 2.4.4 2.7.8zm-20.6-8.8c-.8.6-1.5 1.2-2.1 1.7l-2.5-9.1c2.6-.1 4.5.1 6.6.2.7 0 1.4.1 2.3.2l.9 3c-1.9 1.4-3.6 2.8-5.2 4zM52 27.7l.7-.1c.9-.2 1.9-.2 2.9-.3 1 0 2-.1 3 0 1 0 2 .1 3.1.1 1 .1 2.1.1 3.1.2s2.1.2 3.1.3c1 .1 2.1.3 3.1.4 1 .1 2.1.3 3.1.5l2.4.4 1.4 3.2c-1.4 1-2.8 2-4.1 3L72.7 32h-.5c-1-.1-1.9-.1-2.8-.2-2.4-.2-4.5-.4-7.7-.2h-.9L63.9 43c-1.6 1.3-3.1 2.5-4.2 3.4-.4.4-.8.7-1.1.9-.8-2.1-2.2-6-3.6-10-1-2.9-1.9-5.8-2.5-8-.2-.5-.4-1.1-.5-1.6zM36.9 40.4c.7-.8 1.4-1.6 2-2.3s1.4-1.5 2.1-2.3c.7-.8 1.4-1.5 2.2-2.2l1.1-1 1.1-1c.8-.6 1.5-1.3 2.3-1.8.2-.1.4-.3.6-.4l.6-.3.5-.3c.1.5.3 1 .5 1.5.7 2.2 1.8 5.1 2.8 8 1.6 4.3 3.3 8.6 4.1 10.4-.9.4-1.9.8-2.8 1.3-.6.3-1.3.7-1.9 1-.2.1-.3.2-.5.3-.5-.6-1-1.1-1.5-1.7-.9-.9-1.9-1.7-2.9-2.5-2.1-1.5-4.6-2.6-7.3-2.9-.3 0-.7-.1-1-.1H36.7l-1.2-2.2c.5-.4.9-1 1.4-1.5zM29 52.6c1.1-1.7 2.7-3 4.6-3.8.9-.4 1.9-.7 3-.9.3 0 .5-.1.8-.1H39.5c2 .2 4 1 5.7 2.2.9.6 1.7 1.3 2.5 2 .5.5 1 1 1.5 1.6-.9 1.1-1.9 2.2-2.7 3.4l-.7-.7c-.4-.3-.9-.6-1.5-.8-.5-.2-1.1-.4-1.7-.5-.3 0-.6-.1-.9-.1H40.9h.1-.9c-.3 0-.7.1-1 .1l-.9.3c-.3.1-.6.2-.9.4-.3.2-.5.3-.8.6-.2.2-.4.4-.6.7-.2.2-.3.5-.5.7-.1.3-.2.5-.3.8-.1.5-.2 1-.3 1.4v1.2c0 .4.1.7.2.9 0 .2.1.4.2.6 0 .1.1.2.1.2v-.2c0-.1-.1-.3-.1-.6v-.9c0-.3 0-.7.1-1.1.1-.4.2-.8.4-1.2.1-.2.2-.4.4-.6.2-.2.3-.4.5-.5.2-.2.4-.3.6-.5l.6-.3c.2-.1.5-.1.7-.2.2 0 .5-.1.7-.1h.7c.3 0 .6.1.9.1.2.1.5.1.7.2.3 0 .5.2.7.2.5.2.9.4 1.2.6.4.2.6.5.9.7.2.2.4.5.5.7.1.2.1.3.2.5-3.2 4.6-6 9.5-7.9 13-.2-.1-.4-.2-.6-.2-.5-.2-.9-.4-1.4-.7-.9-.5-1.8-1.1-2.6-1.8-1.6-1.4-2.8-3.2-3.7-5.1l-.6-1.5c-.1-.3-.2-.6-.3-.8-.1-.2-.1-.5-.2-.7-.2-1-.4-2.1-.4-3.1.1-2.5.6-4.5 1.7-6.1zM85.5 198.8c-.9.2-2 .6-3.1 1.1-.5.3-1 .5-1.5.8-.5.3-.9.6-1.2.8-.3.2-.6.5-.8.6-.2.2-.3.2-.3.2s.1-.1.4-.2.5-.3.9-.4c.4-.2.8-.3 1.3-.5s1-.3 1.5-.4c1.1-.2 2.1-.3 2.9-.3.4 0 .7 0 .9.1H86.8l.2-2.2h-.5c-.2.2-.5.3-1 .4zM137.5 159.1l-2.7-1.1s-.5 2.2-1 4.5c-.2 1.1-.4 2.3-.6 3.1-.1.9-.2 1.4-.2 1.4s.2-.5.6-1.3c.4-.8.9-1.8 1.5-2.7 1.2-2 2.4-3.9 2.4-3.9z"/><path d="M214.1 69v-5.2L214 62l-.2-3.5c-.1-2.3-.4-4.6-.6-6.9l-.9-6.9c-.4-2.3-.7-4.6-1.1-6.9l-.7-3.4-.3-1.7-.2-.9c-.1-.3-.2-.6-.2-.9-.7-2.3-1.5-4.5-2.6-6.6-1-2.1-2.2-4.2-3.6-6.1-.3-.5-.7-1-1-1.4-.4-.5-.7-.9-1.1-1.4l-2.1-2.7c-1.4-1.8-2.8-3.7-4.2-5.5-1.5-1.8-3-3.6-4.9-5.2-1-.8-2.1-1.5-3.6-1.9-.7-.1-1.6-.1-2.3.1-.3.1-.5.1-.9.3-.3.1-.7.3-1 .5-1.2.7-2.2 1.9-2.8 2.8-.3.5-.6.9-.9 1.1-.3.2-.5.4-1 .5l-1.7.4c-.6.2-1.3.4-1.9.7-.6.4-1.2.9-1.7 1.3-.5.5-.8 1-1.2 1.5l-.9 1.5c-.3.5-.6.9-.9 1.3-.1.1-.2.2-.2.3h-.4c-.1 0-.2 0-.3.1h-.1c.1 0-.3.1-.2.1h-.1c-.1 0-.4.2-.6.4-.4.3-.6.5-.9.8-.9 1.1-1.5 2.3-1.9 3.5-.4 1.2-.6 2.5-.7 3.8-.1 2.5.4 5 1.2 7.3.8 2.3 1.8 4.5 3.4 6.5.8 1 1.7 1.9 2.9 2.6.7.4 1.4.8 2.2.9 0 .2-.1.5-.1.7v1.3l.1.7.2.7.3.7.3.6c.3.4.6.8.9 1.1l.1.1.1.1.2.2.2.2.3.2c.2.1.4.3.6.4l.5.3c.7.4 1.4.6 2.2.9.7.2 1.4.5 2.2.6.7.2 1.4.4 2.2.5l.9.2c-.1 1.2-.2 2.5-.3 3.7-.2 1.7-.4 3.3-.6 5-.5 3.3-1.1 6.6-1.9 9.9-.4 1.6-.8 3.3-1.2 4.9-.4 1.6-.9 3.2-1.4 4.8-.3.8-.5 1.6-.8 2.4l-.9 2.4c-.6 1.6-1.2 3.1-1.9 4.7-.6 1.6-1.4 3.1-2.1 4.6-.8 1.5-1.5 3-2.4 4.5-.8 1.5-1.7 2.9-2.6 4.3-.9 1.4-1.8 2.8-2.8 4.1-1 1.4-2 2.7-3.1 4-.5.6-1.1 1.3-1.7 1.9-.5.6-1.1 1.3-1.7 1.9l-1.8 1.8-1.8 1.7-.9.9-1 .8-1.9 1.6h-.2c-.1-.2-.3-.5-.5-.7-.1-.2-.3-.5-.4-.7-.2-.2-.3-.5-.5-.7-.3-.4-.6-.9-.9-1.3-.7-.8-1.3-1.5-2-2.2-.6-.7-1.3-1.2-1.9-1.6l-.9-.6c-.3-.2-.6-.3-.8-.5-.2-.1-.5-.2-.7-.3-.2-.1-.4-.2-.6-.2-.4-.1-.5-.2-.5-.2v-.1c-.1-.6-.3-1.2-.5-1.8-.2-.6-.4-1.2-.6-1.7-.4-1.2-.9-2.3-1.3-3.3-.2-.5-.5-1-.7-1.5-.3-.5-.5-1-.7-1.5-.5-.9-1-1.8-1.5-2.6s-1-1.5-1.4-2.1c-.5-.6-.9-1.1-1.2-1.6l-.3-.3c4.4-5.4 7-10.2 7.1-10.3.2-.4.4-.7.5-1 .3-.5.5-1 .7-1.2.3 0 1 0 1.7.1h.5c2.3.2 3.8 0 4.6-.8.4-.4.6-.9.6-1.4v-.2c-1.6-9.3-7.1-15.3-9-17.1.3-.5.4-1.1.5-1.6.1-.4.1-.7.1-1 0-.3-.1-.7-.1-.9-.1-.3-.1-.5-.1-.5v-.1l-.3-.6c-.1-.2-.3-.4-.5-.7-.2-.2-.5-.5-.8-.7-.6-.5-1.4-.9-2.4-1.2-1-.3-2-.4-3.2-.3-1.2 0-2.3.3-3.6.7-.7.2-1.4.5-2.1.9-.5-.1-1.1-.2-1.6-.2-1 0-2 .2-2.9.5-.9.3-1.8.8-2.5 1.4-.4.3-.7.6-1.1 1l-.9.9c-1.2 1.3-2.2 2.6-3.3 3.8-1.1 1.2-2.2 2.4-3.4 3.5-1.2 1.1-2.4 2-3.8 2.7-.7.4-1.4.7-2.1 1-.4.1-.7.2-1.1.4l-.5.2-.6.1c-.4.1-.7.2-1.1.2l-1.1.1H100c-1.6 0-3.2-.1-4.8-.3-.8-.1-1.7-.2-2.8-.1-1 0-2.3.4-3.2 1.1l-.6.5-.5.5-.5.5-.2.3v.5l-.1.1-.1.1c-.1.2-.2.3-.4.5-.1.2-.3.5-.4.7l-.6 1.2c-.7 1.6-1.3 3.2-1.9 4.8l-1.6 4.7c-1.1 3.1-2.3 6.2-3.8 9s-3.4 5.3-5.8 6.9l-.9.6.1 1.1c.1.6.2 1 .3 1.5.1.5.2.9.3 1.3.3.9.5 1.7.9 2.6.3.9.7 1.6 1.1 2.5l1.2 2.4 1.4 2.3 1.5 2.2c1.1 1.4 2.2 2.7 3.5 4l.9.9c.3.3.6.6 1 .9.7.6 1.3 1.2 2 1.8l2.1 1.6 1 .8 1.1.7 2.2 1.5c.7.5 1.5.9 2.2 1.3.8.4 1.5.9 2.3 1.3.8.4 1.5.8 2.3 1.1 1.6.8 3.3 1.4 5 1.9.8.3 1.7.5 2.6.7.9.2 1.8.3 2.7.4 1.8.2 3.6.2 5.4 0 1.8-.2 3.6-.6 5.3-1.3 1.7-.7 3.3-1.5 4.8-2.6s2.8-2.4 3.9-3.8 2.1-2.9 2.9-4.6c.7-1.5 1.2-3.1 1.5-4.8.6-.1 1.2-.3 1.8-.5.5-.1 1-.3 1.5-.5.3-.1.5-.3.8-.4l.3-.2.2-.1h.2c2.1-1.4 3.3-4.1 3.1-6.9-.1-1.4-.8-3-2-4.1-.6-.5-1.3-1-2.1-1.3-.4-.2-.7-.2-1-.3l-.2-.1H135.6l-.5-.1c-1.4-.2-3.1-.1-4.6.5-1.5.6-2.8 1.7-3.7 2.9-.9 1.2-1.7 2.5-2.3 3.7l-.9 1.9-.9 1.5c-.7 1-1.6 1.8-2.6 2.5s-2.1 1.1-3.3 1.4-2.4.3-3.6.2l-1.8-.3c-.6-.2-1.2-.3-1.7-.5s-1.1-.4-1.6-.7c-.6-.3-1.1-.6-1.7-.9l-1.5-.9c-.2-.1-.4-.2-.6-.4l4.3 1.6v-3l2.8 1.9.4-2.7 12.1-6.2-.7-1.3-12.8 6.5-.2 1.2-3.2-2.1v3.7l-6.5-2.4c-.7-.7-1.4-1.4-1.9-2-1.3-1.5-2.3-3-3.1-4.4-.8-1.4-1.3-2.7-1.7-3.8-.3-.8-.4-1.4-.5-1.9 2.2 3.6 5.2 6.2 8.9 7.4 1.7.5 3.5.8 5.3.8 4.2 0 8.9-1.4 13.5-4.1 4.5-2.6 8.5-6.3 11.7-10 .3.4.8.8 1.2 1.4.5.5 1 1.2 1.5 1.9s1 1.5 1.6 2.3c.3.4.5.9.8 1.3.3.5.6.9.8 1.4.5 1 1 2 1.5 3.1.2.5.5 1.1.7 1.6.2.6.4 1.1.6 1.7.3.8.5 1.6.7 2.4.1.3.2.6.2.9.2.6.3 1.1.3 1.7.1.6.2 1.1.3 1.7.1.5.1 1.1.2 1.6 0 .5.1 1.1.1 1.6.1 1 0 2 0 2.9v1.3c0 .4 0 .8-.1 1.2-.1.7-.2 1.4-.2 1.9-.1 1-.2 1.6-.2 1.6s.1-.6.3-1.6c.1-.5.2-1.1.4-1.9.1-.4.1-.8.2-1.2 0-.4.1-.8.1-1.3.1-.9.2-1.9.2-2.9v-1.6c0-.5 0-1.1-.1-1.7 0-.6-.1-1.1-.1-1.7 0-.6-.1-1.2-.2-1.8v-.2c.2.1.3.1.5.2s.5.3.8.4c.5.4 1.2.7 1.8 1.3.6.5 1.3 1.1 1.9 1.8.3.3.6.7 1 1.1.2.2.3.4.5.6.2.2.3.4.5.6.3.4.6.9.9 1.3.3.5.6.9.9 1.4.3.5.6.9.8 1.4.3.5.5 1 .8 1.5.5 1 .9 2.1 1.4 3.1.2.5.4 1 .6 1.6.2.5.3 1 .5 1.6.3 1 .7 2 .9 3 .2 1 .5 1.9.7 2.7.2.8.3 1.6.5 2.3.1.7.2 1.3.3 1.8.2 1 .3 1.6.3 1.6s-.1-.6-.2-1.6c0-.5-.1-1.1-.2-1.8s-.1-1.5-.3-2.3c-.1-.9-.3-1.8-.5-2.8-.1-1-.4-2-.7-3.1-.1-.5-.2-1-.4-1.5 1.1 1 2.8 2.6 4.7 4.7 1.9 2.1 4.2 4.7 6.6 7.9 1.2 1.6 2.4 3.3 3.6 5.2 1.2 1.9 2.4 3.9 3.5 6 2.2 4.3 4.2 9.2 5.8 14.6 1.6 5.3 2.7 11.1 3.4 17.2.4 3 .6 6.1 1 9.3-.3.2-.7.4-1.2.6-.7.4-1.6.8-2.6 1.3s-2.1 1-3.4 1.6c-.6.3-1.3.6-1.9.9l-2.1.9c-1.4.6-2.9 1.3-4.5 1.9-1.6.7-3.2 1.3-4.9 2-.8.3-1.7.7-2.5 1-.9.3-1.7.6-2.6.9l-5.1 1.8c-1.7.6-3.4 1.1-5 1.7-1.6.5-3.2 1-4.7 1.5s-2.9.9-4.2 1.2c-2.6.7-4.8 1.4-6.4 1.7-1.5.4-2.4.6-2.4.6l.5 2.5s.2 0 .7-.1c.4-.1 1.1-.2 1.9-.3.8-.1 1.8-.3 2.9-.5 1.1-.2 2.4-.5 3.7-.8 1.4-.3 2.8-.7 4.4-1.1 1.5-.4 3.2-.8 4.8-1.3 1.7-.5 3.4-1 5.1-1.6 1.7-.6 3.5-1.2 5.2-1.8.9-.3 1.7-.6 2.6-1 .9-.3 1.7-.7 2.6-1 1.7-.7 3.3-1.4 5-2.1.8-.4 1.6-.7 2.3-1 .8-.4 1.5-.7 2.2-1.1.7-.4 1.4-.7 2.1-1s1.3-.7 1.9-1c1.2-.7 2.4-1.3 3.3-1.8 1-.6 1.8-1.1 2.5-1.5.1 0 .2-.1.2-.1.4 2.3.8 4.6 1.6 7 .6 1.6 1.4 3.3 2.8 4.8.7.7 1.6 1.4 2.5 1.8.3.1.5.2.8.3.3.1.6.2.8.2l.3.1h.4c.3 0 .5 0 .8.1 2 .1 4.1-.5 5.7-1.6 1.6-1.1 2.8-2.7 3.5-4.3.2 1.4.4 2.8.4 4.2 0 1.7-.1 3.3-.5 4.9-.2.8-.4 1.6-.7 2.3-.1.4-.3.8-.4 1.1l-.3.6-13.6 5.3v-.8c0-1-.1-2-.2-3s-.3-2-.5-3c-.1-.5-.2-1-.4-1.5-.1-.5-.3-1-.4-1.4l-.7-1.8-1.4 1.4c-.6.6-1.4 1.2-2.1 1.7-.7.6-1.5 1.1-2.3 1.6-1.6 1-3.2 2-4.8 2.9-1.6.9-3.3 1.8-5 2.6-1.7.8-3.4 1.6-5.2 2.3s-3.5 1.4-5.3 2.1l-2.7.9-2.7.9c-1.8.5-3.6 1.1-5.5 1.6-1.8.5-3.7 1-5.5 1.4-1.9.4-3.7.9-5.6 1.2l-2.8.6-2.8.5c-1.9.4-3.8.6-5.6.9-1.1.2-2.1.3-3.2.5.3-.1.6-.3.9-.4 2.7-1.4 4.5-3.4 5.1-6 .8-3.1 0-6.8-2.4-10.3l-2.4 1.6c1.9 2.8 2.6 5.7 2 7.9-.5 1.7-1.7 3.1-3.7 4.1-5.1 2.6-11.4-2.3-11.5-2.3l-1.8 2.3c.2.2 4.2 3.2 8.9 3.7l-3.4.4-5.7.5-5.7.4-5.7.3h-.6l-.1.6c-.4 2.4-.8 4.7-.9 7.1l1.4.1c.2-2.1.5-4.2.9-6.3l5.2-.2 5.8-.3 5.8-.5 5.7-.6c1.9-.2 3.8-.5 5.7-.7 1.9-.3 3.8-.5 5.7-.9l2.8-.5 2.8-.5 5.7-1.2c1.9-.5 3.7-.9 5.6-1.4 1.9-.5 3.7-1 5.6-1.6l2.8-.9 2.8-.9c1.8-.6 3.6-1.3 5.4-2 1.8-.7 3.6-1.5 5.3-2.3 1.8-.8 3.5-1.7 5.2-2.6 1.7-.9 3.4-1.9 5-3 .8-.5 1.6-1.1 2.4-1.7.3-.2.6-.5.9-.7l.3.9c.3.9.5 1.8.8 2.7.2.9.4 1.9.5 2.8 0 .4.1.8.1 1.2l-1 .4c-.1-.2-.2-.3-.2-.5-.3-.6-.7-1.2-1.2-1.9l-.7-.9-1.1.2c-.5.1-1.1.2-1.6.3-.5.1-1.1.3-1.6.5s-1.1.4-1.6.6c-.5.2-1 .5-1.5.7-.3.1-.5.3-.7.4-.2.1-.5.3-.7.5-.2.2-.5.3-.7.5-.2.2-.5.3-.7.5-.4.4-.9.8-1.3 1.2-.2.2-.4.4-.6.7-.1.1-.2.2-.3.4-.1.1-.2.2-.3.5l-.3.6.2.7.3 1.1c-5 1.8-24.5 8.5-53.2 11.2l-.1-2-.3-.1c-.5-.2-1-.3-1.6-.4-.5-.1-1.1-.2-1.6-.2-.5-.1-1.1-.1-1.6-.1h-1.6c-1.1.1-2.1.2-3.2.4-.5.1-1 .2-1.6.4-.3.1-.5.2-.8.2-.3.1-.5.2-.8.3l-.6.3-.1.7-.3 3.5c0 .6-.1 1.2-.1 1.8l-.1 1.8v3.6l.1 1.8.1.9.1.9.3 1.8.4 1.8c.1.6.3 1.2.5 1.8.1.3.2.6.3 1-4.9.5-18.9 1.8-33.8 1.6.4-.5.8-1.1 1.2-1.6l.7-.9-.7-.9c-.8-.9-1.5-1.9-2.2-2.8-.7-1-1.4-1.9-2.1-2.9-.7-1-1.3-2-1.8-3-.3-.5-.5-1-.8-1.6-.1-.3-.2-.5-.3-.8-.1-.2-.2-.6-.2-.7l-.3-1-1-.1-6-.6-3-.2c-1-.1-2-.1-3-.2l-3-.1c-1 0-2-.1-3 0h-3c-1 0-2 .1-3 .1s-2 .1-3 .2l-3 .3-3 .4-3 .5-3 .6c-1 .2-2 .5-3 .7l-1.5.4-1.5.5c-.5.2-1 .4-1.5.5-.5.2-.9.4-1.5.7l-.6.3-.1.7-.5 2.9c-.2 1-.4 1.9-.5 2.9l-.4 2.9c-.1 1-.3 1.9-.4 2.9l-.3 2.9c-.1 1-.1 1.9-.2 2.9s-.1 1.9-.2 2.9v5.8c0 1 0 2 .1 2.9 0 1 .1 2 .2 2.9.1 1 .1 2 .2 2.9.1 1 .2 1.9.3 2.9.1 1 .3 1.9.4 2.9.2 1 .4 1.9.6 2.9.2 1 .4 1.9.8 2.9l.2.8.8.2c1 .2 2.1.4 3.1.6l1.6.2c.5.1 1 .1 1.6.2.5 0 1 .1 1.6.1l1.6.1h3.2c1 0 2.1-.1 3.1-.1l1.6-.1c.5 0 1-.1 1.6-.2 1-.1 2.1-.3 3.1-.5l1.5-.3c.5-.1 1-.2 1.6-.4h.1l.1-.1c1-.6 2-1.1 3-1.6l1.7 1.7.5.5c.2.2.4.3.6.5.4.4.9.7 1.4 1.1.5.4 1.1.8 1.7 1.2.6.4 1.2.8 1.9 1.2.7.4 1.4.7 2.2 1.1.8.4 1.6.6 2.4 1 .8.4 1.7.6 2.7.8.5.1.9.3 1.4.4s.9.2 1.4.3l1.5.3c.5 0 1 .1 1.5.2.5 0 1 .1 1.5.1h4.6c1 0 2.1-.2 3.1-.3s2-.3 3.1-.5c1-.2 2-.5 3-.7 1-.3 1.9-.5 2.9-.9.9-.3 1.9-.7 2.8-1 1.3-.5 2.6-1.2 3.8-1.9-.1 1.2-.3 3-.3 5.1 0 1.1.1 2.3.3 3.5.1.6.3 1.3.5 2 .3.7.5 1.4 1.2 2.1.3.4.8.7 1.3.9.5.2 1.2.3 1.7.2.5-.1 1-.3 1.4-.5.4-.2.7-.5 1.1-.7.2-.1.3-.2.4-.4l.4-.4c.3-.3.5-.6.8-.9.5-.6.9-1.1 1.3-1.7.9-1.2 1.6-2.3 2.3-3.5.7-1.2 1.4-2.3 2.1-3.4 1.3-2.3 2.5-4.4 3.5-6.2 1-1.9 1.7-3.4 2.3-4.5l.3-.6h.1c.8.1 1.7.2 2.5.4.9.1 1.7.1 2.6.2 1.7.2 3.4.1 5.2.2.9 0 1.7 0 2.6-.1.5 0 1 0 1.5-.1l.8.8c.4.3.7.7 1 1.1l1 1.1.9 1.2.9 1.2.9 1.3.8 1.3c.3.4.5.9.8 1.3.3.5.5.9.7 1.4.2.5.5.9.7 1.4l.6 1.4.6 1.4c.4.9.7 1.9 1 2.9.1.5.3 1 .4 1.5.1.2.1.5.2.8l-.1.1c-.1.1-.2.3-.3.5-.1.2-.2.3-.2.5-.1.2-.1.4-.2.5 0 .2-.1.4-.1.5v1c0 .3.1.6.2.9 0 .1.1.3.1.4h-.1c-.8.3-1.6.9-2.1 1.8s-.5 1.9-.4 2.6l.1.6c0 .2.1.4.2.5.1.4.3.7.4 1 .1.2.2.3.2.5l.1.3c-.2.1-.5.2-.7.3-.7.3-1.4.6-2.1 1.1-.2.1-.4.3-.5.5-.1.1-.2.2-.3.4.1-.1-.1.2-.1.2v.2c-.1.2-.1.6-.2.8v.6c0 .8 0 1.5-.1 2.2v4.3c0 1.4-.1 2.8-.2 4.3 0 .7-.1 1.4-.2 2.1l-.3 2.1c-.1.6-.3 1.4-.4 2.1-.1.3-.1.6-.2.9v.1c-.1.4-.2.7-.3 1.1-.4 1.4-.8 2.7-1.2 4-.2.7-.5 1.3-.8 2-.3.6-.5 1.3-.8 1.9l-.3.5.1.5c.1.4.2.6.3.8.1.2.3.5.4.7.3.4.8.8 1.3 1 .3.1.5.2.8.3.3 0 .5.1.8.1.5 0 1-.1 1.4-.2.9-.2 1.6-.6 2.2-.9.6-.4 1.3-.8 1.9-1.3.3-.2.6-.4.9-.7l.8-.7c.5-.5 1-1 1.6-1.5.5-.5 1-1 1.4-1.6.5-.5.9-1.1 1.3-1.7l1.2-1.8c.4-.6.7-1.2 1.1-1.8.3-.6.7-1.2 1-1.9.3-.6.6-1.3.9-1.9.3-.7.5-1.3.7-2 .2-.7.4-1.4.5-2.1.1-.4.1-.7.2-1.1 0-.3.1-.6.1-.9 1.1 1 2.1 1.9 3.2 2.9l.6.5.7-.4.7-.3c.2-.1.4-.2.6-.4l.6-.5c.2-.1.4-.3.6-.5.2-.2.4-.4.5-.6l.5-.7c.1-.2.2-.5.4-.7.1-.2.2-.5.3-.7.1-.3.1-.5.2-.8 0-.3.1-.5.1-.8v-.8c0-.2 0-.5-.1-.7-.1-.5-.2-1-.3-1.4 0-.1-.1-.2-.1-.3.8-.4 1.5-1 2.1-1.5.9-.8 1.6-1.7 2.3-2.6 1.4-1.8 2.6-3.7 3.8-5.6 1.2-1.9 2.3-3.7 3.6-5.5 1.3-1.8 2.6-3.6 3.9-5.3l8.1-10.5 1-1.3 1-1.3 2.1-2.6 2.1-2.6 2-2.7 2-2.7c.7-.9 1.2-1.9 1.9-2.8l1.8-2.8c.6-.9 1.1-1.9 1.7-2.9l1.7-2.9 1.5-3c1-2 1.9-4.1 2.7-6.2.5-1 .8-2.1 1.2-3.2.4-1.1.8-2.1 1.1-3.2l.9-3.2.8-3.3c.2-1.1.4-2.2.6-3.4.2-1.1.3-2.3.4-3.4.1-2 .2-4 .1-6.2.3-.2.5-.3.8-.5.5-.3.9-.6 1.4-1l.3-.3.1-.4.9-3.1.3-1.6c.1-.5.2-1.1.3-1.6l.2-1.6c.1-.5.1-1.1.1-1.6v-1.6c0-.5-.1-1.1-.1-1.7 0-.3 0-.5-.1-.8l-.1-.8c-.1-.5-.1-1.1-.3-1.6-.1-.5-.2-1.1-.4-1.6s-.4-1.1-.6-1.6c-.2-.5-.4-1-.7-1.5l-.4-.7c-.1-.2-.3-.5-.5-.7-.1-.2-.3-.5-.5-.7-.2-.2-.3-.5-.5-.7l-.4-.4c.1-.4.2-.8.2-1.1.3-1.8.5-3.7.4-5.5-.1-1.8-.3-3.6-.7-5.4-.2-.9-.4-1.8-.7-2.6-.1-.3-.2-.7-.3-1 .2-2 .1-4.1-.1-6-.4-3.4-1.2-6.7-2.1-9.9-2-6.3-4.6-12.2-7.4-17.8-1.3-2.5-2.5-5-3.9-7.4 2.1-3.9 3.9-7.8 5.6-11.7 1.8-4.3 3.5-8.6 5-13s2.8-8.8 4.1-13.3c1.2-4.5 2.3-9 3.2-13.5.9-4.5 1.6-9.1 2.3-13.7.3-2.3.5-4.6.8-6.9.2-2.3.4-4.6.5-6.9L214 76c0-1.2 0-2.3.1-3.5V69zm-82.5-12.5c.9-.3 1.9-.5 2.8-.6.9-.1 1.7 0 2.3.1.7.1 1.2.4 1.5.6.2.1.3.2.4.3.1.1.2.2.2.3.1.2.1.2.1.3 0 .1.1.2.1.4v.8c0 .4-.2 1-.5 1.6-.3.6-.9 1.3-1.5 1.9-.7.6-1.5 1.2-2.5 1.7-.2.1-.5.2-.7.3l-.9.3c-.5.1-1.1.3-1.7.4-1.1.2-2.4.2-3.5-.1-1-.3-1.9-.9-2.2-1.6V63l-.1-.2v-.2c0-.2 0-.4.1-.7.1-.5.3-.9.6-1.4.3-.5.7-.9 1.1-1.3.4-.4.9-.8 1.3-1.1 1.1-.8 2-1.2 3.1-1.6zM119.3 102c-5.9 3.4-11.8 4.5-16.4 3-3.6-1.2-6.3-3.8-8.2-7.8.1-.1.2-.3.3-.4.6-.7 1.2-1.3 1.7-1.9.5-.5.9-1 1.3-1.3l.5-.5s-.3 0-.7.1c-.2.1-.5.1-.8.3-.3.1-.6.3-1 .4-.7.4-1.5.9-2.3 1.5-.4.3-.8.7-1.1 1-.4.4-.7.8-1 1.2-.3.4-.6.9-.9 1.3-.3.5-.5.9-.8 1.3-.2.5-.4.9-.6 1.3-.2.4-.3.8-.4 1.2-.2.8-.3 1.4-.4 1.9 0 .5-.1.7-.1.7s.2-.2.5-.6c.1-.2.3-.4.5-.7s.4-.5.6-.8c.2-.3.4-.6.7-1l.6-.9c.1.4.2.9.4 1.4.4 1.2.9 2.7 1.7 4.2.8 1.6 1.8 3.3 3.2 5 1.4 1.6 3 3.3 5 4.8.2.2.5.4.7.6.3.2.5.4.8.5.5.4 1.1.7 1.7 1.1.5.3 1.1.6 1.7.9.6.3 1.3.6 1.9.9.7.3 1.3.5 2 .7.7.2 1.4.3 2.1.4 1.5.1 3 .1 4.5-.2 1.5-.3 2.9-.9 4.2-1.8 1.3-.8 2.4-1.9 3.4-3.2.5-.6.9-1.3 1.2-2l.9-1.8c.6-1.2 1.3-2.3 2-3.2.7-.9 1.6-1.7 2.6-2.1.9-.4 2-.5 3.1-.4h.5l.2.1c.3.1.7.1.8.2.4.1.8.4 1.1.7.7.6 1.1 1.4 1.3 2.3.3 1.9-.5 3.9-1.8 4.9h-.1l-.2.1-.3.2c-.2.1-.4.2-.5.3-.4.2-.8.4-1.2.5-.9.3-1.7.6-2.6.9-1.7.7-2.9 1.7-3.8 2.5-.5.4-.9.8-1.2 1.2-.3.4-.6.7-.8.9-.4.5-.6.8-.6.8s.3-.2.8-.6c.3-.2.6-.4 1-.7.4-.3.8-.6 1.3-.9.6-.3 1.2-.7 1.9-1-.3.9-.7 1.9-1.1 2.7-.7 1.4-1.6 2.7-2.7 3.9-2.1 2.4-4.7 4.2-7.6 5.3-1.5.5-3 .9-4.5 1-1.5.2-3.1.1-4.7-.1-.8-.1-1.6-.3-2.3-.4-.8-.2-1.5-.4-2.3-.6l-1.1-.4-1.1-.5c-.8-.3-1.5-.6-2.2-.9-.7-.3-1.5-.8-2.2-1.1l-2.1-1.2c-.7-.4-1.4-.8-2.1-1.3l-2-1.4-1-.7-1-.8-1.9-1.5-1.8-1.6c-.3-.3-.6-.5-.9-.8l-.8-.9c-1.1-1.2-2.2-2.4-3.2-3.7l-1.4-2-1.3-2c-.4-.7-.8-1.4-1.1-2.1-.3-.7-.7-1.4-.9-2.2-.3-.7-.5-1.5-.8-2.2-.1-.4-.2-.8-.3-1.1v-.1c1.2-.9 2.2-1.9 3.1-3.1 1.1-1.4 2.1-2.9 2.9-4.5 1.6-3.1 2.8-6.3 4-9.5l1.6-4.8c.5-1.6 1-3.1 1.7-4.5.2-.3.3-.7.5-1l.2-.4s.1-.1.1-.2l.2-.3.3-.4c.1-.1.2-.3.4-.4l.2.3.4-.3c.5-.3.9-.5 1.5-.5s1.4 0 2.2.1c1.7.2 3.4.3 5.2.2h1.9c.3 0 .5 0 .7-.1l1.4-.2c.5-.1.9-.2 1.3-.3l.7-.2.6-.2c.4-.2.9-.3 1.3-.5.8-.4 1.7-.7 2.4-1.2.1-.1.2-.1.3-.2-.8 1.6-1.8 3.4-2.9 5.1l-.6.9c-.2.4-.4.7-.6 1-.3.7-.5 1.5-.5 2.2-.1 1.5.4 2.8 1 3.7.6 1 1.3 1.6 1.7 2 .5.4.8.6.8.6s-.3-.2-.7-.7c-.4-.5-1-1.2-1.4-2.1-.4-1-.7-2.2-.5-3.4.1-.6.3-1.2.7-1.8.2-.3.4-.5.5-.8l.7-.8c2-2.2 3.6-4.7 4.7-6.6.6-1 1-1.8 1.3-2.4.1-.3.3-.5.3-.7 1-1 1.9-2.1 2.8-3.1 1.1-1.3 2.1-2.7 3.1-3.9.2-.3.5-.6.8-.9.2-.2.5-.5.8-.7.5-.5 1.2-.8 1.8-1.1.1 0 .2-.1.3-.1-.5.5-.9 1-1.2 1.6-.4.7-.7 1.5-.9 2.3-.1.4-.1.9 0 1.4 0 .3.1.5.1.8l.2.6c.4.9 1 1.6 1.8 2.1.7.5 1.5.8 2.3.9 1.5.3 3 .3 4.4 0 .7-.1 1.3-.3 2-.5l.9-.3c.3-.1.6-.3.9-.4l.3.3c.5.6 1.2 1.4 1.7 2.4.6.9 1 2 1.4 2.8s.5 1.3.5 1.3 0-.6-.1-1.4c-.1-.9-.2-2-.5-3.2-.2-1.2-.6-2.3-1-3.2 0-.1-.1-.2-.2-.4.3-.2.5-.4.7-.6.3-.2.6-.5.8-.8 1.8 1.8 6.1 6.8 7.7 14.2h-2.3c-3.2-.3-3.8-.2-5.3 2.6-.1.3-.3.6-.5.9.1.4-8 15-19.4 21.6zm50-89.5zM98.2 265.1v-.3c2.5-.2 4.6-.4 6.3-.5v.1c.1.5.2 1 .4 1.6l.6 1.8c.1.3.3.6.4.9.2.3.3.5.5.8.2.2.3.5.5.7.2.2.3.4.5.6l.5.5c.1.1.3.2.4.3l.3.3-.3-.3c-.1-.1-.2-.2-.3-.4-.1-.2-.2-.3-.3-.5l-.3-.6c-.1-.2-.2-.5-.3-.7-.1-.3-.2-.5-.3-.8-.1-.3-.1-.6-.2-.9-.1-.6-.2-1.2-.2-1.7v-1.5-.1c.6-.1 1-.1 1.4-.1.2.5.5.9.7 1.4l.5.8c.2.3.4.5.6.8.2.3.4.5.6.8.3.3.4.5.8.8l.2.2h.3l1.5.3.8.1c.3 0 .5.1.8.1.5 0 1 .1 1.6 0h.8l.8-.1c.3 0 .5-.1.8-.1.3 0 .5-.1.8-.2s.5-.1.8-.2c.3-.1.5-.2.8-.3.2-.1.5-.2.7-.4s.5-.3.7-.4c.2-.1.5-.3.7-.5l.7-.7.3-.4c.3.3.7.5 1.1.8.4.2.8.5 1.3.8.2.1.5.2.7.3s.5.2.7.3c.5.2.9.3 1.4.5.5.2.9.2 1.4.3.5.1.9.1 1.3.1h1.2c.4 0 .7 0 1-.1.3 0 .5-.1.8-.1.4-.1.6-.1.6-.1h-2.5c-.4 0-.7 0-1.1-.1-.4-.1-.8-.1-1.2-.3-.4-.1-.9-.2-1.3-.5l-1.2-.6c-.2-.1-.4-.2-.6-.4-.2-.1-.4-.3-.6-.4-.4-.2-.7-.6-1-.8l-.9-.9c-.3-.3-.5-.6-.7-.8-.3-.3-.5-.6-.7-.9 10.6-.7 21.2-2.4 30.1-4.3.1.4.2.8.2 1.3.1.8.2 1.7.1 2.7-.1 1-.4 2-1.1 2.8-.3.4-.7.7-1.2 1-.5.3-.9.5-1.4.5-.5 0-1 0-1.4-.2-.4-.2-.8-.5-1.1-.7-.6-.6-1-1.2-1.2-1.6-.2-.4-.4-.7-.4-.7s.1.3.3.7c.2.4.5 1.1 1.1 1.7.3.3.7.6 1.1.9.5.2 1 .4 1.6.4.6 0 1.1-.2 1.7-.4.5-.3 1-.6 1.4-1 .9-.9 1.3-2 1.6-3.1.2-1.1.2-2.1.2-3 0-.5-.1-1-.1-1.4 7.8-1.7 14.2-3.4 18-4.5v1.3c0 .4 0 .7-.1 1.1-.1.8-.2 1.6-.4 2.4l-.3 1.2c-.1.4-.2.8-.4 1.2-.1.4-.3.7-.5 1.1-.1.3-.3.6-.5.9-.2.3-.3.5-.4.8-.1.2-.3.4-.4.6-.2.3-.3.5-.3.5s.1-.2.4-.4l.5-.5c.2-.2.4-.4.6-.7s.4-.5.6-.9c.2-.3.4-.6.6-1 .2-.4.4-.7.6-1.1.2-.4.4-.8.5-1.2.3-.8.6-1.7.8-2.5l.3-1.2c0-.2.1-.4.1-.7l1.3.1c.4 0 .9.1 1.3.1h1.3c.8 0 1.7-.1 2.5-.2s1.7-.3 2.5-.5l1.2-.3.6-.2c.2-.1.4-.1.6-.2l.7-.3.2-.8c.3-1.2.5-2.4.7-3.6l1.7-.4 1.5-.4c.1 0 .2-.1.3-.1-.2.7-.5 1.6-1 2.6-.6 1.4-1.6 3.1-3 4.8-1.4 1.7-3.1 3.5-5.2 5.3-2.1 1.8-4.5 3.5-7.2 5.2-2.7 1.7-5.7 3.2-8.8 4.7-1.6.8-3.2 1.5-4.8 2.2-.8.4-1.7.7-2.5 1-.8.4-1.7.7-2.5 1-3.4 1.2-7 2.2-10.6 2.9-7.2 1.5-14.7 2.1-21.6 2.1-3.5 0-6.8-.2-10-.5s-6.1-.8-8.7-1.6c-1.3-.4-2.5-.8-3.5-1.4-.9-.5-1.6-1.4-2.1-2.3-1.1-1.8-1.4-3.7-1.6-5.3-.2-2.1-.1-3.3-.1-4.2zm75.1-32.5c0 .2.1.4.1.6l.3 1.5.3 1.5.3 1.5c.2 1 .3 2.1.4 3.1.2 2.1.4 4.2.4 6.3V250.4c-5.1 1.6-29.2 8.5-53.1 9.8l-.3-1.1c-.3-1-.5-2.1-.8-3.2-.1-.5-.2-1.1-.3-1.6l-.3-1.6c-.2-1.1-.3-2.2-.5-3.2-.1-1.1-.2-2.2-.4-3.2-.1-.8-.1-1.6-.2-2.4 28.8-2.7 48.5-9.3 54.1-11.3zm2.2-4.5c.3-.3.7-.6 1-.8.2-.1.4-.2.6-.4l.6-.3.6-.3.6-.3c.4-.2.8-.3 1.3-.5.2-.1.5-.2.7-.2.4.5.9 1.1 1.2 1.8.2.4.4.9.6 1.3.1.2.1.4.2.6.1.2.1.4.1.6.1.4.1.7.2.9v0c0-.2.1-.5.1-.9v-.6-.7c0-.5-.1-1-.3-1.6-.1-.6-.4-1.2-.6-1.8h.5c.1.1.2.3.3.5.3.5.5 1 .8 1.5.2.5.4 1.1.6 1.6.2.5.3 1.1.5 1.7.1.6.3 1.1.3 1.7.1.6.1 1.2.2 1.8 0 .6 0 1.2.1 1.8v1.9c0 1.2-.1 2.5-.2 3.7-.1 1.2-.2 2.5-.3 3.7-.1 1.2-.3 2.5-.4 3.7-.1 1-.3 1.9-.4 2.9l-.2.1c-.4.1-.7.2-1 .3-.6.2-1.3.3-2 .4v-.7c0-1.5-.1-3.5-.3-5.4-.2-1.9-.5-3.9-.8-5.3-.1-.7-.3-1.3-.4-1.7-.1-.4-.1-.6-.1-.6v.7c0 .4.1 1 .1 1.8.1 1.4.1 3.4.1 5.3s-.2 3.8-.5 5.2c-.1.4-.1.7-.2 1H178v-.2-1.6-3.2c-.1-2.2-.2-4.3-.5-6.5-.1-1.1-.3-2.2-.4-3.2-.1-.5-.2-1.1-.3-1.6-.1-.5-.2-1.1-.3-1.6l-.4-1.6c-.1-.5-.3-1.1-.4-1.6-.1-.5-.3-1.1-.5-1.6l-.3-.8c.3-.6.5-.8.6-.9zm-65.7 12.8c.9-.2 1.9-.4 2.8-.5.4 0 .7-.1 1.1-.1 0 .4-.1.8-.1 1.3-.1 1.5 0 3.6.1 5.6.1 1 .2 2 .3 2.9.1.9.3 1.8.4 2.5.1.7.3 1.4.4 1.8.1.4.1.7.1.7v-.7c0-.4-.1-1.1-.1-1.8V250c0-.9 0-1.9.1-2.9.1-2 .4-3.9.6-5.4.1-.6.2-1.1.3-1.4.4 0 .8.1 1.2.1.4 0 .7.1 1.1.2 0 .8-.1 1.6-.1 2.4 0 1.1 0 2.2.1 3.3 0 1.1.1 2.2.2 3.3l.3 3.3.2 1.7c.1.5.2 1.1.3 1.7l.6 3.3.4 1.6c.1.5.3 1.1.5 1.6s.3 1.1.5 1.6l.3.8c-.1.1-.3.2-.4.3-.2.1-.4.2-.5.3-.2.1-.4.2-.6.2-.2.1-.4.1-.6.2-.2.1-.4.1-.6.2-.2.1-.4.1-.6.1-.2 0-.4.1-.6.1h-1.2c-.4 0-.9-.1-1.3-.1-.2 0-.4-.1-.7-.1l-.7-.1-1-.2-.3-.3c-.2-.2-.3-.4-.5-.6-.1-.2-.3-.4-.4-.6l-.4-.7c-.2-.5-.5-.9-.7-1.4l-.6-1.5c-.2-.5-.4-1-.5-1.6-.1-.5-.3-1.1-.4-1.6l-.3-1.6c-.1-.5-.2-1.1-.2-1.7l-.1-.8-.1-.9-.2-1.7c0-.6 0-1.1-.1-1.7 0-.6-.1-1.1-.1-1.7V246v-1.7l.1-2.7c.2-.1.4-.1.6-.2.5-.3 1-.4 1.4-.5zm-42.4 14.3c.7 1.1 1.4 2.1 2.2 3.1.5.7 1.1 1.4 1.6 2.1-.7.9-1.3 1.9-2 2.8l-2.4 3.9c-.4.7-.8 1.3-1.2 2-.4.7-.8 1.3-1.1 2l-1.1 2-1 2c-.4.7-.7 1.4-1 2-.3.7-.7 1.4-1 2l-.9 2.1-.9 2.1-.9 2.1-.8 2.1c-.5 1.3-.9 2.6-1.4 3.8-1 .3-2.1.6-3.1.9-1.2.4-2.3.8-3.5 1.2-1.6.6-3.2 1.3-4.7 2v-.3c.1-1.5.3-3.6.6-6.2.4-2.6.9-5.5 1.8-8.6.4-1.6.9-3.2 1.5-4.8.5-1.6 1.2-3.2 1.8-4.8.7-1.6 1.4-3.2 2.2-4.7.8-1.5 1.6-3 2.5-4.3.8-1.4 1.7-2.7 2.6-3.9.5-.6.9-1.2 1.3-1.7s.9-1.1 1.3-1.6c.8-1 1.6-1.9 2.3-2.7.7-.8 1.4-1.4 1.9-2l.4-.4.3.6c.3.6.6 1.2.9 1.7.4 1.3 1.1 2.4 1.8 3.5zm-28 41.8c-1 .1-2 .3-3 .4-.5 0-1 .1-1.5.1l-1.5.1h-4.5c-.5 0-1 0-1.5-.1l-1.5-.1c-.5 0-1-.1-1.5-.2s-1-.1-1.5-.2l-1.5-.3c-.7-.1-1.4-.3-2.1-.4-.2-.6-.3-1.3-.5-1.9-.2-.9-.4-1.9-.5-2.8-.2-.9-.3-1.9-.4-2.8-.1-.9-.2-1.9-.3-2.8-.1-.9-.2-1.9-.2-2.8-.1-.9-.1-1.9-.1-2.8 0-.9-.1-1.9-.1-2.9v-2.9l.1-2.9c0-.9.1-1.9.2-2.9.1-.9.1-1.9.2-2.8l.3-2.8c.1-.9.2-1.9.4-2.8l.4-2.8c.1-.9.3-1.9.5-2.8l.4-2.1c.2-.1.4-.2.6-.2.4-.2.9-.3 1.3-.5l1.4-.5 1.4-.4c.9-.3 1.9-.5 2.8-.7.9-.2 1.9-.4 2.9-.6l2.9-.5 2.9-.4c1-.1 1.9-.2 2.9-.3s1.9-.1 2.9-.2c1 0 1.9-.1 2.9-.1h5.8l2.9.1c1 0 2 .1 2.9.2l2.9.2 3.9.2c-.6.5-1.2 1.2-1.9 1.9-.8.8-1.6 1.7-2.5 2.6-.4.5-.9 1-1.4 1.6-.5.6-.9 1.1-1.4 1.7-.9 1.2-1.9 2.5-2.8 3.9-.9 1.4-1.8 2.9-2.7 4.4-.9 1.5-1.7 3.1-2.4 4.7s-1.4 3.2-2 4.9c-.6 1.6-1.2 3.3-1.7 4.9-1 3.2-1.7 6.2-2.1 8.9-.5 2.6-.7 4.9-.9 6.4-.1.7-.1 1.3-.1 1.7h-.3c-.4.2-.9.3-1.4.4zm64.7 5.7L102 306c-.4.6-.7 1.1-1.1 1.7-.4.6-.8 1.1-1.2 1.6-.4.5-.8 1-1.2 1.6-.2.3-.4.5-.6.7l-.3.3c-.1.1-.3.3-.4.3-.4.3-.8.6-1 .6H96s-.1-.1-.3-.2c-.2-.2-.5-.7-.7-1.2-.2-.5-.3-1-.5-1.5-.2-1.1-.4-2.1-.5-3.1-.1-1-.1-1.9-.2-2.7V302v-1.4c1.2-.8 2.2-1.7 3.1-2.5 1.1-1.1 2.1-2.2 2.9-3.2.8-1 1.4-1.9 1.8-2.8.3-.6.6-1.1.8-1.5 1.7.5 3.5 1 5.3 1.4.8.2 1.6.3 2.4.5.1 0 .2 0 .3.1-.5.8-1.2 1.9-2 3.3-.2.2-.4.5-.7.8-.7.8-1.6 1.7-2.5 2.7-1 .9-2 1.9-2.8 2.5-.4.3-.7.6-1 .8-.2.2-.4.3-.4.3l.4-.2c.3-.1.7-.3 1.1-.5.9-.5 2-1.1 3.1-1.8-.4.5-1 1.4-1.5 2.2zm42.6 34c0 .3-.1.6-.2.9 0 .3-.1.6-.2.9-.1.3-.1.6-.3.9-.2.6-.4 1.2-.6 1.9-.2.6-.5 1.2-.8 1.8l-.9 1.8c-.3.6-.6 1.1-1 1.7-.7 1.1-1.4 2.2-2.3 3.2l-1.2 1.5c-.4.5-.9 1-1.3 1.4-.5.5-.9.9-1.4 1.3l-.8.7c-.2.2-.5.4-.7.6-.5.4-1 .7-1.5 1-.5.3-1 .5-1.5.7-.5.1-.9.1-1 0-.1 0-.2-.1-.3-.2.2-.5.4-.9.6-1.4.3-.7.5-1.4.8-2.1.5-1.4.9-2.8 1.3-4.3 0-.2.1-.3.1-.5 0 0 .4-.9.8-2.2.5-1.3 1-3.1 1.4-4.8.5-1.8.8-3.6 1-4.9.1-.7.2-1.2.2-1.6 0-.4.1-.6.1-.6s-.1.2-.2.6c-.1.4-.3.9-.5 1.5-.4 1.1-1 2.6-1.7 4v-.3c.1-1.5.1-2.9.1-4.4 0-1.5-.1-2.9-.1-4.3v-2.9c.1-.1.2-.2.3-.2.5-.4 1.1-.7 1.7-1 .3-.2.6-.3.9-.5.3.3.5.7.8 1 .4.5.8 1 1.3 1.4.4.5.9.9 1.3 1.4 1.9 2 3.9 3.9 5.9 5.8l-.1.2zm57-89.4c-.1 1.1-.2 2.1-.3 3.2-.2 1.1-.3 2.1-.5 3.2l-.6 3.2-.8 3.1c-.2 1.1-.6 2.1-.9 3.1-.4 1-.6 2.1-1.1 3.1-.8 2-1.6 4.1-2.5 6l-1.4 3-1.6 2.8c-.5.9-1 1.9-1.6 2.9l-1.7 2.8c-.6.9-1.1 1.9-1.8 2.8l-1.9 2.7-1.9 2.7-2.1 2.6-1.2 1.4c-.4.4-.9.8-1.4 1.3-.7.6-1.6 1.4-2.6 2.1-1 .7-2.1 1.5-3.2 2.2-.5.4-1.1.7-1.7 1.1-.5.4-1.1.7-1.7 1-.5.3-1.1.6-1.6.8-.5.3-1 .5-1.4.7-.5.2-.9.4-1.2.6-.4.1-.7.3-1 .4-.5.2-.9.3-.9.3s.3-.1.9-.2c.3-.1.6-.2 1-.3.4-.1.8-.3 1.3-.4.5-.1 1-.4 1.5-.6.5-.2 1.1-.4 1.7-.7.6-.2 1.2-.5 1.8-.8l1.8-.9c.9-.5 1.8-.9 2.6-1.4-2.4 3-4.7 6.1-7 9.2l-3.9 5.4c-1.3 1.8-2.5 3.7-3.6 5.6-1.2 1.9-2.4 3.7-3.7 5.4-.7.8-1.4 1.6-2.1 2.3-.6.5-1.2 1-1.9 1.3-.2-.2-.5-.4-.8-.7-.9-.7-2.1-1.6-3.3-2.5-2.4-1.8-4.8-3.5-4.8-3.5s2.1 2.1 4.1 4.3c1 1.1 2 2.2 2.7 3 .4.4.7.8.9 1v.1c0 .1.1.3.2.5s.1.4.2.5c.1.4.2.7.2 1.1v1c0 .2 0 .4-.1.5 0 .2 0 .3-.1.5s-.1.3-.2.5l-.2.5-.3.4c-.1.1-.2.2-.3.4-.1.1-.2.3-.4.4l-.4.3c-.1.1-.2.1-.3.2l-4.8-4.5c-.9-.9-1.8-1.7-2.7-2.6-.9-.9-1.7-1.8-2.6-2.7-.4-.5-.8-.9-1.2-1.4-.4-.5-.8-.9-1.2-1.4-.4-.5-.8-.9-1-1.4-.1-.2-.3-.5-.4-.7l-.2-.4c-.1-.1-.2-.3-.2-.4-.2-.4-.4-.9-.4-1.4 0-.4 0-.8.1-1 .1-.2.3-.4.7-.5.4-.1.8-.2 1.2-.1l2.9.3-1.7-2.5-.1-.2c0-.1-.1-.2-.1-.2-.1-.2-.2-.3-.3-.5s-.1-.3-.2-.5c0-.2-.1-.3-.1-.5v-.4-.2-.2s0-.1.1-.1l.1-.1c0-.1.2-.2.3-.3l.6-.8-.1-.6c-.1-.6-.2-1.1-.4-1.6-.1-.5-.3-1.1-.4-1.6-.3-1-.7-2.1-1-3.1l-.6-1.5-.6-1.5c-.2-.5-.5-1-.7-1.5-.2-.5-.5-1-.7-1.5s-.5-1-.8-1.4l-.8-1.4-.9-1.4c-.3-.5-.6-.9-.9-1.4l-1-1.3-.6-.8c.1.1.3.2.5.2.5.3 1 .5 1.6.8.6.2 1.2.5 1.9.7.7.2 1.4.4 2.2.6.8.1 1.6.3 2.4.4.8.1 1.6.2 2.5.2h2.5c.8 0 1.6 0 2.4-.2.8-.1 1.5-.2 2.2-.3.7-.1 1.3-.2 1.9-.4.6-.1 1.1-.2 1.6-.4.5-.1.9-.2 1.2-.3.7-.2 1.1-.3 1.1-.3s-.4.1-1.1.2c-.4 0-.8.1-1.3.2s-1 .2-1.6.2c-.6.1-1.3.1-1.9.2-.7 0-1.4 0-2.2.1h-2.3c-.8 0-1.6-.1-2.4-.2-.8-.1-1.6-.2-2.3-.4-.8-.1-1.5-.4-2.2-.5-.7-.2-1.4-.4-2-.7-.6-.2-1.2-.5-1.7-.8-.1-.1-.3-.1-.4-.2 1.4-.2 2.7-.5 4-.8 1.7-.4 3.3-.7 4.9-1.3 1.6-.5 3.2-.9 4.7-1.5.8-.3 1.5-.5 2.3-.8.4-.1.7-.3 1.1-.4.4-.1.7-.3 1.1-.5l4.2-1.8c2.6-1.4 5.2-2.5 7.4-3.9 1.1-.7 2.2-1.3 3.2-1.9 1-.7 1.9-1.3 2.8-1.9.9-.6 1.7-1.1 2.4-1.6s1.4-1 2-1.5c2.4-1.8 3.7-2.9 3.7-2.9s-1.5.8-4.1 2.3c-.6.4-1.4.8-2.1 1.2-.8.4-1.6.9-2.6 1.4-.9.5-1.9 1-2.9 1.6-1 .5-2.1 1-3.3 1.6-1.1.6-2.3 1.2-3.6 1.7-1.3.5-2.5 1.1-3.9 1.7-1.4.5-2.8 1-4.2 1.6-1.4.5-2.9 1-4.4 1.5-1.5.5-3 .9-4.6 1.3-1.6.5-3.2.7-4.8 1.1-3.2.7-6.5 1.1-9.9 1.4-.8.1-1.7.1-2.5.1s-1.7.1-2.5.1c-1.7 0-3.3 0-5-.1-3.3-.1-6.5-.6-9.6-1.1-3.1-.6-6-1.3-8.8-2.2-2.7-.9-5.3-1.9-7.6-2.9s-4.4-2.1-6.2-3.1c-1.8-1-3.3-2-4.6-2.8-2.5-1.7-3.8-2.8-3.8-2.8s.3.3.8.9c.6.6 1.4 1.4 2.5 2.4 1 .9 2.3 1.9 3.8 3-.5.2-1.1.5-1.8.7-.9.3-1.9.6-3.1.8l-1.8.3c-.6.1-1.2.1-1.9.1h-1.9c-.6 0-1.2-.1-1.8-.2-.6-.1-1.1-.2-1.7-.3-.5-.1-1-.3-1.5-.4-.5-.1-.9-.2-1.2-.4-.4-.1-.7-.3-.9-.4-.5-.2-.8-.3-.8-.3s.3.1.8.4c.3.1.6.3.9.4.3.2.8.3 1.2.5.5.2.9.4 1.5.5.5.1 1.1.3 1.7.4.6.1 1.2.3 1.8.3.6.1 1.3.2 1.9.2h1.9c.6 0 1.3-.1 1.9-.1 1.2-.1 2.3-.4 3.3-.6.9-.2 1.7-.5 2.3-.7.2-.1.4-.2.5-.2.6.4 1.2.8 1.9 1.2.5.3 1 .6 1.6.9.5.3 1.1.6 1.7.9.8.4 1.6.9 2.5 1.3 0 .2-.1.5-.2.8-.2.9-.5 2-.8 3.1-.3 1.1-.7 2.2-1.1 3.1-.2.4-.3.7-.5 1l-.2.4s.1-.1.2-.3.4-.5.6-.9c.5-.8 1-1.8 1.5-2.9.5-1.1 1-2.2 1.3-3 .1-.2.1-.4.2-.5 1.2.6 2.5 1.1 3.9 1.6.7.3 1.4.5 2 .7-.2.3-.4.7-.6 1.2-.4.7-1 1.6-1.7 2.5-.7.9-1.6 1.9-2.7 2.9s-2.3 1.9-3.7 2.8c-1.4.9-3 1.7-4.7 2.3-.9.4-1.8.6-2.6.9-.9.3-1.8.5-2.8.8-.9.2-1.9.4-2.9.6-1 .1-1.9.3-2.9.4-1 .1-1.9.2-2.9.2s-1.9.1-2.9 0c-.5 0-1 0-1.4-.1-.5 0-.9-.1-1.4-.2-.5-.1-.9-.1-1.4-.2-.5-.1-.9-.2-1.4-.3-.5-.1-.9-.2-1.3-.3-.4-.1-.9-.2-1.3-.4-.8-.3-1.7-.5-2.4-.8-.8-.3-1.5-.6-2.2-.9-.7-.4-1.4-.7-2-1-.6-.3-1.2-.8-1.7-1.1-.5-.4-1.1-.7-1.5-1.1-.5-.4-.9-.7-1.3-1-.2-.2-.4-.3-.6-.5l-.5-.5c-.3-.3-.6-.6-.8-.9.2-.1.4-.1.5-.2 1.1-.5 2.2-.9 3.4-1.3 1.1-.4 2.3-.8 3.4-1.2l.4-.1.2-.4c.6-1.4 1.1-2.8 1.7-4.2l.9-2.1c.3-.7.6-1.4.9-2 .3-.7.6-1.4.9-2l1-2c.3-.7.7-1.3 1-2 .4-.7.7-1.3 1.1-2l1.1-1.9 1.1-1.9c.4-.6.8-1.3 1.2-1.9.4-.6.8-1.3 1.2-1.9.6-.9 1.2-1.9 1.9-2.8v.1h4.5c7.9 0 15.5-.4 21.4-.8-.1.9-.2 2.2-.1 3.9.1 1.7.5 3.8 1.6 6 .3.5.7 1.1 1.1 1.6l.3.4.4.4c.3.3.6.5.9.7 1.2.7 2.5 1.2 3.9 1.7 2.8.9 5.8 1.4 9.1 1.8 3.2.4 6.7.6 10.2.7 3.5 0 7.2-.1 10.9-.4 3.7-.3 7.5-.8 11.2-1.6 3.7-.8 7.4-1.8 10.9-3.1.9-.3 1.8-.7 2.6-1 .9-.4 1.7-.7 2.5-1.1 1.7-.7 3.3-1.5 4.9-2.3 3.2-1.6 6.2-3.2 9-5 2.8-1.7 5.3-3.6 7.4-5.5 2.2-1.9 4-3.8 5.4-5.7 1.4-1.9 2.5-3.7 3.1-5.3.7-1.6 1-2.9 1.2-3.8v-.2c.7-.2 1.3-.4 2-.6 1-.3 1.9-.7 2.9-1 .5-.2.9-.4 1.4-.6.5-.2.9-.4 1.4-.6.9-.4 1.7-.8 2.6-1.2.4 1.6.4 3 .4 4.3zm3.8-27.9c.2.4.4.9.6 1.4s.3.9.5 1.4c.1.5.2 1 .3 1.4.1.5.1 1 .2 1.5l.1.7v2.2l-.1 1.5c0 .5-.1 1-.2 1.5l-.2 1.5c-.1.5-.2 1-.4 1.5l-.4 1.5-.8 2.5c-.2.2-.5.4-.8.5-.4.3-.8.5-1.2.8-.8.5-1.7.9-2.5 1.4-.9.4-1.8.9-2.6 1.2-.4.2-.9.4-1.4.6-.5.2-.9.4-1.4.5-.9.4-1.8.7-2.8 1-.9.3-1.9.6-2.8.9-.5.1-.9.3-1.4.4l-1.4.4-.5.1c0-.3.1-.6.1-.8.2-1.3.3-2.6.5-3.8l.3-3.9c0-.7 0-1.3.1-1.9v-2c0-.7-.1-1.4-.2-2-.1-.7-.2-1.4-.3-2-.1-.7-.3-1.3-.5-2v-.1l16.5-7.1.6-.2.2-.5c.2-.4.4-.9.5-1.3.1-.2.1-.4.2-.6.1.2.3.4.4.6.1.2.3.4.4.6l.4.6zm-7.2-34.7c.9 3 1.6 6.1 2 9.2.3 3.1.3 6.2-.8 8.8-.5 1.3-1.3 2.4-2.3 3.1-1 .7-2.3 1.1-3.6 1h-.7l-.3-.1c-.2 0-.3-.1-.4-.1-.1 0-.3-.1-.4-.1-.5-.2-1-.6-1.4-1-.9-.9-1.6-2.2-2.1-3.6-1-2.8-1.5-6-2-9-.4-3.1-.7-6.2-1.2-9.3-.8-6.2-2.1-12.1-3.8-17.6-1.7-5.5-3.9-10.5-6.3-14.9-1.2-2.2-2.4-4.3-3.7-6.2-1.3-1.9-2.5-3.6-3.8-5.2-2.5-3.2-4.9-5.8-7-7.8-2.1-2.1-3.8-3.6-4.9-4.6l-1.8-1.5c-.3-.8-.5-1.6-.9-2.4-.2-.5-.4-1.1-.7-1.6-.2-.5-.5-1.1-.8-1.6 0-.1-.1-.1-.1-.2 1.4.6 3.3 1.6 5.5 3 2.4 1.5 5.1 3.6 8.1 6.3 2.9 2.7 6 5.9 9.1 9.7 3.1 3.8 6.1 8.1 9.1 12.9 2.9 4.8 5.7 10 8.4 15.5 2.5 5.4 5 11.2 6.8 17.3zm11.4-112.3c0 1.1 0 2.3-.1 3.4l-.2 3.4c-.1 2.3-.3 4.6-.5 6.8-.2 2.3-.5 4.6-.7 6.8-.3 2.3-.6 4.5-1 6.8s-.8 4.5-1.2 6.8c-.9 4.5-2 8.9-3.2 13.4-1.2 4.4-2.6 8.8-4.1 13.1-1.5 4.3-3.2 8.6-5.1 12.7-1.5 3.3-3.1 6.7-4.8 9.9-1.1-1.8-2.1-3.6-3.2-5.3-3.1-4.8-6.3-9.2-9.6-13-3.2-3.8-6.5-7-9.6-9.7-3.1-2.6-6-4.7-8.6-6.2-1.6-1-3.1-1.7-4.3-2.3l.7-.6 1-.8 1-.9 1.9-1.8 1.8-1.9c.6-.6 1.2-1.3 1.8-1.9.6-.7 1.2-1.3 1.7-2 1.1-1.4 2.2-2.7 3.2-4.1 1-1.4 2-2.8 3-4.3.9-1.5 1.9-2.9 2.7-4.5.9-1.5 1.6-3.1 2.4-4.6.7-1.6 1.5-3.1 2.2-4.7.7-1.6 1.3-3.2 1.9-4.8l.9-2.4c.3-.8.5-1.6.8-2.5.5-1.6 1-3.3 1.5-5 .5-1.7.9-3.3 1.3-5 .8-3.4 1.4-6.8 1.9-10.2.3-1.7.5-3.4.6-5.1.1-1.4.3-2.8.3-4.2.7-.2 1.6-.5 2.5-.8 1-.3 1.9-.7 2.7-.9s1.2-.5 1.2-.5h-1.3c-.8 0-1.8 0-2.8-.1-1 0-2-.1-2.8-.2h-.7l-1-.2-1-.2c-.7-.1-1.4-.3-2-.5-.7-.2-1.3-.4-2-.6-.6-.2-1.3-.5-1.8-.7l-.4-.2-.3-.2s-.1 0-.2-.1l-.2-.2-.2-.2-.1-.1c-.2-.2-.3-.4-.5-.5 0-.1-.1-.2-.2-.3l-.1-.3-.1-.4-.1-.4v-.8c0-.3.1-.6.1-.9 0-.1.1-.3.1-.5.2-.2.5-.4.9-.7.8-.6 1.9-1.5 3.2-2.5.7-.5 1.4-1 2.2-1.5.8-.5 1.6-1 2.5-1.5.4-.2.9-.5 1.3-.6.2-.1.4-.2.7-.2l.3-.1.4-.1c.3-.1.5 0 .7-.1h.6c.4 0 .8.2 1.1.4.6.4 1.1 1.1 1.3 1.9.1.4.1.9 0 1.3v.2s0-.1 0 0v.1l-.1.4c-.1.2-.1.4-.2.6-.4.8-.9 1.6-1.6 2.3-.6.7-1.3 1.2-2 1.7s-1.3.9-1.9 1.1c-.6.3-1.2.6-1.6.7-.5.2-.8.3-1.1.4-.3.1-.4.1-.4.1h.4c.3 0 .7 0 1.2-.1s1.1-.2 1.8-.4 1.5-.5 2.3-.8c1.6-.8 3.4-2 4.7-4.1.2-.3.3-.6.4-.9l.1-.4v-.2c.3.2.7.5 1.1.9l.6.6c.2.2.4.5.6.7.2.3.4.5.5.8.1.3.3.5.5.8.1.3.3.5.4.8.1.3.2.5.3.7.2.5.3.8.4 1.1.1.3.1.4.1.4v-.5c0-.3 0-.7-.1-1.2 0-.2-.1-.5-.1-.8-.1-.3-.1-.6-.2-.9l-.3-.9c-.1-.3-.2-.6-.4-.9-.1-.3-.3-.6-.4-.9-.2-.3-.3-.6-.5-.9-.4-.5-.8-1-1.1-1.4-.3-.3-.6-.6-.9-.8-.1-.8-.3-1.5-.8-2.3.1 0 .1-.1.2-.1.7-.5 1.3-1 1.8-1.6 1-1.2 1.7-2.5 2.1-4 .2-.7.3-1.4.3-2.2 0-.4 0-.7-.1-1.1-.1-.3-.1-.6-.2-.9-.3-1.3-.9-2.5-1.7-3.4s-1.7-1.4-2.5-1.8c-.8-.4-1.6-.5-2.2-.6-.6-.1-1.1-.1-1.5-.1h-.5s.2 0 .5.1.8.2 1.4.4c1.1.4 2.8 1.2 3.9 2.7.5.8.9 1.8 1.1 2.8 0 .2.1.6.1.9v.8c0 .5-.2 1.1-.4 1.7-.4 1.1-1 2.2-1.9 3.2-.4.5-.9.9-1.3 1.2-.2.1-.5.3-.6.3-.2-.1-.4-.2-.7-.3l-.2-.2-.8-.7c-.5-.5-1-.9-1.5-1.4-.9-.9-1.8-1.9-2.6-2.9-.4-.5-.7-1-1-1.5-.3-.6-.6-1.1-.8-1.6-.5-1.1-.9-2.1-1.2-3.1-.6-2-1.1-3.7-1.4-4.9-.3-1.2-.5-1.9-.5-1.9v2c0 1.3.2 3 .6 5.2.2 1.1.5 2.2.9 3.4.2.6.5 1.2.7 1.8.3.6.6 1.2 1 1.8.8 1.2 1.6 2.3 2.7 3.3l.4.4H187.6l-.2.1-.9.3c-.6.2-1.1.5-1.6.7-1.5.8-2.8 1.6-4 2.4-.2-.2-.5-.5-.7-.9-.5-.6-1-1.3-1.5-2.1s-1-1.7-1.5-2.6c-.2-.5-.5-.9-.7-1.4-.2-.5-.4-.9-.6-1.4-.2-.5-.4-.9-.5-1.3-.2-.4-.3-.8-.5-1.2-.3-.7-.5-1.4-.6-1.8-.1-.4-.2-.7-.2-.7s0 .3.1.7c.1.5.2 1.1.3 1.9.1.4.2.8.2 1.3.1.5.2.9.3 1.4.1.5.2 1 .4 1.5.1.5.3 1 .4 1.5.3 1 .7 2 1.1 3 .4.9.8 1.8 1.2 2.6.2.4.4.7.6 1-.9.7-1.7 1.3-2.3 1.8-.3.3-.6.5-.8.7-.2 0-.5-.1-.8-.1-.4-.1-.8-.3-1.2-.5-.8-.5-1.5-1.2-2.2-2-1.3-1.6-2.3-3.6-3-5.6l-.3-.8-.1-.2V26l-.1-.4c-.1-.5-.3-1-.4-1.6-.2-1-.3-2.1-.3-3.1s.2-2.1.5-3c.3-.9.8-1.9 1.4-2.5.1-.2.3-.3.4-.4 0 0-.1 0 .1-.1h.1l.5-.1c.2 0 .6-.2.9-.3.5-.3.7-.6.9-.9.8-1 1.4-2.1 2-3 .6-.9 1.2-1.7 1.9-2.1.7-.4 1.8-.6 3-.9.7-.2 1.5-.5 2.1-1.1.6-.5 1-1.1 1.3-1.6.6-1 1.2-1.6 2-2l.6-.3c.1-.1.5-.2.8-.3.4-.1.7-.1 1.1-.1.8.1 1.7.7 2.5 1.3 1.6 1.3 3.1 3.1 4.5 4.8l4.2 5.4c.7.9 1.4 1.8 2.1 2.8.4.5.7.9 1 1.3.4.4.7.9 1 1.4 1.3 1.8 2.4 3.8 3.4 5.8s1.8 4.1 2.4 6.2c.1.3.1.5.2.8l.2.8.3 1.7.7 3.4c.4 2.3.8 4.5 1.1 6.8.3 2.3.6 4.5.9 6.8.2 2.3.5 4.6.6 6.8l.2 3.4.1 1.7v1.7l.1 3.4c-.6 1.6-.6 2.8-.6 3.9zM169.1 15.3z"/><path d="M120.8 227.8c-1.1 0-2.2-.5-2.8-1.4l-1.2.9c.9 1.3 2.4 2 4 2 2.8 0 5-2.3 5-5 0-1.2-.4-2.3-1.2-3.2l-1.1.9c.5.6.8 1.4.8 2.3.1 1.9-1.5 3.5-3.5 3.5z"/></g><path d="M220.4 29.5s.1.4.3 1.3c.2.8.5 2 .8 3.6.1.8.3 1.6.5 2.6.2.9.3 2 .5 3.1.1.5.2 1.1.2 1.7.1.6.1 1.2.2 1.8.1 1.2.3 2.5.4 3.9.2 2.7.4 5.7.4 8.8 0 1.6.1 3.2.1 4.8 0 1.6-.1 3.3-.1 5 0 1.7-.1 3.4-.2 5.2-.1 1.8-.2 3.5-.3 5.3-.2 1.8-.4 3.6-.5 5.4l-.3 2.7-.1 1.4-.2 1.4c-.3 1.8-.5 3.6-.8 5.4-.3 1.8-.5 3.6-.9 5.3-.3 1.8-.7 3.5-1 5.2-.4 1.7-.6 3.4-1 5.1-.8 3.3-1.6 6.5-2.3 9.5-.8 3-1.7 5.8-2.4 8.4-.4 1.3-.8 2.6-1.1 3.7-.4 1.2-.8 2.3-1.1 3.3-.7 2.1-1.4 3.9-1.9 5.4-1 3-1.6 4.7-1.6 4.7s.5-1.7 1.5-4.7l1.8-5.4c.3-1.1.7-2.2 1-3.4.3-1.2.7-2.4 1-3.8.7-2.6 1.5-5.4 2.3-8.5.7-3 1.4-6.2 2.2-9.5.4-1.6.7-3.3 1-5.1.3-1.7.7-3.5 1-5.2.4-1.7.6-3.5.9-5.3.3-1.8.5-3.6.8-5.4l.2-1.3.1-1.4.3-2.7c.2-1.8.4-3.6.6-5.3.1-1.8.2-3.5.4-5.3s.2-3.5.3-5.2c0-1.7.1-3.4.1-5v-4.8c0-3.1-.2-6-.3-8.8-.1-1.4-.2-2.7-.3-3.9 0-.6-.1-1.2-.1-1.8-.1-.6-.1-1.1-.2-1.7-.1-1.1-.2-2.1-.4-3.1-.1-.9-.3-1.8-.4-2.6-.3-1.6-.5-2.8-.7-3.6-.6-.7-.7-1.2-.7-1.2zM235.4 54.4s0 1.1-.1 3-.3 4.6-.6 7.8c-.2 1.6-.3 3.4-.6 5.2s-.4 3.8-.7 5.8c-.1 1-.3 2-.5 3.1-.2 1-.3 2.1-.5 3.1-.3 2.1-.8 4.2-1.1 6.3-.4 2.1-.9 4.2-1.4 6.3-.5 2.1-1 4.1-1.5 6.1-.6 1.9-1.1 3.8-1.7 5.6-.6 1.8-1.2 3.4-1.7 5-.6 1.5-1.2 2.9-1.7 4.1-.5 1.2-1 2.2-1.4 3.1-.8 1.7-1.3 2.7-1.3 2.7s.4-1 1.2-2.7c.4-.9.9-1.9 1.3-3.1.5-1.2 1-2.6 1.5-4.1.5-1.5 1-3.2 1.6-5 .5-1.8 1-3.7 1.6-5.6l1.5-6c.4-2.1.9-4.2 1.3-6.3l1.2-6.3c.2-1 .4-2.1.5-3.1.2-1 .3-2 .5-3 .3-2 .6-3.9.9-5.8.3-1.8.5-3.6.7-5.2.2-1.6.4-3.1.5-4.4.1-1.3.3-2.4.4-3.4 0-2.1.1-3.2.1-3.2zM.6 118.3s.7.9 1.8 2.5 2.7 4 4.4 6.9c1.7 2.9 3.7 6.3 5.7 10.1 1 1.9 1.9 3.9 2.9 5.9.9 2 1.9 4.1 2.7 6.2.9 2.1 1.6 4.2 2.4 6.3.7 2.1 1.4 4.2 2 6.2.6 2 1.1 4 1.5 5.9.4 1.9.7 3.7 1 5.4l.3 2.4c.1.8.1 1.5.2 2.2.1 1.4.1 2.6.2 3.6V185s0-1.1-.1-3.1c-.1-1-.1-2.2-.3-3.5-.1-.7-.2-1.4-.3-2.2-.1-.8-.2-1.6-.4-2.4-.3-1.7-.6-3.5-1.1-5.3-.2-.9-.5-1.9-.7-2.9-.3-1-.5-2-.8-3-.6-2-1.3-4.1-2-6.2-.7-2.1-1.6-4.2-2.4-6.3s-1.7-4.2-2.7-6.2c-.9-2-1.9-4-2.8-5.9-.9-1.9-1.9-3.7-2.8-5.4-.9-1.7-1.8-3.3-2.6-4.8-1.7-2.9-3.1-5.4-4.2-7-1.3-1.6-1.9-2.5-1.9-2.5zM21.6 192.9s-.2-.8-.6-2.1c-.4-1.3-1-3.2-1.7-5.4-.4-1.1-.8-2.3-1.2-3.6-.4-1.3-.9-2.6-1.5-4-.5-1.4-1.1-2.8-1.7-4.2-.6-1.4-1.2-2.8-1.9-4.3-.7-1.4-1.3-2.8-2-4.2-.7-1.4-1.4-2.7-2.1-4-.8-1.3-1.4-2.5-2.1-3.7s-1.4-2.2-2.1-3.2c-.7-.9-1.3-1.8-1.9-2.6s-1.1-1.4-1.5-1.9C.4 148.6-.1 148-.1 148s.5.6 1.5 1.6c.5.5 1 1.1 1.7 1.9.6.8 1.3 1.6 2 2.5.7.9 1.4 2 2.2 3.1.8 1.1 1.5 2.3 2.2 3.6.8 1.3 1.4 2.6 2.2 4l2.1 4.2c.6 1.4 1.3 2.9 1.9 4.3.5 1.4 1.1 2.8 1.6 4.2.5 1.4 1 2.7 1.4 4 .4 1.3.8 2.5 1.1 3.6.7 2.3 1.1 4.2 1.4 5.5.3 1.7.4 2.4.4 2.4z" fill="#472116"/></g><g data-animator-group="true" data-animator-type="0" style="-webkit-animation-fill-mode:backwards;animation-fill-mode:backwards;-webkit-transform:translate(65.39529037475586px,86.84351348876953px) translate(-65.39529037475586px,-86.84351348876953px) translate(0,0);transform:translate(65.39529037475586px,86.84351348876953px) translate(-65.39529037475586px,-86.84351348876953px) translate(0,0);-webkit-animation-name:kf_el_MiC8-InzS6F_an_Xc1Eqb6jU;animation-name:kf_el_MiC8-InzS6F_an_Xc1Eqb6jU;-webkit-animation-timing-function:cubic-bezier(.42,0,1,1);animation-timing-function:cubic-bezier(.42,0,1,1)"><g id="el_MiC8-InzS6F"><path d="M63.3 91.8c1.9-2.2 4.3-3.9 7-4.9-.3-2.3-2.3-4.2-4.7-4.2-2.7 0-4.8 2.1-4.8 4.8-.1 1.9.9 3.5 2.5 4.3z" fill="#298bb7"/><ellipse cx="65.4" cy="87.7" rx="2.1" ry="2.1" fill="#472116"/><path d="M61.5 91.6c-.3-.4-.6-.9-.9-1.4-1.4-3.1-.3-6.7 2.4-7.9 2.8-1.2 6.1.3 7.5 3.4.1.3.2.5.3.7l-1.3.3c0-.1-.1-.3-.2-.5-1.1-2.5-3.7-3.7-5.8-2.8-2.1.9-2.9 3.7-1.8 6.2.2.4.4.8.7 1.1l-.9.9z" fill="#472116"/><path d="M67.2 85.3c0 .7-.5 1.2-1.2 1.2s-1.2-.5-1.2-1.2.5-1.2 1.2-1.2 1.2.5 1.2 1.2z" fill="#fff" data-animator-group="true" data-animator-type="2"/></g></g><g data-animator-type="0" style="-webkit-animation-fill-mode:backwards;animation-fill-mode:backwards;-webkit-transform:translate(94.20000457763672px,66.95000076293945px) translate(-94.20000457763672px,-66.95000076293945px) translate(1px,0);transform:translate(94.20000457763672px,66.95000076293945px) translate(-94.20000457763672px,-66.95000076293945px) translate(1px,0);-webkit-animation-name:kf_el_DA4kJCUQ88M_an_DtlpVNfo-;animation-name:kf_el_DA4kJCUQ88M_an_DtlpVNfo-;-webkit-animation-timing-function:cubic-bezier(0,0,1,1);animation-timing-function:cubic-bezier(0,0,1,1)"><g data-animator-group="true" data-animator-type="1" style="-webkit-animation-fill-mode:backwards;animation-fill-mode:backwards;-webkit-transform:translate(94.20000457763672px,66.95000076293945px) rotate(0deg) translate(-94.20000457763672px,-66.95000076293945px);transform:translate(94.20000457763672px,66.95000076293945px) rotate(0deg) translate(-94.20000457763672px,-66.95000076293945px);-webkit-animation-name:kf_el_DA4kJCUQ88M_an_IUlG_WFcz;animation-name:kf_el_DA4kJCUQ88M_an_IUlG_WFcz;-webkit-animation-timing-function:cubic-bezier(0,0,1,1);animation-timing-function:cubic-bezier(0,0,1,1)"><g id="el_DA4kJCUQ88M"><path d="M93.6 70.7c1.2-.3 2.5-.5 3.7-.6.5-.7.8-1.5.8-2.4 0-2.2-1.8-4-4-4s-4 1.8-4 4c0 .4.1.8.2 1.1 1.2.6 2.3 1.2 3.3 1.9z" fill="#298bb7"/><path d="M96.1 68.2c0 1-.8 1.9-1.9 1.9-1 0-1.9-.8-1.9-1.9s.8-1.9 1.9-1.9c1 .1 1.9.9 1.9 1.9z" fill="#472116"/><path d="M89.8 69c-.1-.4-.2-.8-.2-1.2 0-2.5 2.1-4.6 4.6-4.6 2.5 0 4.6 2.1 4.6 4.6v.6l-1.3-.2v-.4c0-1.8-1.5-3.3-3.3-3.3s-3.3 1.5-3.3 3.3c0 .3 0 .6.1.9l-1.2.3z" fill="#472116"/><path d="M95.4 66.2c0 .5-.4.9-.9.9s-.9-.4-.9-.9.4-.9.9-.9c.5-.1.9.4.9.9z" fill="#fff" data-animator-group="true" data-animator-type="2"/></g></g></g><path d="M78 83.6h-.2v-.2c0-.3 0-.8-.2-1.4-.1-.6-.3-1.3-.6-2.1s-.7-1.7-1.3-2.6c-.6-.9-1.3-1.8-2.3-2.6-.9-.8-2.1-1.5-3.3-2-1.3-.5-2.7-.7-4.2-.6-.4 0-.8.1-1.1.1h-.3l-.2.1-.5.1-.2.1H63.3l-.5.2c-.4.1-.7.3-1 .5-1.3.7-2.4 1.7-3.3 2.9-.9 1.2-1.5 2.4-1.8 3.7-.4 1.3-.5 2.6-.4 3.8 0 .6.1 1.2.2 1.8.1.6.2 1.1.4 1.6.3 1 .7 1.9 1.1 2.6.4.7.9 1.3 1.2 1.8.3.4.6.7.8.9l-.4.4c-.3.3-.6.6-.9 1-.3.3-.5.7-.7 1-.2.3-.4.7-.6 1-.2.3-.3.7-.4 1s-.2.6-.3.8-.1.5-.2.7c-.1.4-.1.6-.1.6s.1-.2.2-.5l.3-.6c.1-.2.3-.5.4-.8.1-.3.3-.6.5-.9.2-.3.4-.6.7-.9.3-.3.5-.6.8-.9.3-.3.6-.5.9-.8.3-.2.7-.5 1-.6.3-.2.7-.4 1-.5.3-.1.6-.2.8-.3-.5.8-1 1.6-1.3 2.3-.2.5-.4 1.1-.5 1.5-.1.5-.2.9-.3 1.2.1.6.1.9.1 1.1v.3s.2-.3.5-.9c.2-.3.4-.6.6-1 .1-.2.3-.4.4-.6.1-.2.3-.4.5-.6.3-.5.7-.9 1.1-1.4.4-.5.9-.9 1.4-1.4 1-1 2.1-1.9 3.2-2.8 2.3-1.8 4.9-3.3 6.9-4.4.5-.3 1-.5 1.4-.7.4-.2.8-.3 1.1-.4.6-.2 1-.3 1-.3s-.5-.2-1.1-.3zm-2.9.4c-2.3.6-5.2 1.9-7.8 3.8l-1.8 1.5-.1.1c-.1 0-.1 0-.2.1-.4.1-.9.3-1.6.6-.3.1-.6.3-1 .5s-.7.4-1.1.6l-.9.6c-.2-.2-.4-.5-.7-.9-.6-.9-1.3-2.3-1.7-4.2-.1-.5-.2-.9-.2-1.4 0-.5-.1-1 0-1.5 0-1 .2-2.1.5-3.2.4-1.1.9-2.1 1.6-3 .7-.9 1.6-1.7 2.6-2.2.3-.1.5-.3.8-.4l.4-.1h.1l.2-.1.5-.1.2-.1h.2c.3 0 .5-.1.8-.1 1.1-.1 2.3.1 3.3.5 1 .3 2 .9 2.8 1.5.8.6 1.5 1.3 2.1 2 .6.7 1 1.4 1.4 2.1.3.7.6 1.3.8 1.8.2.6.3 1 .4 1.3h-.1c-.4.1-.9.2-1.5.3zM104.2 63.8c-.2 0-.4-.1-.6-.1-.2 0-.5 0-.8.1h-.3c-.1-.3-.2-.6-.3-1-.4-.9-1.1-2.3-2.4-3.5-.6-.6-1.4-1.2-2.3-1.7-.9-.5-2-.9-3.1-1.1-1.2-.2-2.4-.1-3.7.3-.6.2-1.2.5-1.8.9-.5.3-1 .9-1.4 1.4-.8 1.1-1.1 2.4-1.1 3.7 0 1.3.3 2.4.8 3.5.5 1 1.3 1.9 2.1 2.5.8.7 1.6 1.1 2.4 1.5 1.6.7 3.1.8 4.1.7.4 0 .7-.1 1-.1-.1.6 0 .9 0 .9s.1-.2.3-.5c.2-.3.4-.7.7-1.2.3-.5.6-1 1-1.5.2-.3.4-.5.6-.8.2-.3.5-.5.7-.8l.7-.7c.3-.2.5-.5.8-.6.3-.2.5-.4.8-.5.3-.1.5-.3.7-.4s.5-.2.7-.3c.2-.1.4-.1.5-.2.3-.1.5-.2.5-.2s-.2-.3-.6-.3zM99.8 65c-.3.2-.6.5-.9.8-.2.3-.5.6-.7.9-.2.3-.4.7-.6 1-.2.3-.3.7-.4 1l-.3.9c-.1 0-.1 0-.2.1-.2 0-.5.1-1 .1-.9 0-2.2-.2-3.6-.8-.7-.3-1.4-.8-2-1.3-.6-.6-1.1-1.4-1.4-2.3-.3-.9-.5-1.8-.4-2.7.1-.9.4-1.8.9-2.4.3-.3.5-.6 1-.9.3-.2.7-.4 1.1-.5.8-.3 1.7-.3 2.6-.2 1.8.2 3.3 1 4.5 1.9.6.5 1.1.9 1.5 1.4.4.5.7.9 1 1.3.2.3.3.5.5.7l-.6.3c-.3.3-.7.5-1 .7z" fill="#472116"/></svg>