<svg id="el_BeU9aOLc8" xmlns="http://www.w3.org/2000/svg" viewBox="0 0 194 139"><style>@-webkit-keyframes kf_el_X7t6HSNA0h5m_an_VKb63k2bQ{0%,38.89%,77.78%,to{-webkit-transform:translate(157.39998626708984px,73px) scale(0,0) translate(-157.39998626708984px,-73px);transform:translate(157.39998626708984px,73px) scale(0,0) translate(-157.39998626708984px,-73px)}50%,72.22%{-webkit-transform:translate(157.39998626708984px,73px) scale(1.2,1.2) translate(-157.39998626708984px,-73px);transform:translate(157.39998626708984px,73px) scale(1.2,1.2) translate(-157.39998626708984px,-73px)}55.56%,61.11%{-webkit-transform:translate(157.39998626708984px,73px) scale(1,1) translate(-157.39998626708984px,-73px);transform:translate(157.39998626708984px,73px) scale(1,1) translate(-157.39998626708984px,-73px)}}@keyframes kf_el_X7t6HSNA0h5m_an_VKb63k2bQ{0%,38.89%,77.78%,to{-webkit-transform:translate(157.39998626708984px,73px) scale(0,0) translate(-157.39998626708984px,-73px);transform:translate(157.39998626708984px,73px) scale(0,0) translate(-157.39998626708984px,-73px)}50%,72.22%{-webkit-transform:translate(157.39998626708984px,73px) scale(1.2,1.2) translate(-157.39998626708984px,-73px);transform:translate(157.39998626708984px,73px) scale(1.2,1.2) translate(-157.39998626708984px,-73px)}55.56%,61.11%{-webkit-transform:translate(157.39998626708984px,73px) scale(1,1) translate(-157.39998626708984px,-73px);transform:translate(157.39998626708984px,73px) scale(1,1) translate(-157.39998626708984px,-73px)}}@-webkit-keyframes kf_el_vBkgx0JyRtwo_an_0lQjWcsJA{0%,33.33%,72.22%,to{-webkit-transform:translate(144.99999237060547px,97.4000015258789px) scale(0,0) translate(-144.99999237060547px,-97.4000015258789px);transform:translate(144.99999237060547px,97.4000015258789px) scale(0,0) translate(-144.99999237060547px,-97.4000015258789px)}44.44%,66.67%{-webkit-transform:translate(144.99999237060547px,97.4000015258789px) scale(1.2,1.2) translate(-144.99999237060547px,-97.4000015258789px);transform:translate(144.99999237060547px,97.4000015258789px) scale(1.2,1.2) translate(-144.99999237060547px,-97.4000015258789px)}50%,55.56%{-webkit-transform:translate(144.99999237060547px,97.4000015258789px) scale(1,1) translate(-144.99999237060547px,-97.4000015258789px);transform:translate(144.99999237060547px,97.4000015258789px) scale(1,1) translate(-144.99999237060547px,-97.4000015258789px)}}@keyframes kf_el_vBkgx0JyRtwo_an_0lQjWcsJA{0%,33.33%,72.22%,to{-webkit-transform:translate(144.99999237060547px,97.4000015258789px) scale(0,0) translate(-144.99999237060547px,-97.4000015258789px);transform:translate(144.99999237060547px,97.4000015258789px) scale(0,0) translate(-144.99999237060547px,-97.4000015258789px)}44.44%,66.67%{-webkit-transform:translate(144.99999237060547px,97.4000015258789px) scale(1.2,1.2) translate(-144.99999237060547px,-97.4000015258789px);transform:translate(144.99999237060547px,97.4000015258789px) scale(1.2,1.2) translate(-144.99999237060547px,-97.4000015258789px)}50%,55.56%{-webkit-transform:translate(144.99999237060547px,97.4000015258789px) scale(1,1) translate(-144.99999237060547px,-97.4000015258789px);transform:translate(144.99999237060547px,97.4000015258789px) scale(1,1) translate(-144.99999237060547px,-97.4000015258789px)}}@-webkit-keyframes kf_el_XwFscT2_XotS_an_UZQyIf1Th{0%,27.78%,66.67%,to{-webkit-transform:translate(113px,98px) scale(0,0) translate(-113px,-98px);transform:translate(113px,98px) scale(0,0) translate(-113px,-98px)}38.89%,61.11%{-webkit-transform:translate(113px,98px) scale(1.2,1.2) translate(-113px,-98px);transform:translate(113px,98px) scale(1.2,1.2) translate(-113px,-98px)}44.44%,50%{-webkit-transform:translate(113px,98px) scale(1,1) translate(-113px,-98px);transform:translate(113px,98px) scale(1,1) translate(-113px,-98px)}}@keyframes kf_el_XwFscT2_XotS_an_UZQyIf1Th{0%,27.78%,66.67%,to{-webkit-transform:translate(113px,98px) scale(0,0) translate(-113px,-98px);transform:translate(113px,98px) scale(0,0) translate(-113px,-98px)}38.89%,61.11%{-webkit-transform:translate(113px,98px) scale(1.2,1.2) translate(-113px,-98px);transform:translate(113px,98px) scale(1.2,1.2) translate(-113px,-98px)}44.44%,50%{-webkit-transform:translate(113px,98px) scale(1,1) translate(-113px,-98px);transform:translate(113px,98px) scale(1,1) translate(-113px,-98px)}}@-webkit-keyframes kf_el_5G4v1vx0WzRw_an_MVZWajl12{0%,22.22%,61.11%,to{-webkit-transform:translate(144.0999984741211px,57.10000038146973px) scale(0,0) translate(-144.0999984741211px,-57.10000038146973px);transform:translate(144.0999984741211px,57.10000038146973px) scale(0,0) translate(-144.0999984741211px,-57.10000038146973px)}33.33%,55.56%{-webkit-transform:translate(144.0999984741211px,57.10000038146973px) scale(1.2,1.2) translate(-144.0999984741211px,-57.10000038146973px);transform:translate(144.0999984741211px,57.10000038146973px) scale(1.2,1.2) translate(-144.0999984741211px,-57.10000038146973px)}38.89%,44.44%{-webkit-transform:translate(144.0999984741211px,57.10000038146973px) scale(1,1) translate(-144.0999984741211px,-57.10000038146973px);transform:translate(144.0999984741211px,57.10000038146973px) scale(1,1) translate(-144.0999984741211px,-57.10000038146973px)}}@keyframes kf_el_5G4v1vx0WzRw_an_MVZWajl12{0%,22.22%,61.11%,to{-webkit-transform:translate(144.0999984741211px,57.10000038146973px) scale(0,0) translate(-144.0999984741211px,-57.10000038146973px);transform:translate(144.0999984741211px,57.10000038146973px) scale(0,0) translate(-144.0999984741211px,-57.10000038146973px)}33.33%,55.56%{-webkit-transform:translate(144.0999984741211px,57.10000038146973px) scale(1.2,1.2) translate(-144.0999984741211px,-57.10000038146973px);transform:translate(144.0999984741211px,57.10000038146973px) scale(1.2,1.2) translate(-144.0999984741211px,-57.10000038146973px)}38.89%,44.44%{-webkit-transform:translate(144.0999984741211px,57.10000038146973px) scale(1,1) translate(-144.0999984741211px,-57.10000038146973px);transform:translate(144.0999984741211px,57.10000038146973px) scale(1,1) translate(-144.0999984741211px,-57.10000038146973px)}}@-webkit-keyframes kf_el_FBXNBWprHjyG_an_qcbxcsxk7{0%,16.67%,55.56%,to{-webkit-transform:translate(94.5999984741211px,59.400001525878906px) scale(0,0) translate(-94.5999984741211px,-59.400001525878906px);transform:translate(94.5999984741211px,59.400001525878906px) scale(0,0) translate(-94.5999984741211px,-59.400001525878906px)}27.78%,50%{-webkit-transform:translate(94.5999984741211px,59.400001525878906px) scale(1.2,1.2) translate(-94.5999984741211px,-59.400001525878906px);transform:translate(94.5999984741211px,59.400001525878906px) scale(1.2,1.2) translate(-94.5999984741211px,-59.400001525878906px)}33.33%,38.89%{-webkit-transform:translate(94.5999984741211px,59.400001525878906px) scale(1,1) translate(-94.5999984741211px,-59.400001525878906px);transform:translate(94.5999984741211px,59.400001525878906px) scale(1,1) translate(-94.5999984741211px,-59.400001525878906px)}}@keyframes kf_el_FBXNBWprHjyG_an_qcbxcsxk7{0%,16.67%,55.56%,to{-webkit-transform:translate(94.5999984741211px,59.400001525878906px) scale(0,0) translate(-94.5999984741211px,-59.400001525878906px);transform:translate(94.5999984741211px,59.400001525878906px) scale(0,0) translate(-94.5999984741211px,-59.400001525878906px)}27.78%,50%{-webkit-transform:translate(94.5999984741211px,59.400001525878906px) scale(1.2,1.2) translate(-94.5999984741211px,-59.400001525878906px);transform:translate(94.5999984741211px,59.400001525878906px) scale(1.2,1.2) translate(-94.5999984741211px,-59.400001525878906px)}33.33%,38.89%{-webkit-transform:translate(94.5999984741211px,59.400001525878906px) scale(1,1) translate(-94.5999984741211px,-59.400001525878906px);transform:translate(94.5999984741211px,59.400001525878906px) scale(1,1) translate(-94.5999984741211px,-59.400001525878906px)}}@-webkit-keyframes kf_el_jpUhTEEq5A8O_an_Qqx0-DBrp{0%,11.11%,50%,to{-webkit-transform:translate(38.80000114440918px,80.0999984741211px) scale(0,0) translate(-38.80000114440918px,-80.0999984741211px);transform:translate(38.80000114440918px,80.0999984741211px) scale(0,0) translate(-38.80000114440918px,-80.0999984741211px)}22.22%,44.44%{-webkit-transform:translate(38.80000114440918px,80.0999984741211px) scale(1.2,1.2) translate(-38.80000114440918px,-80.0999984741211px);transform:translate(38.80000114440918px,80.0999984741211px) scale(1.2,1.2) translate(-38.80000114440918px,-80.0999984741211px)}27.78%,33.33%{-webkit-transform:translate(38.80000114440918px,80.0999984741211px) scale(1,1) translate(-38.80000114440918px,-80.0999984741211px);transform:translate(38.80000114440918px,80.0999984741211px) scale(1,1) translate(-38.80000114440918px,-80.0999984741211px)}}@keyframes kf_el_jpUhTEEq5A8O_an_Qqx0-DBrp{0%,11.11%,50%,to{-webkit-transform:translate(38.80000114440918px,80.0999984741211px) scale(0,0) translate(-38.80000114440918px,-80.0999984741211px);transform:translate(38.80000114440918px,80.0999984741211px) scale(0,0) translate(-38.80000114440918px,-80.0999984741211px)}22.22%,44.44%{-webkit-transform:translate(38.80000114440918px,80.0999984741211px) scale(1.2,1.2) translate(-38.80000114440918px,-80.0999984741211px);transform:translate(38.80000114440918px,80.0999984741211px) scale(1.2,1.2) translate(-38.80000114440918px,-80.0999984741211px)}27.78%,33.33%{-webkit-transform:translate(38.80000114440918px,80.0999984741211px) scale(1,1) translate(-38.80000114440918px,-80.0999984741211px);transform:translate(38.80000114440918px,80.0999984741211px) scale(1,1) translate(-38.80000114440918px,-80.0999984741211px)}}@-webkit-keyframes kf_el_Cpk1E0FYVXqu_an_3YEfH8D04{0%,44.44%,5.56%,to{-webkit-transform:translate(64.95000076293945px,98.14999771118164px) scale(0,0) translate(-64.95000076293945px,-98.14999771118164px);transform:translate(64.95000076293945px,98.14999771118164px) scale(0,0) translate(-64.95000076293945px,-98.14999771118164px)}16.67%,38.89%{-webkit-transform:translate(64.95000076293945px,98.14999771118164px) scale(1.2,1.2) translate(-64.95000076293945px,-98.14999771118164px);transform:translate(64.95000076293945px,98.14999771118164px) scale(1.2,1.2) translate(-64.95000076293945px,-98.14999771118164px)}22.22%,27.78%{-webkit-transform:translate(64.95000076293945px,98.14999771118164px) scale(1,1) translate(-64.95000076293945px,-98.14999771118164px);transform:translate(64.95000076293945px,98.14999771118164px) scale(1,1) translate(-64.95000076293945px,-98.14999771118164px)}}@keyframes kf_el_Cpk1E0FYVXqu_an_3YEfH8D04{0%,44.44%,5.56%,to{-webkit-transform:translate(64.95000076293945px,98.14999771118164px) scale(0,0) translate(-64.95000076293945px,-98.14999771118164px);transform:translate(64.95000076293945px,98.14999771118164px) scale(0,0) translate(-64.95000076293945px,-98.14999771118164px)}16.67%,38.89%{-webkit-transform:translate(64.95000076293945px,98.14999771118164px) scale(1.2,1.2) translate(-64.95000076293945px,-98.14999771118164px);transform:translate(64.95000076293945px,98.14999771118164px) scale(1.2,1.2) translate(-64.95000076293945px,-98.14999771118164px)}22.22%,27.78%{-webkit-transform:translate(64.95000076293945px,98.14999771118164px) scale(1,1) translate(-64.95000076293945px,-98.14999771118164px);transform:translate(64.95000076293945px,98.14999771118164px) scale(1,1) translate(-64.95000076293945px,-98.14999771118164px)}}@-webkit-keyframes kf_el_OSutWIhhHK0_an_N7QvMGufW{0%,38.89%,to{-webkit-transform:translate(45.200002670288086px,61.200002670288086px) scale(0,0) translate(-45.200002670288086px,-61.200002670288086px);transform:translate(45.200002670288086px,61.200002670288086px) scale(0,0) translate(-45.200002670288086px,-61.200002670288086px)}11.11%,33.33%{-webkit-transform:translate(45.200002670288086px,61.200002670288086px) scale(1.2,1.2) translate(-45.200002670288086px,-61.200002670288086px);transform:translate(45.200002670288086px,61.200002670288086px) scale(1.2,1.2) translate(-45.200002670288086px,-61.200002670288086px)}16.67%,22.22%{-webkit-transform:translate(45.200002670288086px,61.200002670288086px) scale(1,1) translate(-45.200002670288086px,-61.200002670288086px);transform:translate(45.200002670288086px,61.200002670288086px) scale(1,1) translate(-45.200002670288086px,-61.200002670288086px)}}@keyframes kf_el_OSutWIhhHK0_an_N7QvMGufW{0%,38.89%,to{-webkit-transform:translate(45.200002670288086px,61.200002670288086px) scale(0,0) translate(-45.200002670288086px,-61.200002670288086px);transform:translate(45.200002670288086px,61.200002670288086px) scale(0,0) translate(-45.200002670288086px,-61.200002670288086px)}11.11%,33.33%{-webkit-transform:translate(45.200002670288086px,61.200002670288086px) scale(1.2,1.2) translate(-45.200002670288086px,-61.200002670288086px);transform:translate(45.200002670288086px,61.200002670288086px) scale(1.2,1.2) translate(-45.200002670288086px,-61.200002670288086px)}16.67%,22.22%{-webkit-transform:translate(45.200002670288086px,61.200002670288086px) scale(1,1) translate(-45.200002670288086px,-61.200002670288086px);transform:translate(45.200002670288086px,61.200002670288086px) scale(1,1) translate(-45.200002670288086px,-61.200002670288086px)}}#el_BeU9aOLc8 *{-webkit-animation-duration:3s;animation-duration:3s;-webkit-animation-iteration-count:100;animation-iteration-count:100;-webkit-animation-timing-function:cubic-bezier(0,0,1,1);animation-timing-function:cubic-bezier(0,0,1,1)}</style><g id="el_fymak_JJ-X"><g id="el_vhSip4aW1R"><path d="M169.9 103.8l16.9-21.3-17.7-3.5-1.2-.2-7.4-1.5 2.4-14.5-11.3.4 5.3-16.4-13 .9 3.6-10.4-23.2.7 3.9-20.3-58.6 4.8 1.3 8.7-3.8-2.8 3 4.5c.5.7.9 1.4 1.4 2.1l.7 4.8-21.2.5 3.2 13.5-11.8.8 3.3 12.2-13 .4 1.6 10.2-26.7 5.2 18.6 19-3.5 24.8 32.1-6.7.8.5-3.6-9.4h-.7H58l4.4 15.9 6.5.3v.1H72l1.9 8 12.6-.5.8 5.2h17.5l1.1-5.9h1.3l1.7-.1 5.2-.2 1.7-4.9h.5l13.9.5 6-18.6h9.5-.7l-3.7 10.4.9-.7-.1.2 18.2 3.1 12 2-2.4-21.8z" opacity=".4" fill="#862a5d"/><g id="el_r87jA5iGTp"><radialGradient id="SVGID_1_" cx="8.119" cy="-7.061" r="68.651" gradientTransform="matrix(1 0 0 -1 0 142)" gradientUnits="userSpaceOnUse"><stop offset="0" stop-color="#faf1d5"/><stop offset=".026" stop-color="#fbecb7"/><stop offset=".075" stop-color="#fce387"/><stop offset=".124" stop-color="#fddc5d"/><stop offset=".174" stop-color="#fed63c"/><stop offset=".225" stop-color="#fed221"/><stop offset=".277" stop-color="#ffcf0f"/><stop offset=".331" stop-color="#ffcd04"/><stop offset=".39" stop-color="#fc0"/><stop offset=".628" stop-color="#f8b208"/><stop offset="1" stop-color="#eb8117"/></radialGradient><path fill="url(#SVGID_1_)" d="M33.7 65.4L1.2 71.8l20 21.1-3.9 27.5 34.5-7.4z"/><path d="M33.7 65.4c-2.7.6-5.4 1.2-8.1 1.9l-8.1 1.8-8.1 1.7-8.1 1.7.3-1c3.3 3.5 6.7 7 10 10.5l9.9 10.6.2.2v.3c-.7 4.6-1.4 9.1-2.1 13.7-.3 2.3-.7 4.6-1.1 6.9s-.8 4.6-1.2 6.8c.2-2.3.5-4.6.7-6.9.3-2.3.5-4.6.8-6.9.6-4.6 1.1-9.2 1.7-13.8l.2.5-10-10.5c-3.3-3.5-6.6-7-9.9-10.6l-.8-.9 1.1-.2 8.1-1.6 8.2-1.5c2.7-.5 5.4-1 8.2-1.4 2.7-.4 5.4-.9 8.1-1.3z" fill="#faefc1"/><path d="M17.3 120.4c2.8-.7 5.7-1.4 8.6-2.1 2.8-.7 5.7-1.4 8.6-2l8.6-2 8.6-1.9-.5.9c-3-7.9-6-15.8-9-23.8-2.9-8-5.8-15.9-8.5-24 3.3 7.8 6.4 15.7 9.6 23.6 3.1 7.9 6.1 15.8 9.1 23.7l.3.7-.8.2-8.6 1.8-8.6 1.7c-2.9.6-5.8 1.2-8.6 1.7-3 .5-5.9 1-8.8 1.5z" fill="#a13c19"/><g id="el_89UA2fQS1i"><radialGradient id="SVGID_2_" cx="79.987" cy="151.002" r="110.979" gradientTransform="matrix(1 0 0 -1 0 142)" gradientUnits="userSpaceOnUse"><stop offset="0" stop-color="#ff9694"/><stop offset=".03" stop-color="#fc9095"/><stop offset=".32" stop-color="#e1579e"/><stop offset=".46" stop-color="#d641a1"/><stop offset=".596" stop-color="#d03da1"/><stop offset=".777" stop-color="#bf32a1"/><stop offset=".982" stop-color="#a420a2"/><stop offset="1" stop-color="#a11ea2"/></radialGradient><path fill="url(#SVGID_2_)" d="M38.7 40.9l21.2 79.8 73 2.9 28.4-91.4z"/><path d="M161.3 32.2L146 33.7c-5.1.5-10.2 1.1-15.3 1.4L100 37.3l-61.3 4.4.6-.9L50 80.6l2.7 10 1.3 5 1.2 5 4.8 20.1-5.9-19.8-1.5-5-1.3-5-2.7-10L38 41.1l-.2-.8.8-.1 61.3-4.4 30.7-2.2c5.1-.5 10.2-.6 15.3-.8l15.4-.6z" fill="#f7cdd9"/><path d="M59.9 120.7c6.1 0 12.2.1 18.3.1 3 0 6.1.2 9.1.3l9.1.4 36.5 1.5-.7.5 14.2-45.7 7.1-22.9c.6-1.9 1.2-3.8 1.9-5.7l2-5.7 3.9-11.3-3.2 11.6-1.6 5.8c-.5 1.9-1.1 3.9-1.7 5.7l-7.1 22.9-14.2 45.7-.2.5h-.5l-36.5-1.5-9.1-.4c-3-.1-6.1-.2-9.1-.4-6-.5-12.1-.9-18.2-1.4z" fill="#83196a"/><radialGradient id="SVGID_3_" cx="91.037" cy="148.996" r="104.15" fx="116.529" fy="90.013" gradientTransform="matrix(1 0 0 -1 0 142)" gradientUnits="userSpaceOnUse"><stop offset="0" stop-color="#ff9694"/><stop offset=".03" stop-color="#fc9095"/><stop offset=".32" stop-color="#e1579e"/><stop offset=".46" stop-color="#d641a1"/><stop offset=".596" stop-color="#d03da1"/><stop offset=".777" stop-color="#bf32a1"/><stop offset=".982" stop-color="#a420a2"/><stop offset="1" stop-color="#a11ea2"/></radialGradient><path fill="url(#SVGID_3_)" d="M72.4 130L47.9 25.1l103.4-3.5-35.7 106.8z"/><path d="M151.3 21.6c-1.3 4.5-2.6 9-4 13.5-.7 2.2-1.3 4.5-2.1 6.7s-1.5 4.4-2.2 6.7l-8.9 26.7-17.9 53.4-.2.5h-.5l-21.5.8c-1.8.1-3.6.1-5.4.1H72.4l10.8-.8 5.4-.4c1.8-.1 3.6-.3 5.4-.3l21.6-.8-.6.5 17.9-53.4 8.9-26.7c.7-2.2 1.5-4.4 2.2-6.7.7-2.2 1.6-4.4 2.4-6.6 1.6-4.4 3.2-8.8 4.9-13.2z" fill="#83196a"/><path d="M72.4 130c-2.3-8.7-4.5-17.4-6.8-26.1l-6.1-26.2-12.3-52.5-.2-.8h.8l51.7-1.7 25.8-.8c8.6-.1 17.2-.2 25.9-.2-8.6.6-17.2 1-25.8 1.5l-25.8.8-51.7 1.7.6-.8 12.2 52.5 6.1 26.2c2 8.8 3.8 17.6 5.6 26.4z" fill="#f7cdd9"/><radialGradient id="SVGID_4_" cx="91.495" cy="155.63" r="146.224" gradientTransform="matrix(1 0 0 -1 0 142)" gradientUnits="userSpaceOnUse"><stop offset="0" stop-color="#ff9694"/><stop offset=".03" stop-color="#fc9095"/><stop offset=".32" stop-color="#e1579e"/><stop offset=".46" stop-color="#d641a1"/><stop offset=".596" stop-color="#d03da1"/><stop offset=".777" stop-color="#bf32a1"/><stop offset=".982" stop-color="#a420a2"/><stop offset="1" stop-color="#a11ea2"/></radialGradient><path fill="url(#SVGID_4_)" d="M86.8 135.3l-19-130L130.7 0l-25.2 135.3z"/><path opacity=".4" fill="#862a5d" d="M126.5 22.5l-19.8 106.2 3.3-.1 20.7-106.1zM147.3 33.5L117.9 123h3.9l27.7-90zM70.6 24.4l15.3 105.1-3.9.2L69.2 24.4zM51.4 40l18.9 81.1H67z"/><path d="M130.7 0c-.8 5.7-1.7 11.3-2.5 17-.4 2.8-1 5.6-1.5 8.5l-1.6 8.5-6.3 33.8-12.6 67.6-.1.6h-.5c-6.2-.2-12.5-.4-18.7-.7 6.2-.3 12.5-.4 18.7-.7l-.6.5 12.6-67.6 6.3-33.8 1.6-8.5c.5-2.8 1-5.7 1.6-8.4 1.1-5.6 2.3-11.2 3.6-16.8z" fill="#83196a"/><path d="M86.8 135.3L84 119.1l-1.4-8.1-1.2-8.1-4.7-32.5-9.5-65-.2-.8.7-.1 31.4-2.6c2.6-.2 5.2-.5 7.9-.6l7.9-.4 15.8-.9L115 1.8l-7.8.9c-2.6.3-5.2.4-7.9.7L67.9 5.9l.6-.8 9.5 65 4.7 32.5 1.2 8.1 1 8.2 1.9 16.4z" fill="#f7cdd9"/><path opacity=".3" fill="#cff3ed" d="M42.7 43.6l18.1 74.5-14-73 3.2-2.2zM74.9 126.1L53.2 28.6l14.6-.7-7.9 3zM73.1 9.2l52.8-4.5-1 7.2-1.2-4.9-44 6.3 10.6 118.6zM131.9 25.3h14.6l-2.9 9.2v-6.1zM149.1 36.5l9.2-.8-4 10.6.2-7.7z"/></g><g id="el_ISZzDzxM5bU"><path d="M123 15.4c-.8 1.4-1.7 2.7-2.8 3.9-.9-1.6-2.3-2.9-4-3.7-1.9-.9-4.1-1-6.1-.5l-2.3-3.6-.9-1.4-.7 1.5c-.5 1-1.1 2.1-1.8 3-2.3-.9-4.9-1.1-7.4-.5-2.3.6-4.5 1.8-6.2 3.5L88.3 15 87 13.6l-.4 1.8-1 4.6c-1.2.2-2.4.5-3.4 1.1s-2 1.4-2.7 2.4c-1.9-.7-3.7-1.7-5.3-2.9l-4.5-3.4 3.1 4.7c3.7 5.8 6.8 12 9 18.5-.2.2-.5.3-.7.6-.4.5-.8 1.1-.9 1.8s0 1.4.4 2 1 1 1.6 1.2c1 .3 1.8.5 2.8.8.9.2 1.9.5 2.8.7 3.8.8 7.6 1.2 11.5 1.2 1 0 1.9 0 2.9-.1s1.9-.2 2.9-.4c1.9-.3 3.8-.7 5.6-1.3 3.7-1.1 7.2-2.5 10.5-4.4 1.5-.7 2.1-2.7-.1-3.6.2-3.9.6-7.7 1.2-11.5.3-1.9.7-3.8 1.1-5.6.2-.9.5-1.9.7-2.8s.4-1.9.7-2.8l1.9-7.7-3.7 6.9z" opacity=".4" fill="#862a5d"/><path d="M76.1 38.4c.1-.7.5-1.4.9-1.8.2-.2.5-.4.7-.6-2.4-6.8-5.5-13.3-9.4-19.4l-3.2-4.9 4.7 3.6c1.7 1.3 3.5 2.3 5.5 3.1.8-1 1.7-1.9 2.8-2.5 1.1-.6 2.3-1 3.6-1.2l1-4.8.5-1.9 1.3 1.4 2.6 2.8c1.8-1.8 4-3.1 6.5-3.7 2.6-.6 5.3-.4 7.7.5.7-1 1.4-2.1 1.9-3.2l.8-1.6.9 1.5 2.4 3.7c2.1-.5 4.4-.4 6.4.6 1.8.8 3.2 2.2 4.2 3.9 1.2-1.2 2.2-2.6 3-4.1l3.9-7.4-2 8.1c-.2 1-.4 2-.7 2.9-.2 1-.5 1.9-.7 2.9-.5 2-.9 3.9-1.2 5.9-.7 4-1.1 8-1.3 12.1-.3-4.1-.3-8.1.1-12.2.2-2 .4-4.1.7-6.1.1-.4.1-.8.2-1.2-.5.5-.9 1-1.4 1.5l-1.1 1-.6-1.4c-.7-1.8-2.1-3.3-3.9-4.1-1.7-.8-3.8-.9-5.7-.3l-.7.2-.4-.7-1.9-2.9c-.5.9-1.1 1.8-1.7 2.6l-.5.7-.8-.3c-2.3-1-4.8-1.3-7.2-.7-2.4.6-4.6 2-6.2 3.9l-.7.9-.8-.8-2-2.2-.8 3.7-.2.7h-.8c-1.2.1-2.4.4-3.5 1s-2 1.5-2.6 2.5l-.4.7-.7-.3c-1.1-.4-2.1-.8-3-1.3 3.1 5.4 5.7 11 7.7 16.9l.3.9-.9.3c-.7.3-1.2.8-1.3 1.3-.1.5.2 1 .8 1.2l2.8.8c1 .2 1.9.5 2.8.7 3.8.8 7.7 1.2 11.6 1.2 1.9-.1 3.9-.1 5.8-.2 1.9-.2 3.9-.4 5.8-.8 3.9-.7 7.6-1.9 11.3-3.4-3.5 1.9-7.2 3.5-11 4.6-1.9.6-3.9 1-5.9 1.4-1 .2-2 .3-3 .4-1 .1-2 .1-3 .1-4 0-8.1-.4-12-1.3-1-.2-2-.5-2.9-.7-1-.3-1.9-.5-2.9-.8-.6-.2-1.3-.7-1.7-1.3-.5-.6-.6-1.4-.5-2.1z" fill="#ffe599"/><g id="el_Jr_OyuRgR-H"><g id="el_LcjcGGLZQ5U"><path d="M80.8 31.8c12.1-3.2 24.7-3.3 37-5.6.5-2.9.9-6 .4-8.9s-2.6-5.5-5.4-6.5c-2.7-1.1-6-.6-8.4 1.2-2.9-2.3-6.7-3.3-10.3-2.5-3.6.8-6.9 3.3-8.6 6.6-2.1-.7-4.3-.5-6.3.4s-3.6 2.7-4.4 4.7c1.5 3.5 3.9 7.4 6 10.6z" fill="#cf0824"/><path d="M109.1 12.4c-.9 2.1-.9 4.6.1 6.6.5 1 1.3 2 2.5 2.2 1.1.2 2.3-.4 2.9-1.3.7-.9.9-2.1.8-3.2s-.3-2.5-.6-3.6c2.6 2 3.8 5.9 2.6 9-.6 1.6-1.8 3.1-3.4 3.6-1.5.4-3.1.1-4.4-.7-2.2-1.2-3.9-3.5-4.2-6-.3-2.5 1.1-5.2 3.4-6.3l.3-.3zM99.3 11.7c1.5 1.6 2.7 3.4 3.4 5.4.6 2 .6 4.4-.5 6.2-1.2 2-3.4 3.2-5.7 3.4-3.2.2-6.4-1.6-7.8-4.4-1.4-2.9-.6-6.6 1.8-8.7 0 2.6 1 4.9 2.6 6.9.5.7 1.2 1.4 2.1 1.6 1 .2 2.1-.2 2.9-.9 1.3-1.1 2-2.9 2.1-4.6 0-1.7-.4-3.2-.9-4.9zM81.4 16.6c1.5.7 2.8 2 3.7 3.4.9 1.4 1.5 3 1.9 4.7.3 1 .5 2 .4 3s-.5 2.1-1.3 2.7c-.9.7-2 .8-3.1.7-2.5-.3-4.8-2.2-5.8-4.6s-.9-5.1.1-7.5c.4 2.4 1.5 4.4 2.8 6.4.4.7 1 1.4 1.7 1.8s1.7.5 2.4-.1c.5-.4.7-1 .7-1.6s-.2-1.2-.3-1.8c-.9-2.3-1.8-4.9-3.2-7.1z" fill="#a71700"/></g><path d="M79 36.5c-2.4-7.2-5.7-14-9.8-20.4 2.4 1.9 5.1 3.3 8.1 4-.4 2.6.3 5.3 1.8 7.3.7 1 1.7 1.8 2.8 2.2 1.1.4 2.5.2 3.4-.6 1.3-1.2 1.2-3.2.7-4.9-.7-2.4-2.3-4.4-4.2-6 .8-2.7 1.4-5.2 1.9-8 2 2.2 4 4.5 6.2 6.5-1 2.1-.6 4.8 1 6.5s4.2 2.3 6.4 1.6c2.2-.8 3.9-2.8 4.3-5.1.3-2.3-.5-4.8-2.3-6.3 1.8-2.1 3.5-4.4 4.7-6.9 1.6 2.2 3 4.7 4.5 6.9-1.4 1-2.3 2.7-2.4 4.5s.5 3.5 1.4 5c.8 1.2 2 2.4 3.5 2.6 1.6.3 3.2-.5 4.3-1.6.9-.9 1.6-1.9 1.9-3.2.2-1.2-.2-2.8-1.1-3.6 2.3-1.8 4.3-4 5.7-6.7-2 7.9-3 16-2.9 24.1-13-2.9-27.5-1.4-39.9 2.1z" fill="#feaa0f"/><path d="M118.9 34.4c-13.2-4.1-26.5-2.5-39.9 2.1-2.6.9-2.5 3.8-.4 4.4 14.1 4.4 27.4 3.5 40.5-2.7 1.5-.7 2.2-2.8-.2-3.8z" fill="#feaa0f"/><path d="M80.3 39.6c11.3 2.1 25.2 1.3 36.2-2.1-11.9-3.6-25-3-36.2 2.1z" fill="#7a1b29"/><path d="M99.5 27.6c2.8-1.4 5.5-2.8 8-4.3 1 1.3 2.2 2.2 3.5 2.4 1.1.2 2.3-.1 3.4-.8l1.2-.9c.8-.7 1.7-1.9 2-3.4.2-1.2-.1-2.5-.8-3.5 1.3-1 2.5-1.9 3.6-2.9-1.3 6.4-2 13-2 19.6-11.7-2.5-25.6-1.7-39.2 2.1-.1-.3-.2-.5-.3-.8 6.4-1.5 13.4-4 20.6-7.5z" fill="#eb690c"/><path d="M104.6 31.9c3.6 0 7.6-1.6 10.2-4.1s4-6.3 3.1-9.8c.4-.4.9-.8 1.4-1.2-.5 5.3-1 10.7-1.5 16-4-.5-9.1-.8-13.2-.9z" fill="#cc540a"/><path d="M100.6 23.3c1.2-1.5 1.9-3.4 1.9-5.3s-.8-3.8-2-5.3c1.5-1.4 2.8-3.1 3.8-4.9.4.7 1 1.4 1.5 2.1-2.7 3.1-3.7 7.6-2.2 11.5-.7.7-2.1 1.3-3 1.9zM82 30.4c1.4.6 3 0 4-1.1s1.3-2.7 1.1-4.1c-.2-1.5-.9-2.8-1.7-4-.8-1.2-2-2.3-2.8-3.5.6-2.1.9-4.3 1.5-6.4 1 1 2 2.1 3 3.1-1.2 1.8-1.5 4.3-.8 6.4.6 2.1 1.8 4 3 5.8-.9 1.2-1.8 2.8-3.1 3.7-1.2.8-2.8.7-4.2.1zM78.9 34.5c-2.1-5.9-5.1-11.5-8.3-16.8 1.8 1 3.6 2 5.5 2.8.1 5 2.2 9.9 5.5 13.7-.7.3-1.9.4-2.7.3z" fill="#ffc34d"/><path d="M102.4 15c-.4-.8-.8-1.5-1.1-2.3 1-1.4 2-2.6 3.2-3.8.1.3.3.7.6.9-1.3 1.4-2.3 3.3-2.7 5.2zM84.9 19.2c0-1.8.5-3.4 1.3-4.9-.7-.6-1.3-1.2-1.8-2l-1.2 5.1c.5.6 1.2 1.2 1.7 1.8zM87.5 28.5c.3-1.1.3-2.2.2-3.3.3.5.7 1 1 1.4-.3.6-.8 1.4-1.2 1.9zM79.2 33.9c-2-5.1-4.4-9.9-7.2-14.7.8.8 1.8 1.3 2.9 1.6 1.1 4.6 3 9 5.6 12.9-.3.1-.9.2-1.3.2z" fill="#ffe599"/><path d="M100.5 34.7c.3-.5 0-1.1-.4-1.5 6.3-1.2 18.9 1 18.9 1.8.8-.1 1.8 1.8.3 2.6-.8.3-1.7.6-2.5 1 .3-.4.5-.8.5-1.2-5.3-1.8-11.2-2.8-16.8-2.7z" fill="#eb690c"/><path d="M110.7 35.3c.1-.5.2-.9.3-1.4 2.8-.1 5.7.5 8.3 1.6.2.4.3 1 .1 1.4-.2.4-.5.7-.9.9-2.1-1.6-5.3-2.6-7.8-2.5z" fill="#cc540a"/><path d="M82.7 36c-1.6.3-3.4.7-4.5 1.9-.3.3-.5.7-.5 1.1 0 .4.2.9.5 1.1.5.3 1.2-.1 1.6-.5 1.9-1.3 4-2.3 6.2-3-1.1.4-2.3-.2-3.3-.6z" fill="#ffc34d"/><path d="M81.3 36.9c.1 0 .3 0 .4.1s.1.2 0 .3-.1.2-.2.2c-.5.5-1.2.9-1.8 1.1-.2.1-.3.1-.5 0s-.2-.3-.2-.5c.1-.4.6-.7.9-.9.4-.1.9-.3 1.4-.3z" fill="#ffe599"/><path d="M93.6 42.8c.1-.5.2-.9.3-1.4 7 0 14-1 20.7-2.8-.1.3 0 .5-.1.8-6.4 2.4-13.7 3.7-20.9 3.4z" fill="#eb690c"/><path d="M94.7 42.6c.1-.3.1-.6.1-.9 2.6.1 5.3-.1 7.8-.4.2.3.2.8.1 1.1-2.6.3-5.4.3-8 .2z" fill="#cc540a"/><g id="el_xZg4NEBEAKM"><path d="M116.2 29.9c-.1.5-.5.9-.9 1s-.8 0-1.1-.2c-.6-.4-1-1.1-.9-1.9.1-.7.7-1.4 1.5-1.4 1.3-.2 1.7 1.4 1.4 2.5z" fill="#cf0824"/><path d="M114.5 27.7c-.3 0-.6.2-.8.5s-.2.6-.2.9c0 .4.1.7.4 1 .2.3.6.4 1 .4s.7-.3.8-.7c-.3.1-.7 0-1-.2s-.4-.5-.4-.8c0-.4 0-.8.2-1.1z" fill="#a71700"/><path d="M114.7 30.3c-.3-.1-.6-.2-.7-.5-.1-.1-.3-.9 0-.6.1.1.2.5.3.6 0 .1.2.3.4.5z" opacity=".3" fill="#a51701"/><path d="M115.1 27.6c.4.1.7.4.9.8.2.4.1.8-.1 1.2-.4-.6-.7-1.4-.8-2z" fill="#ed6540"/><path d="M115.4 27.8c.3.3.5.7.4 1.1-.2-.2-.4-.7-.4-1.1z" opacity=".6" fill="#ffeaab"/></g><path d="M110.7 29.9c-.3.3-.7.4-1.1.4-.5 0-1-.2-1.3-.6-.2-.2-.4-.5-.5-.8s0-.7.2-.9c.5-.6 1.7-.4 2.3-.1.6.3.8 1.5.4 2zM105.2 29.6c-.4.8-1.4 1.2-2.2.9-.5-.2-.9-.6-1.2-1.1-.3-.6-.6-1.3-.3-1.9.3-.5.8-.7 1.3-.7 1.4 0 3.1 1.2 2.4 2.8zM98.7 29.2c.1.5-.2 1.1-.7 1.4-.5.2-1 .1-1.5-.1s-.9-.6-1-1.1.3-1 .7-1.2c.4-.2 1.1-.4 1.6-.2.6 0 .9.7.9 1.2zM86.9 32.1c0 .3 0 .6-.2.9-.2.3-.5.4-.8.5-.6.1-1.2-.1-1.5-.6s-.4-1.1-.1-1.6 1-.9 1.6-.8c.6.1 1 1 1 1.6zM81.6 32.8c.2.5.1 1.1-.2 1.5-.2.2-.5.3-.8.3-.6 0-1.1-.3-1.4-.7-.3-.5-.3-1.1 0-1.6.3-.4.9-.8 1.4-.8.4.1.8.9 1 1.3z" fill="#cc540a"/><g id="el_VXE74Bay3-p"><path d="M104.7 29c-.1.5-.5 1-1 1.1-.4.1-.9 0-1.3-.2-.7-.4-1.1-1.3-1-2.1.1-.8.8-1.5 1.6-1.6 1.6-.2 2 1.6 1.7 2.8z" fill="#cf0824"/><path d="M102.9 26.6c-.3 0-.7.2-.9.5-.2.3-.3.7-.2 1 0 .4.2.8.4 1.1.3.3.7.5 1.1.4.4 0 .8-.4.9-.8-.3.1-.8 0-1.1-.3-.3-.2-.4-.6-.5-.9 0-.2.1-.7.3-1z" fill="#a71700"/><path d="M103 29.4c-.3-.1-.6-.3-.8-.6-.1-.2-.3-1 0-.7.1.1.2.5.3.7.2.2.3.4.5.6z" opacity=".3" fill="#a51701"/><path d="M103.5 26.5c.4.1.8.4 1 .9.2.4.1.9-.1 1.3-.5-.7-.8-1.5-.9-2.2z" fill="#ed6540"/><path d="M103.9 26.8c.4.3.6.8.5 1.3-.3-.4-.5-.9-.5-1.3z" opacity=".6" fill="#ffeaab"/></g><g id="el_frDnT2k8pj9"><path d="M93.9 30.2c.2.6 0 1.4-.5 1.7-.3.2-.8.3-1.2.2-.5-.1-.9-.2-1.3-.5s-.6-.8-.6-1.2c0-.6.4-1.1.8-1.4.4-.2 1.2-.5 1.6-.3.5.3 1 1 1.2 1.5z" fill="#cc540a"/><g id="el_vEST2e9GkDx"><path d="M93.2 30.5c0 .5-.3 1-.8 1.3-.4.2-.9.2-1.3 0-.8-.3-1.3-1-1.4-1.9s.5-1.6 1.3-1.9c1.6-.4 2.3 1.2 2.2 2.5z" fill="#cf0824"/><path d="M91 28.5c-.3.1-.6.4-.7.7-.1.3-.1.7 0 1 .1.4.3.8.6 1 .3.3.8.4 1.2.2.4-.1.7-.5.7-.9-.3.2-.8.1-1.1-.1-.3-.2-.5-.5-.6-.8-.2-.3-.2-.8-.1-1.1z" fill="#a71700"/><path d="M91.7 31.2c-.3 0-.7-.2-.9-.4-.1-.1-.5-.9-.1-.7.1 0 .3.5.4.6.2.2.4.4.6.5z" opacity=".3" fill="#a51701"/><path d="M91.6 28.2c.5 0 .9.3 1.1.7.2.4.3.9.1 1.3-.5-.5-.9-1.3-1.2-2z" fill="#ed6540"/><path d="M92 28.4c.4.2.7.7.7 1.1-.3-.2-.6-.7-.7-1.1z" opacity=".6" fill="#ffeaab"/></g></g><g id="el_9iF7CZ1t33M"><path d="M81.4 33.2c0 .4-.3.8-.6 1-.3.1-.7.1-1 0-.6-.2-1.1-.8-1.1-1.5 0-.6.4-1.3 1-1.5 1.1-.2 1.7 1.1 1.7 2z" fill="#cf0824"/><path d="M79.6 31.7c-.3.1-.5.3-.6.5-.1.3-.1.5 0 .8s.2.6.5.8.6.3.9.2.6-.4.6-.7c-.2.1-.6.1-.9 0-.2-.1-.4-.4-.5-.7s-.1-.7 0-.9z" fill="#a71700"/><path d="M80.1 33.8c-.3 0-.5-.1-.7-.3-.1-.1-.4-.7-.1-.6.1 0 .3.4.3.5.2.1.4.3.5.4z" opacity=".3" fill="#a51701"/><path d="M80.1 31.4c.4 0 .7.2.9.5.2.3.2.7.1 1-.5-.3-.8-.9-1-1.5z" fill="#ed6540"/><path d="M80.4 31.6c.3.2.6.5.6.9-.3-.2-.5-.6-.6-.9z" opacity=".6" fill="#ffeaab"/></g><g id="el_IFPK2rWcHAu"><path d="M86.4 32c0 .4-.3.8-.6 1-.3.1-.7.1-1 0-.6-.2-1.1-.8-1.1-1.5 0-.6.4-1.3 1-1.5 1.2-.3 1.8 1 1.7 2z" fill="#07c8c8"/><path d="M84.7 30.5c-.3.1-.5.3-.6.5-.1.3-.1.5 0 .8s.2.6.5.8.6.3.9.2.6-.4.6-.7c-.2.1-.6.1-.9 0-.2-.1-.4-.4-.5-.7-.1-.3-.1-.7 0-.9z" fill="#0697b3"/><path d="M85.2 32.6c-.3 0-.5-.1-.7-.3-.1-.1-.4-.7-.1-.6.1 0 .3.4.3.5.2.1.3.3.5.4z" opacity=".3" fill="#a51701"/><path d="M85.1 30.2c.4 0 .7.2.9.5.2.3.2.7.1 1-.4-.3-.8-.9-1-1.5z" opacity=".3" fill="#ffebaf"/><path d="M85.4 30.4c.3.2.6.5.6.9-.3-.2-.5-.6-.6-.9z" opacity=".6" fill="#ffeaab"/></g><g id="el_UCazS2tlUBK"><path d="M98.3 29.2c0 .4-.3.8-.6 1-.3.1-.7.1-1 0-.6-.2-1.1-.8-1.1-1.5 0-.6.4-1.3 1-1.5 1.2-.3 1.8 1 1.7 2z" fill="#07c8c8"/><path d="M96.5 27.6c-.3.1-.5.3-.6.5-.1.3-.1.5 0 .8s.2.6.5.8c.3.2.6.3.9.2.3-.1.6-.4.6-.7-.2.1-.6.1-.9 0-.2-.1-.4-.4-.5-.7-.1-.2-.1-.6 0-.9z" fill="#0697b3"/><path d="M97.1 29.7c-.3 0-.5-.1-.7-.3-.1-.1-.4-.7-.1-.6.1 0 .3.4.3.5.1.2.3.3.5.4z" opacity=".3" fill="#a51701"/><path d="M97 27.4c.4 0 .7.2.9.5.2.3.2.7.1 1-.5-.4-.8-1-1-1.5z" opacity=".3" fill="#ffebaf"/><path d="M97.3 27.6c.3.2.6.5.6.9-.3-.2-.5-.6-.6-.9z" opacity=".6" fill="#ffeaab"/></g><g id="el_CuQyh8PtBD9"><path d="M110.6 28.9c0 .4-.3.8-.6 1-.3.1-.7.1-1 0-.6-.2-1.1-.8-1.1-1.5 0-.6.4-1.3 1-1.5 1.2-.3 1.8 1 1.7 2z" fill="#07c8c8"/><path d="M108.8 27.3c-.3.1-.5.3-.6.5-.1.3-.1.5 0 .8s.2.6.5.8c.3.2.6.3.9.2.3-.1.6-.4.6-.7-.2.1-.6.1-.9 0-.2-.1-.4-.4-.5-.7-.1-.2-.1-.6 0-.9z" fill="#0697b3"/><path d="M109.4 29.5c-.3 0-.5-.1-.7-.3-.1-.1-.4-.7-.1-.6.1 0 .3.4.3.5.1.1.3.2.5.4z" opacity=".3" fill="#a51701"/><path d="M109.3 27.1c.4 0 .7.2.9.5.2.3.2.7.1 1-.5-.3-.8-.9-1-1.5z" opacity=".3" fill="#ffebaf"/><path d="M109.6 27.3c.3.2.6.5.5.9-.2-.2-.4-.6-.5-.9z" opacity=".6" fill="#ffeaab"/></g></g></g><radialGradient id="SVGID_5_" cx="193.804" cy="3.338" r="60.453" gradientTransform="matrix(1 -.0003 -.0003 -1 .287 142.085)" gradientUnits="userSpaceOnUse"><stop offset="0" stop-color="#faf1d5"/><stop offset=".026" stop-color="#fbecb7"/><stop offset=".075" stop-color="#fce387"/><stop offset=".124" stop-color="#fddc5d"/><stop offset=".174" stop-color="#fed63c"/><stop offset=".225" stop-color="#fed221"/><stop offset=".277" stop-color="#ffcf0f"/><stop offset=".331" stop-color="#ffcd04"/><stop offset=".39" stop-color="#fc0"/><stop offset=".628" stop-color="#f8b208"/><stop offset="1" stop-color="#eb8117"/></radialGradient><path fill="url(#SVGID_5_)" d="M162.4 65.4l31.2 6.4-18.1 23.5 2.7 24.4-32.4-5.6z"/><path d="M178.2 119.7l-8.1-1.2-8.1-1.2c-5.4-.8-10.8-1.7-16.2-2.6l-.8-.1.3-.7 4.2-12.2c1.4-4.1 2.8-8.1 4.2-12.1l4.4-12.1 4.5-12c-1.2 4.1-2.5 8.2-3.8 12.3l-4 12.2c-1.3 4.1-2.7 8.1-4.1 12.2l-4.2 12.1-.5-.9 16.2 3c2.7.5 5.4 1 8.1 1.6 2.5.6 5.2 1.1 7.9 1.7z" fill="#a13c19"/><path d="M162.4 65.4c2.6.4 5.2.9 7.8 1.3s5.2.9 7.8 1.4c5.2 1 10.4 1.9 15.6 3l1 .2-.6.8-4.5 5.9-4.5 5.9c-3 3.9-6.1 7.8-9.1 11.7l.1-.4 1.1 12.2c.2 2 .3 4.1.5 6.1s.3 4.1.5 6.1c-.3-2-.6-4-.9-6.1-.3-2-.6-4.1-.8-6.1l-1.6-12.2V95h.2c3-4 6-7.9 9-11.8l4.5-5.9 4.6-5.9.4 1c-5.2-1.1-10.4-2.2-15.6-3.4-2.6-.6-5.2-1.1-7.8-1.8-2.5-.5-5.1-1.1-7.7-1.8z" fill="#faefc1"/><radialGradient id="SVGID_6_" cx="21.228" cy="101.464" r="143.673" gradientTransform="matrix(1 0 0 -1 0 142)" gradientUnits="userSpaceOnUse"><stop offset="0" stop-color="#faf1d5"/><stop offset=".026" stop-color="#fbecb7"/><stop offset=".075" stop-color="#fce387"/><stop offset=".124" stop-color="#fddc5d"/><stop offset=".174" stop-color="#fed63c"/><stop offset=".225" stop-color="#fed221"/><stop offset=".277" stop-color="#ffcf0f"/><stop offset=".331" stop-color="#ffcd04"/><stop offset=".39" stop-color="#fc0"/><stop offset=".628" stop-color="#f8b208"/><stop offset="1" stop-color="#eb8117"/></radialGradient><path fill="url(#SVGID_6_)" d="M28.4 54.9l139.5-5-8.4 53.1H35.7z"/><path fill="#862a5d" d="M35.7 103l16.9 10.5-3.9-10.5zM148.8 103h10.7l-14.6 11.6z"/><path opacity=".4" fill="#862a5d" d="M55.4 103l1 4.2 80.3 4.1 2.6-8.3zM35.7 103H48l2.1 5.5zM148.8 103h10.7l-12.5 5.4z"/><path opacity=".3" fill="#862a5d" d="M30.1 66.1l5.6 36.9 16.1 10-18.4-5.8-11.3-39.5zM145.8 114l13.7-11 5.8-37 8 1.6-8.9 37.5z"/><path d="M167.9 49.9L166 63.2l-1.9 13.3-4 26.6-.1.5h-.5l-31 .1-31-.1c-10.3 0-20.6-.1-31-.2-5.2 0-10.3-.1-15.5-.2l-15.3-.2 15.5-.2c5.2-.1 10.3-.1 15.5-.2 10.3-.1 20.6-.2 31-.2l31-.1 31 .1-.6.5 4.4-26.5 2.2-13.2 2.2-13.3z" fill="#a13c19"/><path d="M35.7 103c-1.4-8-2.7-16-4-24l-3.8-24-.1-.6h.6L63.2 53c11.6-.5 23.2-.8 34.9-1.2l17.4-.6 17.4-.5c11.6-.3 23.3-.6 34.9-.8-11.6.6-23.2 1.2-34.9 1.7l-17.4.8-17.4.6c-11.6.4-23.2.9-34.9 1.3l-34.9 1.1.5-.6 3.5 24.1C33.5 87 34.6 95 35.7 103z" fill="#faefc1"/><path opacity=".45" fill="#cff3ed" d="M22.2 90.6l-15.5-17 19.8-4-11 6zM23.4 97.5l-3.5 19.8 8.5-1.8-3.7-.9zM169.7 69.6l17.1 3.9-12.4 17.1 4.9-14.8zM173.3 101.7l1.3 13.8-11.5-2 7.7-2.2zM38.7 100.3l-6.5-42.4 130.9-4-.7 8-1.9-5.2-120.7 6.2L41 98.2l11.6 2.1z"/></g><g id="el_b8nsJfVbQiT"><path opacity=".4" fill="#862a5d" d="M117 118.5l36.5 6.1-3.9 7.8z"/><radialGradient id="SVGID_7_" cx="261.07" cy="31.988" r="32.842" gradientTransform="scale(1 -1) rotate(-8.731 -775.14 928.834)" gradientUnits="userSpaceOnUse"><stop offset="0" stop-color="#faf1d5"/><stop offset=".026" stop-color="#fbecb7"/><stop offset=".075" stop-color="#fce387"/><stop offset=".124" stop-color="#fddc5d"/><stop offset=".174" stop-color="#fed63c"/><stop offset=".225" stop-color="#fed221"/><stop offset=".277" stop-color="#ffcf0f"/><stop offset=".331" stop-color="#ffcd04"/><stop offset=".39" stop-color="#fc0"/><stop offset=".628" stop-color="#f8b208"/><stop offset="1" stop-color="#eb8117"/></radialGradient><path fill="url(#SVGID_7_)" d="M115.3 115.6l36.8 3.4-3.3 8.1z"/><path d="M152.1 119c-.4 1.4-.9 2.8-1.4 4.1-.5 1.4-1 2.7-1.5 4.1l-.1.4-.4-.1-8.4-2.7c-2.8-.9-5.6-1.9-8.4-2.9-5.6-2-11.1-4.1-16.5-6.4 5.7 1.5 11.3 3.3 16.9 5.1 2.8.9 5.6 1.9 8.4 2.9 2.8 1 5.5 2 8.3 3.1l-.6.3c.6-1.3 1.2-2.6 1.8-4 .6-1.3 1.2-2.6 1.9-3.9z" fill="#a13c19"/><path d="M115.3 115.6c6.2.1 12.3.5 18.5 1.1 6.1.6 12.2 1.3 18.3 2.4-6.2 0-12.3-.5-18.5-1.1-6.1-.6-12.2-1.3-18.3-2.4z" fill="#faefc1"/></g><g id="el_sf1BAdbTfek"><path opacity=".4" fill="#862a5d" d="M75.7 115.9l-31.5 4.9 3.4 7.2z"/><radialGradient id="SVGID_8_" cx="237.576" cy="97.108" r="28.309" gradientTransform="matrix(-.9884 .1518 -.1631 -1.0624 329.431 180.567)" gradientUnits="userSpaceOnUse"><stop offset="0" stop-color="#faf1d5"/><stop offset=".026" stop-color="#fbecb7"/><stop offset=".075" stop-color="#fce387"/><stop offset=".124" stop-color="#fddc5d"/><stop offset=".174" stop-color="#fed63c"/><stop offset=".225" stop-color="#fed221"/><stop offset=".277" stop-color="#ffcf0f"/><stop offset=".331" stop-color="#ffcd04"/><stop offset=".39" stop-color="#fc0"/><stop offset=".628" stop-color="#f8b208"/><stop offset="1" stop-color="#eb8117"/></radialGradient><path fill="url(#SVGID_8_)" d="M76.7 114L45 116.9l2.9 7.5z"/><path d="M45 116.9c.4 1.3.8 2.6 1.3 3.8.4 1.3.9 2.5 1.3 3.8l.1.4.4-.1c2.4-.8 4.8-1.6 7.3-2.4 2.4-.8 4.8-1.7 7.2-2.6 4.8-1.8 9.5-3.6 14.2-5.7-4.9 1.4-9.8 2.9-14.6 4.6-2.4.8-4.8 1.7-7.2 2.6s-4.8 1.8-7.1 2.8l.5.2c-.5-1.2-1.1-2.5-1.6-3.7-.7-1.3-1.2-2.5-1.8-3.7z" fill="#a13c19"/><path d="M76.7 114c-5.3 0-10.6.4-15.9.8-5.3.5-10.6 1.1-15.8 2 5.3 0 10.6-.3 15.9-.8 5.3-.4 10.6-1 15.8-2z" fill="#faefc1"/></g><g id="el_7L49SGPSsCY"><path opacity=".4" fill="#862a5d" d="M137.8 48.4L181 38l-.6 11.2z"/><radialGradient id="SVGID_9_" cx="-349.341" cy="169.165" r="38.845" gradientTransform="matrix(.9725 -.233 -.2505 -1.0453 514.997 142.142)" gradientUnits="userSpaceOnUse"><stop offset="0" stop-color="#faf1d5"/><stop offset=".026" stop-color="#fbecb7"/><stop offset=".075" stop-color="#fce387"/><stop offset=".124" stop-color="#fddc5d"/><stop offset=".174" stop-color="#fed63c"/><stop offset=".225" stop-color="#fed221"/><stop offset=".277" stop-color="#ffcf0f"/><stop offset=".331" stop-color="#ffcd04"/><stop offset=".39" stop-color="#fc0"/><stop offset=".628" stop-color="#f8b208"/><stop offset="1" stop-color="#eb8117"/></radialGradient><path fill="url(#SVGID_9_)" d="M135.8 46.3l41.8-12.8.1 11.1z"/><path d="M177.6 33.5c.2 1.8.3 3.7.4 5.5.1 1.8.2 3.7.3 5.5v.5h-.5c-3.5.3-7 .5-10.5.7s-7 .3-10.5.5c-7 .2-14 .3-21 .1 7-.8 13.9-1.3 20.9-1.7 3.5-.2 7-.3 10.5-.4 3.5-.1 7-.2 10.5-.2l-.5.6c0-1.8.1-3.7.2-5.5 0-1.9.1-3.7.2-5.6z" fill="#a13c19"/><path d="M135.8 46.3c6.8-2.8 13.7-5.1 20.6-7.2 7-2.1 14-4.1 21.1-5.6-6.8 2.8-13.7 5.1-20.6 7.2-6.9 2.2-13.9 4.2-21.1 5.6z" fill="#faefc1"/></g><g id="el_R0bdSHDl9ua"><path opacity=".4" fill="#862a5d" d="M61.4 51.3l-40.9-7.2 1.2 10.4z"/><radialGradient id="SVGID_10_" cx="-94.095" cy="165.805" r="36.849" gradientTransform="matrix(-.9826 -.1856 .1995 -1.0562 -60.355 208.106)" gradientUnits="userSpaceOnUse"><stop offset="0" stop-color="#faf1d5"/><stop offset=".026" stop-color="#fbecb7"/><stop offset=".075" stop-color="#fce387"/><stop offset=".124" stop-color="#fddc5d"/><stop offset=".174" stop-color="#fed63c"/><stop offset=".225" stop-color="#fed221"/><stop offset=".277" stop-color="#ffcf0f"/><stop offset=".331" stop-color="#ffcd04"/><stop offset=".39" stop-color="#fc0"/><stop offset=".628" stop-color="#f8b208"/><stop offset="1" stop-color="#eb8117"/></radialGradient><path fill="url(#SVGID_10_)" d="M62.4 50.2L22.2 40l.4 10.5z"/><path d="M22.2 40c-.1 1.8-.1 3.5-.1 5.3V51h.5c3.3.1 6.6.1 9.9.2 3.3 0 6.6 0 10-.1 6.6-.1 13.3-.3 19.9-.9-6.6-.5-13.3-.6-19.9-.7-3.3 0-6.6 0-10 .1-3.3.1-6.6.2-10 .3l.5.5c-.1-1.7-.2-3.5-.4-5.2-.1-1.7-.2-3.5-.4-5.2z" fill="#a13c19"/><path d="M62.4 50.2c-6.5-2.3-13.2-4.2-19.9-5.9S29.1 41.1 22.2 40c6.5 2.3 13.2 4.2 19.9 5.9 6.7 1.7 13.4 3.3 20.3 4.3z" fill="#faefc1"/></g><g id="el_h0ny3Utu1Q8"><path opacity=".4" fill="#862a5d" d="M116.4 122.2l21.8 7.8-3.4 4.8z"/><radialGradient id="SVGID_11_" cx="172.964" cy="139.198" r="20.605" gradientTransform="matrix(.9529 .3033 .326 -1.0242 -95.55 210.245)" gradientUnits="userSpaceOnUse"><stop offset="0" stop-color="#faf1d5"/><stop offset=".026" stop-color="#fbecb7"/><stop offset=".075" stop-color="#fce387"/><stop offset=".124" stop-color="#fddc5d"/><stop offset=".174" stop-color="#fed63c"/><stop offset=".225" stop-color="#fed221"/><stop offset=".277" stop-color="#ffcf0f"/><stop offset=".331" stop-color="#ffcd04"/><stop offset=".39" stop-color="#fc0"/><stop offset=".628" stop-color="#f8b208"/><stop offset="1" stop-color="#eb8117"/></radialGradient><path fill="url(#SVGID_11_)" d="M116.1 120.8l22.5 5.6-3 5.1z"/><path d="M138.6 126.4c-.4.9-.9 1.7-1.3 2.6-.4.9-.9 1.7-1.4 2.6l-.1.2-.3-.1c-1.7-.8-3.3-1.7-4.9-2.6-1.6-.9-3.3-1.8-4.9-2.7-3.2-1.8-6.4-3.7-9.6-5.7 3.4 1.5 6.7 3.2 10 5 1.6.9 3.3 1.8 4.9 2.7 1.6.9 3.2 1.8 4.8 2.8l-.4.1c.5-.8 1-1.6 1.6-2.5.5-.8 1-1.6 1.6-2.4z" fill="#a13c19"/><path d="M116.1 120.8c3.8.6 7.6 1.5 11.4 2.4 3.7 1 7.5 2 11.1 3.3-3.8-.6-7.6-1.5-11.4-2.4-3.7-1-7.5-2-11.1-3.3z" fill="#faefc1"/></g></g><path d="M37.7 64.1c-.5 0-1-.2-1.3-.5-.1-.1-.2-.2-.2-.3-.1-.1-.2-.2-.2-.3s-.1-.2-.1-.3v-.4-.4c0-.1.1-.2.1-.3s.1-.2.2-.3c.1-.1.1-.2.2-.3.1-.1.2-.2.3-.2.1-.1.2-.1.3-.2.1 0 .2-.1.3-.1h.7c.1 0 .2.1.3.1s.2.1.3.2c.1.1.2.1.3.2.1.1.2.2.2.3.1.1.1.2.2.3 0 .1.1.2.1.3v.8c0 .1-.1.2-.1.3s-.1.2-.2.3c-.1.1-.1.2-.2.3-.1.1-.2.2-.3.2-.1.1-.2.1-.3.2-.1 0-.2.1-.3.1h-.3zm3 27.4h.2c1-.1 1.7-1 1.6-2-.1-1-1-1.7-2-1.6-1 .1-1.7 1-1.6 2 .1.9.9 1.6 1.8 1.6zm-1-9.1h.2c1-.1 1.7-1 1.6-2-.1-1-1-1.7-2-1.6-1 .1-1.7 1-1.6 2 .1.9.9 1.6 1.8 1.6zm-1-9.1h.2c1-.1 1.7-1 1.6-2-.1-1-1-1.7-2-1.6-1 .1-1.7 1-1.6 2 .1.9.9 1.6 1.8 1.6zm3.4 27.3c.1 0 .2-.1.3-.1s.2-.1.3-.2.2-.1.3-.2.2-.2.2-.3c.1-.1.1-.2.2-.3 0-.1.1-.2.1-.3v-.4-.4c0-.1-.1-.2-.1-.3 0-.1-.1-.2-.2-.3-.1-.1-.1-.2-.2-.3-.1-.1-.2-.2-.3-.2-.1-.1-.2-.1-.3-.2-.1 0-.2-.1-.3-.1-.2-.1-.5-.1-.7 0-.1 0-.2.1-.3.1s-.2.1-.3.2-.2.1-.3.2-.2.2-.2.3c-.1.1-.1.2-.2.3 0 .1-.1.2-.1.3v.8c0 .1.1.2.1.3 0 .1.1.2.2.3.1.1.1.2.2.3.1.1.2.2.3.2.1.1.2.1.3.2.1 0 .2.1.3.1h.7zm7.6 0c1 0 1.8-.8 1.8-1.8s-.8-1.8-1.8-1.8-1.8.8-1.8 1.8.8 1.8 1.8 1.8zm8.1-.1c1 0 1.8-.8 1.8-1.8s-.8-1.8-1.8-1.8-1.8.8-1.8 1.8c-.1 1 .7 1.8 1.8 1.8zm8 0c1 0 1.8-.8 1.8-1.8s-.8-1.8-1.8-1.8-1.8.8-1.8 1.8.8 1.8 1.8 1.8zm8 0c1 0 1.8-.8 1.8-1.8s-.8-1.8-1.8-1.8-1.8.8-1.8 1.8.8 1.8 1.8 1.8zm8-.1c1 0 1.8-.8 1.8-1.8s-.8-1.8-1.8-1.8-1.8.8-1.8 1.8.8 1.8 1.8 1.8zm8 0c1 0 1.8-.8 1.8-1.8s-.8-1.8-1.8-1.8-1.8.8-1.8 1.8.8 1.8 1.8 1.8zm8.1-.1c1 0 1.8-.8 1.8-1.8s-.8-1.8-1.8-1.8-1.8.8-1.8 1.8c-.1 1 .8 1.8 1.8 1.8zm8 0c1 0 1.8-.8 1.8-1.8s-.8-1.8-1.8-1.8-1.8.8-1.8 1.8.8 1.8 1.8 1.8zm8-.1c1 0 1.8-.8 1.8-1.8s-.8-1.8-1.8-1.8-1.8.8-1.8 1.8.8 1.8 1.8 1.8zm8 0c1 0 1.8-.8 1.8-1.8s-.8-1.8-1.8-1.8-1.8.8-1.8 1.8.8 1.8 1.8 1.8zm8 0c1 0 1.8-.8 1.8-1.8s-.8-1.8-1.8-1.8-1.8.8-1.8 1.8c0 .9.8 1.8 1.8 1.8zm8.1-.1c1 0 1.8-.8 1.8-1.8s-.8-1.8-1.8-1.8-1.8.8-1.8 1.8c-.1 1 .8 1.8 1.8 1.8zm8 0c1 0 1.8-.8 1.8-1.8s-.8-1.8-1.8-1.8-1.8.8-1.8 1.8.8 1.8 1.8 1.8zm9.3-.6c.3-.3.5-.8.5-1.3s-.2-1-.5-1.3c-.1-.1-.2-.2-.3-.2-.1-.1-.2-.1-.3-.2-.1 0-.2-.1-.3-.1-.6-.1-1.2.1-1.7.5-.3.3-.5.8-.5 1.3s.2 1 .5 1.3c.1.1.2.2.3.2.1.1.2.1.3.2.1 0 .2.1.3.1h.4c.5 0 1-.2 1.3-.5zm.2-7.6c.9 0 1.6-.6 1.8-1.5.2-1-.5-1.9-1.5-2.1-1-.2-1.9.5-2.1 1.5-.2 1 .5 1.9 1.5 2.1h.3zm1.4-8.2c.9 0 1.6-.6 1.8-1.5.2-1-.5-1.9-1.5-2.1-1-.2-1.9.5-2.1 1.5-.2 1 .5 1.9 1.5 2.1h.3zm1.5-8.2c.9 0 1.6-.6 1.8-1.5.2-1-.5-1.9-1.5-2.1-1-.2-1.9.5-2.1 1.5-.2 1 .5 1.9 1.5 2.1h.3zm1.4-8.1c.9 0 1.6-.6 1.8-1.5.2-1-.5-1.9-1.5-2.1-1-.2-1.9.5-2.1 1.5-.2 1 .5 1.9 1.5 2.1.1-.1.2 0 .3 0zm1.9-8.3c.1 0 .2-.1.3-.1s.2-.1.3-.2c.1-.1.2-.1.3-.2.1-.1.2-.2.2-.3.1-.1.1-.2.2-.3 0-.1.1-.2.1-.3v-.4-.4c0-.1-.1-.2-.1-.3s-.1-.2-.2-.3c-.1-.1-.1-.2-.2-.3-.1-.1-.2-.2-.3-.2-.1-.1-.2-.1-.3-.2-.1 0-.2-.1-.3-.1-.6-.1-1.2.1-1.7.5-.3.3-.5.8-.5 1.3v.4c0 .1.1.2.1.3s.1.2.2.3c.1.1.1.2.2.3.3.3.8.5 1.3.5.1.1.2.1.4 0zM45.9 63.8s.1 0 0 0c1.1 0 1.9-.9 1.8-1.9 0-1-.9-1.8-1.9-1.8-1 0-1.8.9-1.8 1.9.1 1 .9 1.8 1.9 1.8zm8.3-.3c1.1 0 1.9-.9 1.8-1.9 0-1-.9-1.8-1.9-1.8-1 0-1.8.9-1.8 1.9.1 1 .9 1.8 1.9 1.8zm8.2-.4s.1 0 0 0c1.1 0 1.9-.9 1.8-1.9 0-1-.9-1.8-1.9-1.8-1 0-1.8.9-1.8 1.9.1 1.1.9 1.8 1.9 1.8zm8.2-.3c.1 0 .1 0 0 0 1.1 0 1.9-.9 1.8-1.9 0-1-.9-1.8-1.9-1.8-1 0-1.8.9-1.8 1.9.2 1 1 1.8 1.9 1.8zm8.3-.3c1.1 0 1.9-.9 1.8-1.9 0-1-.9-1.8-1.9-1.8-1 0-1.8.9-1.8 1.9.1 1 .9 1.8 1.9 1.8zm8.2-.4c.1 0 .1 0 0 0 1.1 0 1.9-.9 1.8-1.9 0-1-.9-1.8-1.9-1.8-1 0-1.8.9-1.7 1.9 0 1.1.9 1.8 1.8 1.8zm8.3-.3c1.1 0 1.9-.9 1.8-1.9 0-1-.9-1.8-1.9-1.8-1 0-1.8.9-1.7 1.9 0 1.1.8 1.8 1.8 1.8zm8.2-.3s.1 0 0 0c1.1 0 1.9-.9 1.8-1.9 0-1-.9-1.8-1.9-1.8-1 0-1.8.9-1.8 1.9.1 1 .9 1.8 1.9 1.8zm8.3-.3c1.1 0 1.9-.9 1.8-1.9 0-1-.9-1.8-1.9-1.8-1 0-1.8.9-1.8 1.9.1 1 .9 1.8 1.9 1.8zm8.2-.4c1.1 0 1.9-.9 1.8-1.9 0-1-.9-1.8-1.9-1.8-1 0-1.8.9-1.8 1.9.1 1.1.9 1.8 1.9 1.8zm8.2-.3c.1 0 .1 0 0 0 1.1 0 1.9-.9 1.8-1.9 0-1-.9-1.8-1.9-1.8-1 0-1.8.9-1.8 1.9.1 1 1 1.8 1.9 1.8zm8.3-.3c1.1 0 1.9-.9 1.8-1.9 0-1-.9-1.8-1.9-1.8-1 0-1.8.9-1.8 1.9.1 1 .9 1.8 1.9 1.8zm8.2-.4s.1 0 0 0c1.1 0 1.9-.9 1.8-1.9 0-1-.9-1.8-1.9-1.7-1 0-1.8.9-1.8 1.9.1 1 .9 1.7 1.9 1.7zm8.3-.3c1.1 0 1.9-.9 1.8-1.9 0-1-.9-1.8-1.9-1.7-1 0-1.8.9-1.7 1.9 0 .9.8 1.7 1.8 1.7z" opacity=".4" fill="#862a5d"/><path d="M36.9 63.5c-.5 0-1-.2-1.3-.5-.1-.1-.2-.2-.2-.3-.1-.1-.1-.2-.2-.3 0-.1-.1-.2-.1-.3v-.4-.4c0-.1.1-.2.1-.3s.1-.2.2-.3c.1-.1.1-.2.2-.3.1-.1.2-.2.3-.2.1-.1.2-.1.3-.2.1 0 .2-.1.3-.1h.7c.1 0 .2.1.3.1s.2.1.3.2c.1.1.2.1.3.2.1.1.2.2.2.3.1.1.1.2.2.3 0 .1.1.2.1.3v.8c0 .1-.1.2-.1.3s-.1.2-.2.3c-.1.1-.1.2-.2.3-.1.1-.2.2-.3.2-.1.1-.2.1-.3.2-.1 0-.2.1-.3.1h-.3zm3 27.4h.2c1-.1 1.7-1 1.6-2-.1-1-1-1.7-2-1.6-1 .1-1.7 1-1.6 2 .1.9.9 1.6 1.8 1.6zm-1-9.2h.2c1-.1 1.7-1 1.6-2-.1-1-1-1.7-2-1.6-1 .1-1.7 1-1.6 2 .1.9.9 1.6 1.8 1.6zm-1-9.1h.2c1-.1 1.7-1 1.6-2-.1-1-1-1.7-2-1.6-1 .1-1.7 1-1.6 2 .1.9.9 1.6 1.8 1.6zm3.4 27.3c.1 0 .2-.1.3-.1s.2-.1.3-.2.2-.1.3-.2.2-.2.2-.3c.1-.1.1-.2.2-.3 0-.1.1-.2.1-.3v-.4-.4c0-.1-.1-.2-.1-.3 0-.1-.1-.2-.2-.3-.1-.1-.1-.2-.2-.3-.1-.1-.2-.2-.3-.2-.1-.1-.2-.1-.3-.2-.1 0-.2-.1-.3-.1-.2-.1-.5-.1-.7 0-.1 0-.2.1-.3.1s-.2.1-.3.2-.2.1-.3.2-.2.2-.2.3c-.1.1-.1.2-.2.3 0 .1-.1.2-.1.3v.8c0 .1.1.2.1.3 0 .1.1.2.2.3.1.1.1.2.2.3.1.1.2.2.3.2.1.1.2.1.3.2.1 0 .2.1.3.1h.4c.1.1.2.1.3 0zm7.7 0c1 0 1.8-.8 1.8-1.8s-.8-1.8-1.8-1.8-1.8.8-1.8 1.8.8 1.8 1.8 1.8zm8 0c1 0 1.8-.8 1.8-1.8s-.8-1.8-1.8-1.8-1.8.8-1.8 1.8.8 1.8 1.8 1.8zm8-.1c1 0 1.8-.8 1.8-1.8s-.8-1.8-1.8-1.8-1.8.8-1.8 1.8.8 1.8 1.8 1.8zm8 0c1 0 1.8-.8 1.8-1.8s-.8-1.8-1.8-1.8-1.8.8-1.8 1.8.8 1.8 1.8 1.8zm8.1 0c1 0 1.8-.8 1.8-1.8s-.8-1.8-1.8-1.8-1.8.8-1.8 1.8c-.1 1 .8 1.8 1.8 1.8zm8-.1c1 0 1.8-.8 1.8-1.8s-.8-1.8-1.8-1.8-1.8.8-1.8 1.8.8 1.8 1.8 1.8zm8 0c1 0 1.8-.8 1.8-1.8s-.8-1.8-1.8-1.8-1.8.8-1.8 1.8.8 1.8 1.8 1.8zm8-.1c1 0 1.8-.8 1.8-1.8s-.8-1.8-1.8-1.8-1.8.8-1.8 1.8.8 1.8 1.8 1.8zm8 0c1 0 1.8-.8 1.8-1.8s-.8-1.8-1.8-1.8-1.8.8-1.8 1.8.8 1.8 1.8 1.8zm8.1-.1c1 0 1.8-.8 1.8-1.8s-.8-1.8-1.8-1.8-1.8.8-1.8 1.8c-.1 1 .8 1.8 1.8 1.8zm8 0c1 0 1.8-.8 1.8-1.8s-.8-1.8-1.8-1.8-1.8.8-1.8 1.8.8 1.8 1.8 1.8zm8 0c1 0 1.8-.8 1.8-1.8s-.8-1.8-1.8-1.8-1.8.8-1.8 1.8c0 .9.8 1.8 1.8 1.8zm8-.1c1 0 1.8-.8 1.8-1.8s-.8-1.8-1.8-1.8-1.8.8-1.8 1.8.8 1.8 1.8 1.8zm9.3-.6c.3-.3.5-.8.5-1.3s-.2-1-.5-1.3c-.1-.1-.2-.2-.3-.2-.1-.1-.2-.1-.3-.2-.1 0-.2-.1-.3-.1-.6-.1-1.2.1-1.7.5-.3.3-.5.8-.5 1.3s.2 1 .5 1.3c.1.1.2.2.3.2.1.1.2.1.3.2.1 0 .2.1.3.1h.4c.5.1 1-.1 1.3-.5zm.2-7.6c.9 0 1.6-.6 1.8-1.5.2-1-.5-1.9-1.5-2.1-1-.2-1.9.5-2.1 1.5-.2 1 .5 1.9 1.5 2.1h.3zm1.5-8.2c.9 0 1.6-.6 1.8-1.5.2-1-.5-1.9-1.5-2.1-1-.2-1.9.5-2.1 1.5-.2 1 .5 1.9 1.5 2.1h.3zm1.4-8.1c.9 0 1.6-.6 1.8-1.5.2-1-.5-1.9-1.5-2.1-1-.2-1.9.5-2.1 1.5-.2 1 .5 1.9 1.5 2.1h.3zm1.5-8.2c.9 0 1.6-.6 1.8-1.5.2-1-.5-1.9-1.5-2.1-1-.2-1.9.5-2.1 1.5-.2 1 .5 1.9 1.5 2.1h.3zm1.8-8.2c.1 0 .2-.1.3-.1s.2-.1.3-.2c.1-.1.2-.1.3-.2.1-.1.2-.2.2-.3.1-.1.1-.2.2-.3 0-.1.1-.2.1-.3v-.4-.4c0-.1-.1-.2-.1-.3s-.1-.2-.2-.3c-.1-.1-.1-.2-.2-.3-.1-.1-.2-.2-.3-.2-.1-.1-.2-.1-.3-.2-.1 0-.2-.1-.3-.1-.6-.1-1.2.1-1.7.5-.3.3-.5.8-.5 1.3v.4c0 .1.1.2.1.3s.1.2.2.3c.1.1.1.2.2.3.3.3.8.5 1.3.5h.4zM45.2 63.1c1.1 0 1.9-.9 1.8-1.9 0-1-.9-1.8-1.9-1.8-1 0-1.8.9-1.8 1.9.1 1.1.9 1.8 1.9 1.8zm8.2-.3s.1 0 0 0c1.1 0 1.9-.9 1.8-1.9 0-1-.9-1.8-1.9-1.8-1 0-1.8.9-1.8 1.9.1 1 .9 1.8 1.9 1.8zm8.2-.3c.1 0 .1 0 0 0 1.1 0 1.9-.9 1.8-1.9 0-1-.9-1.8-1.9-1.8-1 0-1.8.9-1.8 1.9.2 1 1 1.8 1.9 1.8zm8.3-.3s0-.1 0 0c1.1 0 1.9-.9 1.8-1.9 0-1-.9-1.8-1.9-1.8-1 0-1.8.9-1.8 1.9.1 1 .9 1.8 1.9 1.8zm8.2-.4c.1 0 .1 0 0 0 1.1 0 1.9-.9 1.8-1.9 0-1-.9-1.8-1.9-1.8-1 0-1.8.9-1.8 1.9.1 1.1.9 1.8 1.9 1.8zm8.3-.3c1.1 0 1.9-.9 1.8-1.9 0-1-.9-1.8-1.9-1.8-1 0-1.8.9-1.7 1.9 0 1 .8 1.8 1.8 1.8zm8.2-.3s.1 0 0 0c1.1 0 1.9-.9 1.8-1.9 0-1-.9-1.8-1.9-1.8-1 0-1.8.9-1.7 1.9 0 1 .8 1.8 1.8 1.8zm8.2-.4c.1 0 .1 0 0 0 1.1 0 1.9-.9 1.8-1.9 0-1-.9-1.8-1.9-1.8-1 0-1.8.9-1.8 1.9.2 1.1 1 1.8 1.9 1.8zm8.3-.3c1.1 0 1.9-.9 1.8-1.9 0-1-.9-1.8-1.9-1.8-1 0-1.8.9-1.8 1.9.1 1 .9 1.8 1.9 1.8zm8.2-.3c.1 0 .1 0 0 0 1.1 0 1.9-.9 1.8-1.9 0-1-.9-1.8-1.9-1.8-1 0-1.8.9-1.8 1.9.1 1 1 1.8 1.9 1.8zm8.3-.4c1.1 0 1.9-.9 1.8-1.9 0-1-.9-1.8-1.9-1.8-1 0-1.8.9-1.8 1.9.1 1.1.9 1.8 1.9 1.8zm8.2-.3s.1 0 0 0c1.1 0 1.9-.9 1.8-1.9 0-1-.9-1.8-1.9-1.8-1 0-1.8.9-1.8 1.9.1 1 .9 1.8 1.9 1.8zm8.3-.3c1.1 0 1.9-.9 1.8-1.9 0-1-.9-1.8-1.9-1.7-1 0-1.8.9-1.8 1.9.1.9.9 1.7 1.9 1.7zm8.2-.4s.1 0 0 0c1.1 0 1.9-.9 1.8-1.9 0-1-.9-1.8-1.9-1.7-1 0-1.8.9-1.7 1.9 0 1 .8 1.7 1.8 1.7z" fill="#a11ea2"/><path d="M40.5 98.3h-.2-.1c-.1 0-.1 0-.1-.1 0 0-.1 0-.1-.1l-.1-.1-.1-.1v-.4-.2s0-.1.1-.1l.1-.1c.1-.1.1-.1.2-.1h.7s.1 0 .1.1l.1.1.1.2s0 .2.1.2v.5l-.1.1s0 .1-.1.1l-.1.1c-.3-.1-.4-.1-.5-.1.1 0 .1 0 0 0zm8 0c-.4 0-.7-.3-.7-.7 0-.4.3-.7.7-.7s.7.3.7.7c0 .2-.1.4-.2.5-.1.1-.3.2-.5.2zm8 0c-.4 0-.7-.3-.7-.7 0-.4.3-.7.7-.7s.7.3.7.7c0 .2-.1.4-.2.5-.1.1-.3.2-.5.2zm8.1-.1c-.4 0-.7-.3-.7-.7 0-.4.3-.7.7-.7s.7.3.7.7c0 .2-.1.4-.2.5-.2.1-.3.2-.5.2zm8 0c-.4 0-.7-.3-.7-.7 0-.2.1-.4.2-.5s.3-.2.5-.2c.4 0 .7.3.7.7 0 .2-.1.4-.2.5-.2.1-.3.2-.5.2zm8-.1c-.4 0-.7-.3-.7-.7 0-.2.1-.4.2-.5s.2-.2.5-.2c.4 0 .7.3.7.7 0 .4-.3.7-.7.7zm8 0c-.4 0-.7-.3-.7-.7 0-.2.1-.4.2-.5s.3-.2.5-.2c.4 0 .7.3.7.7 0 .4-.3.7-.7.7zm8-.1c-.4 0-.7-.3-.7-.7 0-.4.3-.7.7-.7.4 0 .7.3.7.7 0 .4-.3.7-.7.7zm8.1 0c-.4 0-.7-.3-.7-.7 0-.2.1-.4.2-.5s.3-.2.5-.2c.4 0 .7.3.7.7 0 .4-.3.7-.7.7zm8 0c-.4 0-.7-.3-.7-.7 0-.2.1-.4.2-.5s.3-.2.5-.2c.4 0 .7.3.7.7 0 .2-.1.4-.2.5-.2.1-.3.1-.5.2zm8-.1c-.4 0-.7-.3-.7-.7 0-.2.1-.3.2-.5.1-.1.3-.2.5-.2.4 0 .7.3.7.7 0 .4-.3.7-.7.7zm8 0c-.4 0-.7-.3-.7-.7 0-.4.3-.7.7-.7s.7.3.7.7c0 .2-.1.4-.2.5s-.3.2-.5.2zm8-.1c-.4 0-.7-.3-.7-.7 0-.4.3-.7.7-.7s.7.3.7.7c0 .2-.1.4-.2.5-.1.1-.3.2-.5.2zm8.1 0c-.4 0-.7-.3-.7-.7 0-.4.3-.7.7-.7s.7.3.7.7c0 .2-.1.4-.2.5-.2.1-.3.2-.5.2zm8-.1H152.5l-.1-.1h-.1c-.2-.2-.2-.3-.2-.5s.1-.4.2-.5c.1-.1.3-.2.5-.2h.2l.1.1.1.1c.1.1.2.3.2.5s-.1.4-.2.5c0 .1-.2.1-.4.1zm1.5-8.1h-.1c-.4-.1-.6-.4-.6-.8.1-.3.3-.6.7-.6h.1c.4.1.6.4.6.8-.1.3-.4.6-.7.6zm-114.8-.4c-.3 0-.6-.3-.7-.6 0-.2 0-.4.1-.5s.3-.2.5-.3c.4 0 .7.3.8.6 0 .4-.2.7-.7.8zm116.2-7.8h-.1c-.2 0-.3-.1-.4-.3-.1-.2-.1-.3-.1-.5.1-.3.3-.6.7-.6h.1c.2 0 .3.1.5.3.1.2.1.3.1.5-.2.4-.5.6-.8.6zM38.5 80.1c-.3 0-.6-.3-.7-.6 0-.4.2-.7.6-.8.4 0 .7.3.8.6 0 .4-.3.7-.7.8zm118.7-6.9h-.1c-.2 0-.3-.1-.5-.3-.1-.1-.1-.3-.1-.5.1-.3.3-.6.7-.6h.1c.4.1.6.4.6.8-.1.4-.4.6-.7.6zM37.5 71c-.3 0-.6-.3-.7-.6 0-.4.2-.7.6-.8.4 0 .7.3.8.6 0 .2 0 .4-.1.5-.2.2-.4.2-.6.3zm121.1-5.9h-.1c-.4-.1-.6-.4-.5-.8.1-.3.3-.6.7-.6h.1c.4.1.6.4.6.8-.2.3-.4.6-.8.6zM36.5 61.8c-.2 0-.4-.1-.5-.2 0 0 0-.1-.1-.1l-.1-.1v-.2-.1-.1c0-.1 0-.2.1-.2l.1-.1.1-.1c.1 0 .1-.1.1-.1h.5c.1 0 .1.1.1.1l.1.1.1.1.1.1v.4l-.1.2s0 .1-.1.1c0 0 0 .1-.1.1l-.1.1h-.2c.1.1 0 .1-.1.1.2-.1.1-.1.1-.1zm8.2-.3c-.4 0-.7-.3-.7-.7s.3-.7.7-.7.7.3.7.7-.3.7-.7.7zm8.2-.3c-.4 0-.7-.3-.7-.7s.3-.7.7-.7c.4 0 .7.3.7.7 0 .3-.2.7-.7.7zm8.2-.4c-.3 0-.6-.3-.6-.7s.3-.7.7-.7c.4 0 .7.3.7.7s-.3.7-.8.7c.1 0 .1 0 0 0zm8.3-.3c-.3 0-.6-.3-.6-.7 0-.2.1-.3.2-.5.1-.1.3-.2.5-.2.4 0 .7.3.7.7 0 .2-.1.4-.2.5-.2.1-.4.2-.6.2zm8.3-.3c-.4 0-.7-.3-.7-.7s.3-.7.7-.7c.4 0 .7.3.7.7 0 .2-.1.4-.2.5s-.3.2-.5.2zm8.2-.3c-.4 0-.7-.3-.7-.7s.3-.7.7-.7c.4 0 .7.3.7.7 0 .2-.1.4-.2.5s-.3.1-.5.2zm8.2-.4c-.4 0-.7-.3-.7-.7s.3-.7.7-.7c.4 0 .7.3.7.7 0 .2-.1.4-.2.5-.1.1-.2.2-.5.2zm8.3-.3c-.4 0-.7-.3-.7-.7s.3-.7.7-.7c.4 0 .7.3.7.7 0 .3-.3.7-.7.7zm8.2-.3c-.4 0-.7-.3-.7-.7 0-.2.1-.4.2-.5s.3-.2.5-.2c.4 0 .7.3.7.7 0 .3-.2.6-.7.7zm8.3-.4c-.4 0-.7-.3-.7-.7s.3-.7.7-.7c.4 0 .7.3.7.7s-.3.7-.7.7zm8.2-.3c-.4 0-.7-.3-.7-.7s.3-.7.7-.7c.4 0 .7.3.7.7 0 .4-.3.7-.7.7zm8.3-.3c-.4 0-.7-.3-.7-.7s.3-.7.7-.7c.4 0 .7.3.7.7 0 .3-.3.6-.7.7zm8.2-.4c-.4 0-.7-.3-.7-.7 0-.2.1-.4.2-.5.1-.1.3-.2.5-.2.4 0 .7.3.7.6 0 .2-.1.4-.2.5-.1.3-.3.3-.5.3zm8.2-.3c-.4 0-.7-.3-.7-.7 0-.2.1-.4.2-.5.1-.1.3-.2.5-.2.4 0 .7.3.7.6 0 .2-.1.4-.2.5-.1.2-.2.3-.5.3zm8.3-.3c-.2 0-.4-.1-.5-.2l-.1-.1v-.1-.2c0-.3.1-.4.2-.6.1-.1.3-.2.5-.2h.2s.1 0 .1.1c0 0 .1 0 .1.1l.1.1.1.1v.6c0 .1-.1.1-.1.1l-.1.1h-.1-.2c-.1.2-.2.2-.2.2z" opacity=".65" fill="#cff3ed"/><g id="el_ckaBa1mJknR"><g id="el_deuUYFFWM3Q" fill="#632745"><path d="M85.4 75.6h4.1v12.3h-4.1zM85.4 67.4h4.1v4.1h-4.1zM106 83.8h4.1v4.1H106zM62.6 67.4h-10v20.5h12.3V67.4h-2.3zm-1.8 4.1v4.1h-4.1v-4.1h4.1zm-4.1 12.3v-4.1h4.1v4.1h-4.1zM79.7 75.6h-6.6v-8.2H69v20.5h8.2v-4.1h4.1v-8.2h-1.6zm-6.6 8.2v-4.1h4.1v4.1h-4.1zM101.8 79.7v-4.1h-4.1v-4.1h-4.1v16.4h8.2v-4.1h-4.1v-4.1zM114.1 67.4h4.1v20.5h-4.1zM130.5 79.7v-4.1h-4.1v-4.3h-4.1v16.5h.2v.1h8v-4.1h-4.1v-4.1zM146.9 67.4h-4.1v8.2h-8.2v12.3h12.3V67.4zm-4.1 12.3v4.1h-4.1v-4.1h4.1z"/></g><g id="el_cIzp6VJQ7Zz" fill="#ffffc4"><path d="M84.4 74.6h4.1v12.3h-4.1zM84.4 66.4h4.1v4.1h-4.1zM104.9 82.8h4.1v4.1h-4.1zM61.6 66.4h-10v20.5h12.3V66.4h-2.3zm-1.8 4.1v4.1h-4.1v-4.1h4.1zm-4.1 12.3v-4.1h4.1v4.1h-4.1zM78.7 74.6h-6.6v-8.2H68v20.5h8.2v-4.1h4.1v-8.2h-1.6zm-6.6 8.2v-4.1h4.1v4.1h-4.1zM100.8 78.7v-4.1h-4.1v-4.1h-4.1v16.4h8.2v-4.1h-4.1v-4.1zM113.1 66.4h4.1v20.5h-4.1zM129.5 78.7v-4.1h-4.1v-4.3h-4.1v16.5h.2v.1h8v-4.1h-4.1v-4.1zM145.9 66.4h-4.1v8.2h-8.2v12.3h12.3V66.4zm-4.1 12.3v4.1h-4.1v-4.1h4.1z"/></g><g id="el_vN3pxSBxd2x" fill="#632745"><path d="M90.2 90.8V90h-2.4V95.4h.8v-1.5h1.5V93h.8v-2.3h-.7v.1zM88.5 93v-2.3h1.6V93h-1.6z"/><g id="el_8snPE5Vacm8"><path d="M92.3 93h2.3v.8h-2.3zM93.9 92.3h.7v-1.5h-.8V90h-1.5v.8h-.8V93h.8v-.8h1.6v.1zm-1.6-1.5h1.5v.8h-1.5v-.8z"/></g><path d="M98.4 90h-1.5v.8h-.8V90h-.7v3.8h.7v-2.3h.8v-.7h.8v3h.7zM111.3 90.8V90h-.7v-.8h-.8v.8h-.7v.8h.7v3h1.5V93h-.7v-2.2z"/><g id="el_BEx26VMoqqt"><path d="M112.1 92.3h.8v.8h-.8zM112.9 90h1.5v.8h-1.5z"/><path d="M114.4 90.8v.7h-1.6v.8h1.6v.7h-1.6v.8h2.3v-3z"/></g><g id="el_tHHxwvCBjWx"><path d="M102.2 89.2h-.7v6.1h.7v-1.5h1.5V93h-1.5z"/><path d="M103.7 89.2v1.6h-.7v.7h.7v-.7h.8v-1.6zM103.7 91.5h.8V93h-.8z"/><path d="M102.2 88.5h1.5v.8h-1.5z"/></g><g id="el_gDQwibmubZD"><path d="M108.3 92.3v-1.5h-.8v.7H106v-.7h-.7V93h.7v.8h2.3V93H106v-.7h1.5zM106 90h1.5v.8H106z"/></g><path d="M86.3 90.8V90h-1.6v.8H84V93h.7v.8h1.6V93h-1.5v-2.2h1.5V93h.7v-2.2z"/></g><g id="el_eQpmjAxyLCz" fill="#ffffc4"><path d="M89.8 90.4v-.8h-2.4V95h.8v-1.5h1.5v-.8h.8v-2.3h-.7zm-1.7 2.3v-2.3h1.6v2.3h-1.6z"/><g id="el_YlLjwMM5Ji1"><path d="M91.9 92.7h2.3v.8h-2.3zM93.4 91.9h.7v-1.5h-.8v-.8h-1.5v.8H91v2.3h.8v-.8h1.6zm-1.5-1.5h1.5v.8h-1.5v-.8z"/></g><path d="M98 89.6h-1.5v.8h-.8v-.8h-.8v3.8h.8v-2.3h.8v-.7h.7v3h.8zM110.9 90.4v-.8h-.8v-.7h-.7v.7h-.8v.8h.8v3h1.5v-.7h-.8v-2.3z"/><g id="el_rRck1AnmMbe"><path d="M111.7 91.9h.8v.8h-.8zM112.4 89.6h1.5v.8h-1.5z"/><path d="M113.9 90.4v.7h-1.5v.8h1.5v.8h-1.5v.7h2.3v-3z"/></g><g id="el_D-Wxfu5Vm6-"><path d="M101.8 88.9h-.8v6h.8v-1.5h1.5v-.7h-1.5z"/><path d="M103.3 88.9v1.5h-.8v.7h.8v-.7h.8v-1.5z"/><path d="M103.3 91.1h.8v1.5h-.8zM101.8 88.1h1.5v.8h-1.5z"/></g><g id="el_qj76CCN4RGr"><path d="M107.9 91.9v-1.5h-.8v.7h-1.5v-.7h-.8v2.3h.8v.7h2.3v-.7h-2.3v-.8h1.5zM105.6 89.6h1.5v.8h-1.5z"/></g><path d="M85.8 90.4v-.8h-1.5v.8h-.8v2.3h.8v.7h1.5v-.7h-1.5v-2.3h1.5v2.3h.8v-2.3z"/></g></g><path d="M70.8 34.6l-1.8-1c-.6-.3-1.2-.5-1.8-.8l-2.2.7-1.1.3c-.4.1-.7.3-1.1.4l-3.7 3L57 42v.2l1.6 3.3v.1h.1c1.9.4 3.8.6 5.7.6 1 0 1.9 0 2.9-.2 1-.1 1.9-.3 2.8-.5.4-.8.7-1.7.9-2.7.2-.9.2-1.9.3-2.8 0-1.7-.2-3.6-.5-5.4zM140.3 40l-2-4.5-3.4-2.8c-.3-.1-.7-.2-1-.3l-1-.3-2.1-.6c-.5.2-1.1.5-1.6.7l-1.6.8h-.1v.1c-.3 1.7-.5 3.4-.4 5.2 0 .9.1 1.7.3 2.6.1.9.4 1.7.8 2.5.9.2 1.7.3 2.6.5.9.1 1.8.1 2.7.1 1.8 0 3.6-.2 5.3-.6h.1v-.1l1.4-3.3z" opacity=".4" fill="#862a5d"/><g id="el_1wub__a6byu"><path d="M54.2 39.6l2.2-5 3.8-3.1 4.6-1.6 3.6 1.9c.7 4.3.7 8.2-.6 11.5-3.8.7-7.8.8-11.9-.1l-1.7-3.6z" fill="#07c8c8"/><path opacity=".3" fill="#ffebaf" d="M63.7 32.3l-3.5-.9-3.8 3.2.4 3.6-.9 4.9 6.2-.3-1.6-4.9 2.6-2.3z"/><path fill="#0697b3" d="M63.1 35.6l-2.6 2.3 1.6 4.9 5.4-4.9z"/><path fill="#006a94" d="M63.7 32.3l-.6 3.3 4.4 2.3.9-6.2zM62.1 42.8l5.4-4.9.3 5.3z"/><path d="M59.9 32.2c-1.1.9-2.1 1.8-3.2 2.6.1 1 .2 1.9.3 2.9 1 .1 2 .1 3-.2-.7 0-1.4-.6-1.6-1.3-.2-.7-.1-1.5.2-2.1.4-.6.8-1.3 1.3-1.9zM59.9 38.1c-.9.2-1.8.3-2.7.3-.3 1.4-.6 2.8-.9 4.3.6.1 1.1 0 1.7 0-.5-.7-.7-1.8-.3-2.6.3-1 1.3-1.9 2.2-2zM56.4 37c-.1-.5-.2-.9-.3-1.3-.6 1.2-1.2 2.5-1.7 3.8.2.4.3.8.5 1.1 0-.7 0-1.4.1-2 .2-.6.8-1.2 1.4-1.6z" opacity=".6" fill="#ffebaf"/><path d="M63.3 36.1c1.1.7 2.2 1.3 3.3 1.9-1.2 1.3-2.5 2.5-3.8 3.7-.1-.2-.2-.5-.3-.7.5.1.9-.3 1.1-.7.3-.6.4-1.3.3-2-.2-.7-.6-1.2-1.2-1.6l.6-.6z" fill="#006a94"/><path d="M66.2 30.8c-.5-.3-1-.5-1.5-.8-1.1.5-2.2 1-3.4 1.3.4.1.8.2 1.2.4 0-.2.1-.3.2-.4.9-.7 2.3-.9 3.5-.5z" opacity=".6" fill="#ffebaf"/><path d="M63.9 33.8c0-.4 0-.8.1-1.1 1.2-.4 2.5-.5 3.7-.5-.2 1.6-.5 3.1-.9 4.7-.2-.1-.3-.1-.5-.2.2-.5.5-1.1.5-1.7 0-.6-.2-1.2-.7-1.5-.3-.2-.7-.3-1.1-.2-.2 0-.8.3-1.1.5z" fill="#0697b3"/><path d="M67.4 32.5l-.3 1.5c-.2-.5-.5-.8-.9-1.1-.4-.2-.9-.3-1.4-.1.9-.2 1.7-.4 2.6-.3z" opacity=".3" fill="#ffebaf"/><path d="M60.4 38.7c.4 1.2.8 2.5 1.2 3.7-.8.1-1.6.1-2.4.2.6-.3 1-1.1 1.1-1.8.1-.7.1-1.4.1-2.1zM60.9 32c.7.4 1.6.7 2.3.8-.2.9-.3 1.8-.5 2.6-.4.3-.7.6-1.1 1-.4-1.4-.8-3-.7-4.4zM67.5 42.6c0-1.3-.2-2.6-.4-3.9-.7.7-1.4 1.3-2.1 2 .3-.2.8-.4 1.1-.2.3.1.4.3.6.6.3.3.6 1 .8 1.5z" fill="#0697b3"/><path d="M62.5 30.5l-1.2.4c-.4.1-.8.3-1.1.4l-3.8 3.1-2.2 5v.2l1.7 3.5v.1h.1c2 .4 4 .6 6 .6 1 0 2 0 3-.2 1-.1 2-.3 3-.5-1 .1-2 .3-3 .3s-2 .1-3 .1c-2 0-3.9-.2-5.9-.6l-1.6-3.4 2.2-4.9 3.8-3.1c.4-.1.8-.3 1.1-.4l1.1-.4 2.3-.9-2.5.7z" fill="#fafaed"/><path d="M68.4 31.6l-1.8-.9c-.6-.3-1.2-.6-1.8-.8.6.4 1.1.7 1.7 1.1l1.7.9c.3 1.9.5 3.8.5 5.7 0 1-.1 1.9-.3 2.9-.2.9-.3 1.9-.6 2.8.4-.9.8-1.8.9-2.8.2-1 .3-1.9.3-2.9 0-2.1-.2-4-.6-6z" fill="#70e0cd"/></g><g id="el_BCEk5lwGbKo"><path d="M142.3 36.9l-2-4.5-3.4-2.8-4.1-1.4-3.2 1.7c-.7 3.8-.6 7.3.5 10.2 3.4.6 6.9.7 10.6-.1l1.6-3.1z" fill="#07c8c8"/><path opacity=".3" fill="#ffebaf" d="M140.4 32.5l-.4 3.2-3.2-.3-2.4-2.1-.5-2.8 3.1-.8z"/><path opacity=".3" fill="#ffebaf" d="M136.8 35.4l3.2.3.9 4.3-5.5-.2z"/><path fill="#0697b3" d="M134.4 33.3l2.4 2.1-1.4 4.4-4.8-4.4z"/><g id="el_oPaJosHyFt2" fill="#006a94"><path d="M133.9 30.5l-4.1-.6.8 5.5 3.8-2.1zM135.4 39.8l-4.8-4.4-.3 4.7z"/></g><path d="M137.3 30.4c1 .8 1.9 1.6 2.8 2.3-.1.9-.2 1.7-.3 2.6-.9.1-1.8.1-2.7-.2.6 0 1.2-.6 1.4-1.2.2-.6.1-1.3-.2-1.9-.2-.5-.6-1.1-1-1.6zM137.3 35.6c.8.2 1.6.2 2.4.2.3 1.3.5 2.5.8 3.8H139c.5-.6.6-1.6.3-2.3-.3-.8-1.2-1.6-2-1.7zM140.4 34.7l.3-1.2c.5 1.1 1 2.3 1.5 3.4-.1.3-.3.7-.5 1 0-.6 0-1.2-.1-1.8-.2-.6-.7-1.2-1.2-1.4z" opacity=".6" fill="#ffebaf"/><path d="M134.3 33.8c-.9.6-1.9 1.2-3 1.7 1.1 1.2 2.2 2.3 3.4 3.3l.3-.6c-.4.1-.8-.3-1-.7-.3-.5-.4-1.2-.2-1.7.2-.6.6-1.1 1.1-1.4-.3-.2-.5-.4-.6-.6z" fill="#006a94"/><path d="M131.7 29.1c.5-.2.9-.5 1.4-.7 1 .5 2 .9 3 1.2-.4.1-.7.2-1.1.3 0-.1-.1-.3-.2-.4-.8-.6-2.1-.8-3.1-.4z" opacity=".6" fill="#ffebaf"/><path d="M133.7 31.8c0-.3 0-.7-.1-1-1.1-.3-2.2-.5-3.3-.4.2 1.4.5 2.8.8 4.1.1-.1.3-.1.4-.2-.2-.5-.5-1-.5-1.5s.2-1.1.6-1.3c.3-.2.7-.2 1-.2s.9.3 1.1.5z" fill="#0697b3"/><path d="M130.6 30.6c.1.5.2.9.2 1.4.1-.4.4-.7.8-.9.4-.2.8-.2 1.2-.1-.7-.2-1.4-.5-2.2-.4z" opacity=".3" fill="#ffebaf"/><path d="M136.9 36.1c-.4 1.1-.7 2.2-1.1 3.3.7.1 1.4.1 2.2.2-.6-.3-.9-.9-1-1.6-.2-.6-.2-1.2-.1-1.9zM136.4 30.1c-.7.3-1.4.6-2.1.8.1.8.3 1.6.4 2.3.3.3.6.6 1 .8.4-1.1.8-2.6.7-3.9zM130.6 39.6c0-1.2.2-2.3.3-3.5.6.6 1.2 1.2 1.8 1.7-.3-.2-.7-.3-1-.2-.2.1-.4.3-.5.5-.2.4-.5 1-.6 1.5z" fill="#0697b3"/><path d="M135 28.9l1 .3c.3.1.7.2 1 .3l3.4 2.8 2 4.5-1.5 3.1v.1h-.1c-1.7.4-3.5.5-5.3.6-.9 0-1.8 0-2.7-.1s-1.8-.3-2.6-.5c.9.1 1.8.2 2.6.3.9 0 1.8.1 2.7.1 1.7 0 3.5-.2 5.2-.5l1.4-3-1.9-4.4-3.4-2.8c-.3-.1-.7-.2-1-.4l-1-.4-2-.8 2.2.8z" fill="#fafaed"/><path d="M129.7 29.8l1.6-.8c.5-.2 1.1-.5 1.6-.7l-1.5.9-1.5.8c-.3 1.7-.4 3.4-.4 5.1 0 .9.1 1.7.2 2.5.2.8.3 1.7.6 2.5-.4-.8-.7-1.6-.8-2.5-.2-.9-.2-1.7-.3-2.6 0-1.7.2-3.4.5-5.2z" fill="#70e0cd"/></g></g><g data-animator-group="true" data-animator-type="2" style="-webkit-animation-fill-mode:backwards;animation-fill-mode:backwards;-webkit-transform:translate(45.200002670288086px,61.200002670288086px) scale(0,0) translate(-45.200002670288086px,-61.200002670288086px);transform:translate(45.200002670288086px,61.200002670288086px) scale(0,0) translate(-45.200002670288086px,-61.200002670288086px);-webkit-animation-name:kf_el_OSutWIhhHK0_an_N7QvMGufW;animation-name:kf_el_OSutWIhhHK0_an_N7QvMGufW;-webkit-animation-timing-function:cubic-bezier(0,0,1,1);animation-timing-function:cubic-bezier(0,0,1,1)"><g id="el_OSutWIhhHK0"><radialGradient id="SVGID_12_" cx="45.342" cy="61.461" r="4.981" gradientUnits="userSpaceOnUse"><stop offset="0" stop-color="#fff59d"/><stop offset=".207" stop-color="#fff8b8" stop-opacity=".792"/><stop offset=".55" stop-color="#fffcde" stop-opacity=".447"/><stop offset=".824" stop-color="#fffef6" stop-opacity=".171"/><stop offset=".994" stop-color="#fff" stop-opacity="0"/></radialGradient><circle cx="45.2" cy="61.2" r="5.1" fill="url(#SVGID_12_)"/><radialGradient id="SVGID_13_" cx="-5138.367" cy="322.447" r="2.252" gradientTransform="matrix(.1213 0 0 -2.173 668.525 761.879)" gradientUnits="userSpaceOnUse"><stop offset="0" stop-color="#fff59d"/><stop offset=".027" stop-color="#fff5a1" stop-opacity=".973"/><stop offset=".323" stop-color="#fffaca" stop-opacity=".675"/><stop offset=".593" stop-color="#fffde7" stop-opacity=".403"/><stop offset=".826" stop-color="#fffef9" stop-opacity=".169"/><stop offset=".994" stop-color="#fff" stop-opacity="0"/></radialGradient><path d="M45.5 61.2c0 2.7-.1 4.9-.3 4.9s-.3-2.2-.3-4.9.1-4.9.3-4.9c.2 0 .3 2.2.3 4.9z" fill="url(#SVGID_13_)"/><radialGradient id="SVGID_14_" cx="-797.252" cy="20.115" r="2.252" gradientTransform="matrix(.0857 .0857 1.1443 -1.1443 90.548 152.537)" gradientUnits="userSpaceOnUse"><stop offset="0" stop-color="#fff59d"/><stop offset=".027" stop-color="#fff5a1" stop-opacity=".973"/><stop offset=".323" stop-color="#fffaca" stop-opacity=".675"/><stop offset=".593" stop-color="#fffde7" stop-opacity=".403"/><stop offset=".826" stop-color="#fffef9" stop-opacity=".169"/><stop offset=".994" stop-color="#fff" stop-opacity="0"/></radialGradient><path d="M45.4 61.4c-1.4 1.4-2.7 2.5-2.8 2.4s1-1.3 2.4-2.8c1.4-1.4 2.7-2.5 2.8-2.4s-.9 1.4-2.4 2.8z" fill="url(#SVGID_14_)"/><radialGradient id="SVGID_15_" cx="4445.052" cy="-22.695" r="2.251" gradientTransform="matrix(0 .1213 1.2976 0 74.69 -477.99)" gradientUnits="userSpaceOnUse"><stop offset="0" stop-color="#fff59d"/><stop offset=".027" stop-color="#fff5a1" stop-opacity=".973"/><stop offset=".323" stop-color="#fffaca" stop-opacity=".675"/><stop offset=".593" stop-color="#fffde7" stop-opacity=".403"/><stop offset=".826" stop-color="#fffef9" stop-opacity=".169"/><stop offset=".994" stop-color="#fff" stop-opacity="0"/></radialGradient><path d="M45.2 61.5c-1.6 0-2.9-.1-2.9-.3s1.3-.3 2.9-.3c1.6 0 2.9.1 2.9.3.1.1-1.2.3-2.9.3z" fill="url(#SVGID_15_)"/><radialGradient id="SVGID_16_" cx="7546.811" cy="440.986" r="2.252" gradientTransform="matrix(-.0857 .0857 1.5365 1.5365 14.428 -1263.142)" gradientUnits="userSpaceOnUse"><stop offset="0" stop-color="#fff59d"/><stop offset=".027" stop-color="#fff5a1" stop-opacity=".973"/><stop offset=".323" stop-color="#fffaca" stop-opacity=".675"/><stop offset=".593" stop-color="#fffde7" stop-opacity=".403"/><stop offset=".826" stop-color="#fffef9" stop-opacity=".169"/><stop offset=".994" stop-color="#fff" stop-opacity="0"/></radialGradient><path d="M45 61.4c-1.9-1.9-3.4-3.5-3.3-3.7.1-.1 1.7 1.4 3.7 3.3 1.9 1.9 3.4 3.5 3.3 3.7-.1.1-1.7-1.4-3.7-3.3z" fill="url(#SVGID_16_)"/></g></g><g data-animator-group="true" data-animator-type="2" style="-webkit-animation-fill-mode:backwards;animation-fill-mode:backwards;-webkit-transform:translate(64.95000076293945px,98.14999771118164px) scale(0,0) translate(-64.95000076293945px,-98.14999771118164px);transform:translate(64.95000076293945px,98.14999771118164px) scale(0,0) translate(-64.95000076293945px,-98.14999771118164px);-webkit-animation-name:kf_el_Cpk1E0FYVXqu_an_3YEfH8D04;animation-name:kf_el_Cpk1E0FYVXqu_an_3YEfH8D04;-webkit-animation-timing-function:cubic-bezier(0,0,1,1);animation-timing-function:cubic-bezier(0,0,1,1)"><g id="el_Cpk1E0FYVXqu"><radialGradient id="SVGID_17_" cx="65.042" cy="98.461" r="4.981" gradientUnits="userSpaceOnUse"><stop offset="0" stop-color="#fff59d"/><stop offset=".207" stop-color="#fff8b8" stop-opacity=".792"/><stop offset=".55" stop-color="#fffcde" stop-opacity=".447"/><stop offset=".824" stop-color="#fffef6" stop-opacity=".171"/><stop offset=".994" stop-color="#fff" stop-opacity="0"/></radialGradient><path d="M66.1 93.2c-3.7-.8-7 2.4-6.1 6.1.4 1.9 1.9 3.4 3.8 3.8 3.7.8 7-2.4 6.1-6.1-.4-1.8-2-3.4-3.8-3.8z" fill="url(#SVGID_17_)"/><radialGradient id="SVGID_18_" cx="-4975.959" cy="305.42" r="2.252" gradientTransform="matrix(.1213 0 0 -2.173 668.525 761.879)" gradientUnits="userSpaceOnUse"><stop offset="0" stop-color="#fff59d"/><stop offset=".027" stop-color="#fff5a1" stop-opacity=".973"/><stop offset=".323" stop-color="#fffaca" stop-opacity=".675"/><stop offset=".593" stop-color="#fffde7" stop-opacity=".403"/><stop offset=".826" stop-color="#fffef9" stop-opacity=".169"/><stop offset=".994" stop-color="#fff" stop-opacity="0"/></radialGradient><path d="M65.2 98.2c0 2.7-.1 4.9-.3 4.9-.2 0-.3-2.2-.3-4.9s.1-4.9.3-4.9c.2 0 .3 2.2.3 4.9z" fill="url(#SVGID_18_)"/><radialGradient id="SVGID_19_" cx="-466.447" cy="12.556" r="2.252" gradientTransform="matrix(.0857 .0857 1.1443 -1.1443 90.548 152.537)" gradientUnits="userSpaceOnUse"><stop offset="0" stop-color="#fff59d"/><stop offset=".027" stop-color="#fff5a1" stop-opacity=".973"/><stop offset=".323" stop-color="#fffaca" stop-opacity=".675"/><stop offset=".593" stop-color="#fffde7" stop-opacity=".403"/><stop offset=".826" stop-color="#fffef9" stop-opacity=".169"/><stop offset=".994" stop-color="#fff" stop-opacity="0"/></radialGradient><path d="M65.1 98.4c-1.4 1.4-2.7 2.5-2.8 2.4s1-1.3 2.4-2.8c1.4-1.4 2.7-2.5 2.8-2.4.1.1-.9 1.4-2.4 2.8z" fill="url(#SVGID_19_)"/><radialGradient id="SVGID_20_" cx="4750.081" cy="-7.513" r="2.251" gradientTransform="matrix(0 .1213 1.2976 0 74.69 -477.99)" gradientUnits="userSpaceOnUse"><stop offset="0" stop-color="#fff59d"/><stop offset=".027" stop-color="#fff5a1" stop-opacity=".973"/><stop offset=".323" stop-color="#fffaca" stop-opacity=".675"/><stop offset=".593" stop-color="#fffde7" stop-opacity=".403"/><stop offset=".826" stop-color="#fffef9" stop-opacity=".169"/><stop offset=".994" stop-color="#fff" stop-opacity="0"/></radialGradient><path d="M64.9 98.5c-1.6 0-2.9-.1-2.9-.3 0-.2 1.3-.3 2.9-.3 1.6 0 2.9.1 2.9.3.1.1-1.2.3-2.9.3z" fill="url(#SVGID_20_)"/><radialGradient id="SVGID_21_" cx="7647.745" cy="459.437" r="2.252" gradientTransform="matrix(-.0857 .0857 1.5365 1.5365 14.428 -1263.142)" gradientUnits="userSpaceOnUse"><stop offset="0" stop-color="#fff59d"/><stop offset=".027" stop-color="#fff5a1" stop-opacity=".973"/><stop offset=".323" stop-color="#fffaca" stop-opacity=".675"/><stop offset=".593" stop-color="#fffde7" stop-opacity=".403"/><stop offset=".826" stop-color="#fffef9" stop-opacity=".169"/><stop offset=".994" stop-color="#fff" stop-opacity="0"/></radialGradient><path d="M64.7 98.4c-1.9-1.9-3.4-3.5-3.3-3.7.1-.1 1.7 1.4 3.7 3.3 1.9 1.9 3.4 3.5 3.3 3.7-.1.1-1.7-1.4-3.7-3.3z" fill="url(#SVGID_21_)"/></g></g><g data-animator-group="true" data-animator-type="2" style="-webkit-animation-fill-mode:backwards;animation-fill-mode:backwards;-webkit-transform:translate(38.80000114440918px,80.0999984741211px) scale(0,0) translate(-38.80000114440918px,-80.0999984741211px);transform:translate(38.80000114440918px,80.0999984741211px) scale(0,0) translate(-38.80000114440918px,-80.0999984741211px);-webkit-animation-name:kf_el_jpUhTEEq5A8O_an_Qqx0-DBrp;animation-name:kf_el_jpUhTEEq5A8O_an_Qqx0-DBrp;-webkit-animation-timing-function:cubic-bezier(0,0,1,1);animation-timing-function:cubic-bezier(0,0,1,1)"><g id="el_jpUhTEEq5A8O"><radialGradient id="SVGID_22_" cx="38.942" cy="80.327" r="4.981" gradientUnits="userSpaceOnUse"><stop offset="0" stop-color="#fff59d"/><stop offset=".207" stop-color="#fff8b8" stop-opacity=".792"/><stop offset=".55" stop-color="#fffcde" stop-opacity=".447"/><stop offset=".824" stop-color="#fffef6" stop-opacity=".171"/><stop offset=".994" stop-color="#fff" stop-opacity="0"/></radialGradient><circle cx="38.8" cy="80.1" r="5.1" fill="url(#SVGID_22_)"/><radialGradient id="SVGID_23_" cx="-5191.128" cy="313.766" r="2.252" gradientTransform="matrix(.1213 0 0 -2.173 668.525 761.879)" gradientUnits="userSpaceOnUse"><stop offset="0" stop-color="#fff59d"/><stop offset=".027" stop-color="#fff5a1" stop-opacity=".973"/><stop offset=".323" stop-color="#fffaca" stop-opacity=".675"/><stop offset=".593" stop-color="#fffde7" stop-opacity=".403"/><stop offset=".826" stop-color="#fffef9" stop-opacity=".169"/><stop offset=".994" stop-color="#fff" stop-opacity="0"/></radialGradient><path d="M39.1 80.1c0 2.7-.1 4.9-.3 4.9s-.3-2.2-.3-4.9.1-4.9.3-4.9.3 2.2.3 4.9z" fill="url(#SVGID_23_)"/><radialGradient id="SVGID_24_" cx="-724.523" cy="9.076" r="2.252" gradientTransform="matrix(.0857 .0857 1.1443 -1.1443 90.548 152.537)" gradientUnits="userSpaceOnUse"><stop offset="0" stop-color="#fff59d"/><stop offset=".027" stop-color="#fff5a1" stop-opacity=".973"/><stop offset=".323" stop-color="#fffaca" stop-opacity=".675"/><stop offset=".593" stop-color="#fffde7" stop-opacity=".403"/><stop offset=".826" stop-color="#fffef9" stop-opacity=".169"/><stop offset=".994" stop-color="#fff" stop-opacity="0"/></radialGradient><path d="M39 80.3c-1.4 1.4-2.7 2.5-2.8 2.4s1-1.3 2.4-2.8c1.4-1.4 2.7-2.5 2.8-2.4s-.9 1.4-2.4 2.8z" fill="url(#SVGID_24_)"/><radialGradient id="SVGID_25_" cx="4600.582" cy="-27.627" r="2.251" gradientTransform="matrix(0 .1213 1.2976 0 74.69 -477.99)" gradientUnits="userSpaceOnUse"><stop offset="0" stop-color="#fff59d"/><stop offset=".027" stop-color="#fff5a1" stop-opacity=".973"/><stop offset=".323" stop-color="#fffaca" stop-opacity=".675"/><stop offset=".593" stop-color="#fffde7" stop-opacity=".403"/><stop offset=".826" stop-color="#fffef9" stop-opacity=".169"/><stop offset=".994" stop-color="#fff" stop-opacity="0"/></radialGradient><path d="M38.8 80.4c-1.6 0-2.9-.1-2.9-.3 0-.2 1.3-.3 2.9-.3 1.6 0 2.9.1 2.9.3.1.1-1.2.3-2.9.3z" fill="url(#SVGID_25_)"/><radialGradient id="SVGID_26_" cx="7694.219" cy="445.043" r="2.252" gradientTransform="matrix(-.0857 .0857 1.5365 1.5365 14.428 -1263.142)" gradientUnits="userSpaceOnUse"><stop offset="0" stop-color="#fff59d"/><stop offset=".027" stop-color="#fff5a1" stop-opacity=".973"/><stop offset=".323" stop-color="#fffaca" stop-opacity=".675"/><stop offset=".593" stop-color="#fffde7" stop-opacity=".403"/><stop offset=".826" stop-color="#fffef9" stop-opacity=".169"/><stop offset=".994" stop-color="#fff" stop-opacity="0"/></radialGradient><path d="M38.6 80.3c-1.9-1.9-3.4-3.5-3.3-3.7.1-.1 1.7 1.4 3.7 3.3 1.9 1.9 3.4 3.5 3.3 3.7-.1.1-1.7-1.4-3.7-3.3z" fill="url(#SVGID_26_)"/></g></g><g data-animator-group="true" data-animator-type="2" style="-webkit-animation-fill-mode:backwards;animation-fill-mode:backwards;-webkit-transform:translate(94.5999984741211px,59.400001525878906px) scale(0,0) translate(-94.5999984741211px,-59.400001525878906px);transform:translate(94.5999984741211px,59.400001525878906px) scale(0,0) translate(-94.5999984741211px,-59.400001525878906px);-webkit-animation-name:kf_el_FBXNBWprHjyG_an_qcbxcsxk7;animation-name:kf_el_FBXNBWprHjyG_an_qcbxcsxk7;-webkit-animation-timing-function:cubic-bezier(0,0,1,1);animation-timing-function:cubic-bezier(0,0,1,1)"><g id="el_FBXNBWprHjyG"><radialGradient id="SVGID_27_" cx="94.742" cy="59.661" r="4.981" gradientUnits="userSpaceOnUse"><stop offset="0" stop-color="#fff59d"/><stop offset=".207" stop-color="#fff8b8" stop-opacity=".792"/><stop offset=".55" stop-color="#fffcde" stop-opacity=".447"/><stop offset=".824" stop-color="#fffef6" stop-opacity=".171"/><stop offset=".994" stop-color="#fff" stop-opacity="0"/></radialGradient><circle cx="94.6" cy="59.4" r="5.1" fill="url(#SVGID_27_)"/><radialGradient id="SVGID_28_" cx="-4731.112" cy="323.276" r="2.252" gradientTransform="matrix(.1213 0 0 -2.173 668.525 761.879)" gradientUnits="userSpaceOnUse"><stop offset="0" stop-color="#fff59d"/><stop offset=".027" stop-color="#fff5a1" stop-opacity=".973"/><stop offset=".323" stop-color="#fffaca" stop-opacity=".675"/><stop offset=".593" stop-color="#fffde7" stop-opacity=".403"/><stop offset=".826" stop-color="#fffef9" stop-opacity=".169"/><stop offset=".994" stop-color="#fff" stop-opacity="0"/></radialGradient><path d="M94.9 59.4c0 2.7-.1 4.9-.3 4.9-.2 0-.3-2.2-.3-4.9s.1-4.9.3-4.9c.2 0 .3 2.2.3 4.9z" fill="url(#SVGID_28_)"/><radialGradient id="SVGID_29_" cx="-519.539" cy="42.487" r="2.252" gradientTransform="matrix(.0857 .0857 1.1443 -1.1443 90.548 152.537)" gradientUnits="userSpaceOnUse"><stop offset="0" stop-color="#fff59d"/><stop offset=".027" stop-color="#fff5a1" stop-opacity=".973"/><stop offset=".323" stop-color="#fffaca" stop-opacity=".675"/><stop offset=".593" stop-color="#fffde7" stop-opacity=".403"/><stop offset=".826" stop-color="#fffef9" stop-opacity=".169"/><stop offset=".994" stop-color="#fff" stop-opacity="0"/></radialGradient><path d="M94.8 59.6C93.4 61 92.1 62.1 92 62c-.1-.1 1-1.3 2.4-2.8 1.4-1.4 2.7-2.5 2.8-2.4s-.9 1.4-2.4 2.8z" fill="url(#SVGID_29_)"/><radialGradient id="SVGID_30_" cx="4430.213" cy="15.375" r="2.251" gradientTransform="matrix(0 .1213 1.2976 0 74.69 -477.99)" gradientUnits="userSpaceOnUse"><stop offset="0" stop-color="#fff59d"/><stop offset=".027" stop-color="#fff5a1" stop-opacity=".973"/><stop offset=".323" stop-color="#fffaca" stop-opacity=".675"/><stop offset=".593" stop-color="#fffde7" stop-opacity=".403"/><stop offset=".826" stop-color="#fffef9" stop-opacity=".169"/><stop offset=".994" stop-color="#fff" stop-opacity="0"/></radialGradient><path d="M94.6 59.7c-1.6 0-2.9-.1-2.9-.3s1.3-.3 2.9-.3c1.6 0 2.9.1 2.9.3.1.1-1.2.3-2.9.3z" fill="url(#SVGID_30_)"/><radialGradient id="SVGID_31_" cx="7248.094" cy="456.476" r="2.252" gradientTransform="matrix(-.0857 .0857 1.5365 1.5365 14.428 -1263.142)" gradientUnits="userSpaceOnUse"><stop offset="0" stop-color="#fff59d"/><stop offset=".027" stop-color="#fff5a1" stop-opacity=".973"/><stop offset=".323" stop-color="#fffaca" stop-opacity=".675"/><stop offset=".593" stop-color="#fffde7" stop-opacity=".403"/><stop offset=".826" stop-color="#fffef9" stop-opacity=".169"/><stop offset=".994" stop-color="#fff" stop-opacity="0"/></radialGradient><path d="M94.4 59.6c-1.9-1.9-3.4-3.5-3.3-3.7.1-.1 1.7 1.4 3.7 3.3 1.9 1.9 3.4 3.5 3.3 3.7-.1.1-1.7-1.4-3.7-3.3z" fill="url(#SVGID_31_)"/></g></g><g data-animator-group="true" data-animator-type="2" style="-webkit-animation-fill-mode:backwards;animation-fill-mode:backwards;-webkit-transform:translate(144.0999984741211px,57.10000038146973px) scale(0,0) translate(-144.0999984741211px,-57.10000038146973px);transform:translate(144.0999984741211px,57.10000038146973px) scale(0,0) translate(-144.0999984741211px,-57.10000038146973px);-webkit-animation-name:kf_el_5G4v1vx0WzRw_an_MVZWajl12;animation-name:kf_el_5G4v1vx0WzRw_an_MVZWajl12;-webkit-animation-timing-function:cubic-bezier(0,0,1,1);animation-timing-function:cubic-bezier(0,0,1,1)"><g id="el_5G4v1vx0WzRw"><radialGradient id="SVGID_32_" cx="144.196" cy="57.361" r="4.981" gradientUnits="userSpaceOnUse"><stop offset="0" stop-color="#fff59d"/><stop offset=".207" stop-color="#fff8b8" stop-opacity=".792"/><stop offset=".55" stop-color="#fffcde" stop-opacity=".447"/><stop offset=".824" stop-color="#fffef6" stop-opacity=".171"/><stop offset=".994" stop-color="#fff" stop-opacity="0"/></radialGradient><circle cx="144.1" cy="57.1" r="5.1" fill="url(#SVGID_32_)"/><radialGradient id="SVGID_33_" cx="-4323.41" cy="324.334" r="2.252" gradientTransform="matrix(.1213 0 0 -2.173 668.525 761.879)" gradientUnits="userSpaceOnUse"><stop offset="0" stop-color="#fff59d"/><stop offset=".027" stop-color="#fff5a1" stop-opacity=".973"/><stop offset=".323" stop-color="#fffaca" stop-opacity=".675"/><stop offset=".593" stop-color="#fffde7" stop-opacity=".403"/><stop offset=".826" stop-color="#fffef9" stop-opacity=".169"/><stop offset=".994" stop-color="#fff" stop-opacity="0"/></radialGradient><path d="M144.4 57.1c0 2.7-.1 4.9-.3 4.9s-.3-2.2-.3-4.9.1-4.9.3-4.9c.2 0 .3 2.2.3 4.9z" fill="url(#SVGID_33_)"/><radialGradient id="SVGID_34_" cx="-244.427" cy="65.101" r="2.252" gradientTransform="matrix(.0857 .0857 1.1443 -1.1443 90.548 152.537)" gradientUnits="userSpaceOnUse"><stop offset="0" stop-color="#fff59d"/><stop offset=".027" stop-color="#fff5a1" stop-opacity=".973"/><stop offset=".323" stop-color="#fffaca" stop-opacity=".675"/><stop offset=".593" stop-color="#fffde7" stop-opacity=".403"/><stop offset=".826" stop-color="#fffef9" stop-opacity=".169"/><stop offset=".994" stop-color="#fff" stop-opacity="0"/></radialGradient><path d="M144.3 57.3c-1.4 1.4-2.7 2.5-2.8 2.4-.1-.1 1-1.3 2.4-2.8 1.4-1.4 2.7-2.5 2.8-2.4.1.1-.9 1.4-2.4 2.8z" fill="url(#SVGID_34_)"/><radialGradient id="SVGID_35_" cx="4411.252" cy="53.487" r="2.251" gradientTransform="matrix(0 .1213 1.2976 0 74.69 -477.99)" gradientUnits="userSpaceOnUse"><stop offset="0" stop-color="#fff59d"/><stop offset=".027" stop-color="#fff5a1" stop-opacity=".973"/><stop offset=".323" stop-color="#fffaca" stop-opacity=".675"/><stop offset=".593" stop-color="#fffde7" stop-opacity=".403"/><stop offset=".826" stop-color="#fffef9" stop-opacity=".169"/><stop offset=".994" stop-color="#fff" stop-opacity="0"/></radialGradient><path d="M144.1 57.4c-1.6 0-2.9-.1-2.9-.3s1.3-.3 2.9-.3 2.9.1 2.9.3c.1.1-1.2.3-2.9.3z" fill="url(#SVGID_35_)"/><radialGradient id="SVGID_36_" cx="6946.145" cy="471.821" r="2.252" gradientTransform="matrix(-.0857 .0857 1.5365 1.5365 14.428 -1263.142)" gradientUnits="userSpaceOnUse"><stop offset="0" stop-color="#fff59d"/><stop offset=".027" stop-color="#fff5a1" stop-opacity=".973"/><stop offset=".323" stop-color="#fffaca" stop-opacity=".675"/><stop offset=".593" stop-color="#fffde7" stop-opacity=".403"/><stop offset=".826" stop-color="#fffef9" stop-opacity=".169"/><stop offset=".994" stop-color="#fff" stop-opacity="0"/></radialGradient><path d="M143.9 57.3c-1.9-1.9-3.4-3.5-3.3-3.7.1-.1 1.7 1.4 3.7 3.3 1.9 1.9 3.4 3.5 3.3 3.7-.1.1-1.7-1.4-3.7-3.3z" fill="url(#SVGID_36_)"/></g></g><g data-animator-group="true" data-animator-type="2" style="-webkit-animation-fill-mode:backwards;animation-fill-mode:backwards;-webkit-transform:translate(113px,98px) scale(0,0) translate(-113px,-98px);transform:translate(113px,98px) scale(0,0) translate(-113px,-98px);-webkit-animation-name:kf_el_XwFscT2_XotS_an_UZQyIf1Th;animation-name:kf_el_XwFscT2_XotS_an_UZQyIf1Th;-webkit-animation-timing-function:cubic-bezier(0,0,1,1);animation-timing-function:cubic-bezier(0,0,1,1)"><g id="el_XwFscT2_XotS"><radialGradient id="SVGID_37_" cx="113.142" cy="98.261" r="4.981" gradientUnits="userSpaceOnUse"><stop offset="0" stop-color="#fff59d"/><stop offset=".207" stop-color="#fff8b8" stop-opacity=".792"/><stop offset=".55" stop-color="#fffcde" stop-opacity=".447"/><stop offset=".824" stop-color="#fffef6" stop-opacity=".171"/><stop offset=".994" stop-color="#fff" stop-opacity="0"/></radialGradient><circle cx="113" cy="98" r="5.1" fill="url(#SVGID_37_)"/><radialGradient id="SVGID_38_" cx="-4579.422" cy="305.512" r="2.252" gradientTransform="matrix(.1213 0 0 -2.173 668.525 761.879)" gradientUnits="userSpaceOnUse"><stop offset="0" stop-color="#fff59d"/><stop offset=".027" stop-color="#fff5a1" stop-opacity=".973"/><stop offset=".323" stop-color="#fffaca" stop-opacity=".675"/><stop offset=".593" stop-color="#fffde7" stop-opacity=".403"/><stop offset=".826" stop-color="#fffef9" stop-opacity=".169"/><stop offset=".994" stop-color="#fff" stop-opacity="0"/></radialGradient><path d="M113.3 98c0 2.7-.1 4.9-.3 4.9-.2 0-.3-2.2-.3-4.9s.1-4.9.3-4.9c.2 0 .3 2.2.3 4.9z" fill="url(#SVGID_38_)"/><radialGradient id="SVGID_39_" cx="-186.984" cy="33.661" r="2.252" gradientTransform="matrix(.0857 .0857 1.1443 -1.1443 90.548 152.537)" gradientUnits="userSpaceOnUse"><stop offset="0" stop-color="#fff59d"/><stop offset=".027" stop-color="#fff5a1" stop-opacity=".973"/><stop offset=".323" stop-color="#fffaca" stop-opacity=".675"/><stop offset=".593" stop-color="#fffde7" stop-opacity=".403"/><stop offset=".826" stop-color="#fffef9" stop-opacity=".169"/><stop offset=".994" stop-color="#fff" stop-opacity="0"/></radialGradient><path d="M113.2 98.2c-1.4 1.4-2.7 2.5-2.8 2.4-.1-.1 1-1.3 2.4-2.8 1.4-1.4 2.7-2.5 2.8-2.4.1.1-.9 1.4-2.4 2.8z" fill="url(#SVGID_39_)"/><radialGradient id="SVGID_40_" cx="4748.432" cy="29.555" r="2.251" gradientTransform="matrix(0 .1213 1.2976 0 74.69 -477.99)" gradientUnits="userSpaceOnUse"><stop offset="0" stop-color="#fff59d"/><stop offset=".027" stop-color="#fff5a1" stop-opacity=".973"/><stop offset=".323" stop-color="#fffaca" stop-opacity=".675"/><stop offset=".593" stop-color="#fffde7" stop-opacity=".403"/><stop offset=".826" stop-color="#fffef9" stop-opacity=".169"/><stop offset=".994" stop-color="#fff" stop-opacity="0"/></radialGradient><path d="M113 98.3c-1.6 0-2.9-.1-2.9-.3 0-.2 1.3-.3 2.9-.3 1.6 0 2.9.1 2.9.3.1.1-1.2.3-2.9.3z" fill="url(#SVGID_40_)"/><radialGradient id="SVGID_41_" cx="7365.948" cy="475.025" r="2.252" gradientTransform="matrix(-.0857 .0857 1.5365 1.5365 14.428 -1263.142)" gradientUnits="userSpaceOnUse"><stop offset="0" stop-color="#fff59d"/><stop offset=".027" stop-color="#fff5a1" stop-opacity=".973"/><stop offset=".323" stop-color="#fffaca" stop-opacity=".675"/><stop offset=".593" stop-color="#fffde7" stop-opacity=".403"/><stop offset=".826" stop-color="#fffef9" stop-opacity=".169"/><stop offset=".994" stop-color="#fff" stop-opacity="0"/></radialGradient><path d="M112.8 98.2c-1.9-1.9-3.4-3.5-3.3-3.7.1-.1 1.7 1.4 3.7 3.3 1.9 1.9 3.4 3.5 3.3 3.7-.1.1-1.7-1.4-3.7-3.3z" fill="url(#SVGID_41_)"/></g></g><g data-animator-group="true" data-animator-type="2" style="-webkit-animation-fill-mode:backwards;animation-fill-mode:backwards;-webkit-transform:translate(144.99999237060547px,97.4000015258789px) scale(0,0) translate(-144.99999237060547px,-97.4000015258789px);transform:translate(144.99999237060547px,97.4000015258789px) scale(0,0) translate(-144.99999237060547px,-97.4000015258789px);-webkit-animation-name:kf_el_vBkgx0JyRtwo_an_0lQjWcsJA;animation-name:kf_el_vBkgx0JyRtwo_an_0lQjWcsJA;-webkit-animation-timing-function:cubic-bezier(0,0,1,1);animation-timing-function:cubic-bezier(0,0,1,1)"><g id="el_vBkgx0JyRtwo"><radialGradient id="SVGID_42_" cx="145.142" cy="97.661" r="4.981" gradientUnits="userSpaceOnUse"><stop offset="0" stop-color="#fff59d"/><stop offset=".207" stop-color="#fff8b8" stop-opacity=".792"/><stop offset=".55" stop-color="#fffcde" stop-opacity=".447"/><stop offset=".824" stop-color="#fffef6" stop-opacity=".171"/><stop offset=".994" stop-color="#fff" stop-opacity="0"/></radialGradient><circle cx="145" cy="97.4" r="5.1" fill="url(#SVGID_42_)"/><radialGradient id="SVGID_43_" cx="-4315.613" cy="305.789" r="2.252" gradientTransform="matrix(.1213 0 0 -2.173 668.525 761.879)" gradientUnits="userSpaceOnUse"><stop offset="0" stop-color="#fff59d"/><stop offset=".027" stop-color="#fff5a1" stop-opacity=".973"/><stop offset=".323" stop-color="#fffaca" stop-opacity=".675"/><stop offset=".593" stop-color="#fffde7" stop-opacity=".403"/><stop offset=".826" stop-color="#fffef9" stop-opacity=".169"/><stop offset=".994" stop-color="#fff" stop-opacity="0"/></radialGradient><path d="M145.3 97.4c0 2.7-.1 4.9-.3 4.9-.2 0-.3-2.2-.3-4.9s.1-4.9.3-4.9c.2 0 .3 2.2.3 4.9z" fill="url(#SVGID_43_)"/><radialGradient id="SVGID_44_" cx="-3.787" cy="47.905" r="2.252" gradientTransform="matrix(.0857 .0857 1.1443 -1.1443 90.548 152.537)" gradientUnits="userSpaceOnUse"><stop offset="0" stop-color="#fff59d"/><stop offset=".027" stop-color="#fff5a1" stop-opacity=".973"/><stop offset=".323" stop-color="#fffaca" stop-opacity=".675"/><stop offset=".593" stop-color="#fffde7" stop-opacity=".403"/><stop offset=".826" stop-color="#fffef9" stop-opacity=".169"/><stop offset=".994" stop-color="#fff" stop-opacity="0"/></radialGradient><path d="M145.2 97.6c-1.4 1.4-2.7 2.5-2.8 2.4-.1-.1 1-1.3 2.4-2.8 1.4-1.4 2.7-2.5 2.8-2.4.1.1-.9 1.4-2.4 2.8z" fill="url(#SVGID_44_)"/><radialGradient id="SVGID_45_" cx="4743.485" cy="54.216" r="2.251" gradientTransform="matrix(0 .1213 1.2976 0 74.69 -477.99)" gradientUnits="userSpaceOnUse"><stop offset="0" stop-color="#fff59d"/><stop offset=".027" stop-color="#fff5a1" stop-opacity=".973"/><stop offset=".323" stop-color="#fffaca" stop-opacity=".675"/><stop offset=".593" stop-color="#fffde7" stop-opacity=".403"/><stop offset=".826" stop-color="#fffef9" stop-opacity=".169"/><stop offset=".994" stop-color="#fff" stop-opacity="0"/></radialGradient><path d="M145 97.7c-1.6 0-2.9-.1-2.9-.3 0-.2 1.3-.3 2.9-.3s2.9.1 2.9.3c.1.1-1.2.3-2.9.3z" fill="url(#SVGID_45_)"/><radialGradient id="SVGID_46_" cx="7175.749" cy="485.243" r="2.252" gradientTransform="matrix(-.0857 .0857 1.5365 1.5365 14.428 -1263.142)" gradientUnits="userSpaceOnUse"><stop offset="0" stop-color="#fff59d"/><stop offset=".027" stop-color="#fff5a1" stop-opacity=".973"/><stop offset=".323" stop-color="#fffaca" stop-opacity=".675"/><stop offset=".593" stop-color="#fffde7" stop-opacity=".403"/><stop offset=".826" stop-color="#fffef9" stop-opacity=".169"/><stop offset=".994" stop-color="#fff" stop-opacity="0"/></radialGradient><path d="M144.8 97.6c-1.9-1.9-3.4-3.5-3.3-3.7.1-.1 1.7 1.4 3.7 3.3 1.9 1.9 3.4 3.5 3.3 3.7-.1.1-1.7-1.4-3.7-3.3z" fill="url(#SVGID_46_)"/></g></g><g data-animator-group="true" data-animator-type="2" style="-webkit-animation-fill-mode:backwards;animation-fill-mode:backwards;-webkit-transform:translate(157.39998626708984px,73px) scale(0,0) translate(-157.39998626708984px,-73px);transform:translate(157.39998626708984px,73px) scale(0,0) translate(-157.39998626708984px,-73px);-webkit-animation-name:kf_el_X7t6HSNA0h5m_an_VKb63k2bQ;animation-name:kf_el_X7t6HSNA0h5m_an_VKb63k2bQ;-webkit-animation-timing-function:cubic-bezier(0,0,1,1);animation-timing-function:cubic-bezier(0,0,1,1)"><g id="el_X7t6HSNA0h5m"><radialGradient id="SVGID_47_" cx="157.542" cy="73.261" r="4.981" gradientUnits="userSpaceOnUse"><stop offset="0" stop-color="#fff59d"/><stop offset=".207" stop-color="#fff8b8" stop-opacity=".792"/><stop offset=".55" stop-color="#fffcde" stop-opacity=".447"/><stop offset=".824" stop-color="#fffef6" stop-opacity=".171"/><stop offset=".994" stop-color="#fff" stop-opacity="0"/></radialGradient><circle cx="157.4" cy="73" r="5.1" fill="url(#SVGID_47_)"/><radialGradient id="SVGID_48_" cx="-4213.387" cy="317.017" r="2.252" gradientTransform="matrix(.1213 0 0 -2.173 668.525 761.879)" gradientUnits="userSpaceOnUse"><stop offset="0" stop-color="#fff59d"/><stop offset=".027" stop-color="#fff5a1" stop-opacity=".973"/><stop offset=".323" stop-color="#fffaca" stop-opacity=".675"/><stop offset=".593" stop-color="#fffde7" stop-opacity=".403"/><stop offset=".826" stop-color="#fffef9" stop-opacity=".169"/><stop offset=".994" stop-color="#fff" stop-opacity="0"/></radialGradient><path d="M157.7 73c0 2.7-.1 4.9-.3 4.9-.2 0-.3-2.2-.3-4.9s.1-4.9.3-4.9c.2 0 .3 2.2.3 4.9z" fill="url(#SVGID_48_)"/><radialGradient id="SVGID_49_" cx="-73.798" cy="63.985" r="2.252" gradientTransform="matrix(.0857 .0857 1.1443 -1.1443 90.548 152.537)" gradientUnits="userSpaceOnUse"><stop offset="0" stop-color="#fff59d"/><stop offset=".027" stop-color="#fff5a1" stop-opacity=".973"/><stop offset=".323" stop-color="#fffaca" stop-opacity=".675"/><stop offset=".593" stop-color="#fffde7" stop-opacity=".403"/><stop offset=".826" stop-color="#fffef9" stop-opacity=".169"/><stop offset=".994" stop-color="#fff" stop-opacity="0"/></radialGradient><path d="M157.6 73.2c-1.4 1.4-2.7 2.5-2.8 2.4-.1-.1 1-1.3 2.4-2.8 1.4-1.4 2.7-2.5 2.8-2.4.1.1-.9 1.4-2.4 2.8z" fill="url(#SVGID_49_)"/><radialGradient id="SVGID_50_" cx="4542.332" cy="63.772" r="2.251" gradientTransform="matrix(0 .1213 1.2976 0 74.69 -477.99)" gradientUnits="userSpaceOnUse"><stop offset="0" stop-color="#fff59d"/><stop offset=".027" stop-color="#fff5a1" stop-opacity=".973"/><stop offset=".323" stop-color="#fffaca" stop-opacity=".675"/><stop offset=".593" stop-color="#fffde7" stop-opacity=".403"/><stop offset=".826" stop-color="#fffef9" stop-opacity=".169"/><stop offset=".994" stop-color="#fff" stop-opacity="0"/></radialGradient><path d="M157.4 73.3c-1.6 0-2.9-.1-2.9-.3 0-.2 1.3-.3 2.9-.3s2.9.1 2.9.3c.1.1-1.2.3-2.9.3z" fill="url(#SVGID_50_)"/><radialGradient id="SVGID_51_" cx="6961.047" cy="481.338" r="2.252" gradientTransform="matrix(-.0857 .0857 1.5365 1.5365 14.428 -1263.142)" gradientUnits="userSpaceOnUse"><stop offset="0" stop-color="#fff59d"/><stop offset=".027" stop-color="#fff5a1" stop-opacity=".973"/><stop offset=".323" stop-color="#fffaca" stop-opacity=".675"/><stop offset=".593" stop-color="#fffde7" stop-opacity=".403"/><stop offset=".826" stop-color="#fffef9" stop-opacity=".169"/><stop offset=".994" stop-color="#fff" stop-opacity="0"/></radialGradient><path d="M157.2 73.2c-1.9-1.9-3.4-3.5-3.3-3.7.1-.1 1.7 1.4 3.7 3.3 1.9 1.9 3.4 3.5 3.3 3.7-.1.1-1.7-1.4-3.7-3.3z" fill="url(#SVGID_51_)"/></g></g></svg>